<?xml version="1.0" encoding="utf-8" standalone="no"?>
<!DOCTYPE svg PUBLIC "-//W3C//DTD SVG 1.1//EN"
  "http://www.w3.org/Graphics/SVG/1.1/DTD/svg11.dtd">
<!-- Created with matplotlib (http://matplotlib.org/) -->
<svg height="422.64pt" version="1.1" viewBox="0 0 684 422.64" width="684pt" xmlns="http://www.w3.org/2000/svg" xmlns:xlink="http://www.w3.org/1999/xlink">
 <defs>
  <style type="text/css">
*{stroke-linecap:butt;stroke-linejoin:round;}
  </style>
 </defs>
 <g id="figure_1">
  <g id="patch_1">
   <path d="M 0 422.64 
L 684 422.64 
L 684 0 
L 0 0 
z
" style="fill:#ffffff;"/>
  </g>
  <g id="axes_1">
   <g id="patch_2">
    <path d="M 60.74 370.58 
L 657.06 370.58 
L 657.06 26.94 
L 60.74 26.94 
z
" style="fill:#ffffff;"/>
   </g>
   <g id="matplotlib.axis_1">
    <g id="xtick_1">
     <g id="line2d_1"/>
     <g id="text_1">
      <!-- 1990 -->
      <defs>
       <path d="M 24.59375 70 
L 24.59375 0 
L 17.40625 0 
L 17.40625 63.59375 
L 0.90625 63.59375 
L 0.90625 70 
z
" id="Montserrat-Regular-31"/>
       <path d="M 27 70.59375 
Q 40.90625 70.59375 48.296875 61.4375 
Q 55.703125 52.296875 55.703125 35.59375 
Q 55.703125 23.90625 51.703125 15.796875 
Q 47.703125 7.703125 40.5 3.546875 
Q 33.296875 -0.59375 23.703125 -0.59375 
Q 13.296875 -0.59375 7.09375 3.203125 
L 10 9 
Q 15 5.703125 23.59375 5.703125 
Q 35.203125 5.703125 41.796875 13.046875 
Q 48.40625 20.40625 48.40625 34.40625 
Q 48.40625 37 48.09375 40.09375 
Q 45.5 34.40625 39.796875 31.25 
Q 34.09375 28.09375 26.703125 28.09375 
Q 19.796875 28.09375 14.4375 30.6875 
Q 9.09375 33.296875 6.09375 38.046875 
Q 3.09375 42.796875 3.09375 49.09375 
Q 3.09375 55.5 6.1875 60.390625 
Q 9.296875 65.296875 14.75 67.9375 
Q 20.203125 70.59375 27 70.59375 
z
M 27.796875 34.203125 
Q 33.09375 34.203125 37.140625 36.203125 
Q 41.203125 38.203125 43.5 41.703125 
Q 45.796875 45.203125 45.796875 49.5 
Q 45.796875 53.5 43.640625 56.890625 
Q 41.5 60.296875 37.296875 62.390625 
Q 33.09375 64.5 27.296875 64.5 
Q 19.703125 64.5 14.953125 60.34375 
Q 10.203125 56.203125 10.203125 49.296875 
Q 10.203125 42.40625 14.953125 38.296875 
Q 19.703125 34.203125 27.796875 34.203125 
z
" id="Montserrat-Regular-39"/>
       <path d="M 33.09375 -0.59375 
Q 25 -0.59375 18.640625 3.703125 
Q 12.296875 8 8.75 16.046875 
Q 5.203125 24.09375 5.203125 35 
Q 5.203125 45.90625 8.75 53.953125 
Q 12.296875 62 18.640625 66.296875 
Q 25 70.59375 33.09375 70.59375 
Q 41.203125 70.59375 47.546875 66.296875 
Q 53.90625 62 57.5 53.953125 
Q 61.09375 45.90625 61.09375 35 
Q 61.09375 24.09375 57.5 16.046875 
Q 53.90625 8 47.546875 3.703125 
Q 41.203125 -0.59375 33.09375 -0.59375 
z
M 33.09375 6 
Q 39.203125 6 43.84375 9.390625 
Q 48.5 12.796875 51.09375 19.296875 
Q 53.703125 25.796875 53.703125 35 
Q 53.703125 44.203125 51.09375 50.703125 
Q 48.5 57.203125 43.84375 60.59375 
Q 39.203125 64 33.09375 64 
Q 27 64 22.34375 60.59375 
Q 17.703125 57.203125 15.09375 50.703125 
Q 12.5 44.203125 12.5 35 
Q 12.5 25.796875 15.09375 19.296875 
Q 17.703125 12.796875 22.34375 9.390625 
Q 27 6 33.09375 6 
z
" id="Montserrat-Regular-30"/>
      </defs>
      <g style="fill:#222222;" transform="translate(63.034266 393.936562)scale(0.18 -0.18)">
       <use xlink:href="#Montserrat-Regular-31"/>
       <use x="36.099991" xlink:href="#Montserrat-Regular-39"/>
       <use x="96.999985" xlink:href="#Montserrat-Regular-39"/>
       <use x="157.899979" xlink:href="#Montserrat-Regular-30"/>
      </g>
     </g>
    </g>
    <g id="xtick_2">
     <g id="line2d_2"/>
     <g id="text_2">
      <!-- 1995 -->
      <defs>
       <path d="M 23.59375 41.296875 
Q 38.796875 41.296875 45.75 35.84375 
Q 52.703125 30.40625 52.703125 20.59375 
Q 52.703125 14.5 49.84375 9.703125 
Q 47 4.90625 41.296875 2.15625 
Q 35.59375 -0.59375 27.296875 -0.59375 
Q 19.796875 -0.59375 13.046875 1.84375 
Q 6.296875 4.296875 2.203125 8.40625 
L 5.703125 14.09375 
Q 9.203125 10.5 14.890625 8.25 
Q 20.59375 6 27.203125 6 
Q 35.90625 6 40.65625 9.890625 
Q 45.40625 13.796875 45.40625 20.296875 
Q 45.40625 27.5 40.046875 31.203125 
Q 34.703125 34.90625 22 34.90625 
L 7.09375 34.90625 
L 10.703125 70 
L 49 70 
L 49 63.59375 
L 17 63.59375 
L 14.59375 41.296875 
L 23.59375 41.296875 
z
" id="Montserrat-Regular-35"/>
      </defs>
      <g style="fill:#222222;" transform="translate(166.008699 393.936562)scale(0.18 -0.18)">
       <use xlink:href="#Montserrat-Regular-31"/>
       <use x="36.099991" xlink:href="#Montserrat-Regular-39"/>
       <use x="96.999985" xlink:href="#Montserrat-Regular-39"/>
       <use x="157.899979" xlink:href="#Montserrat-Regular-35"/>
      </g>
     </g>
    </g>
    <g id="xtick_3">
     <g id="line2d_3"/>
     <g id="text_3">
      <!-- 2000 -->
      <defs>
       <path d="M 53 6.40625 
L 53 0 
L 3.90625 0 
L 3.90625 5.09375 
L 33 33.59375 
Q 38.5 39 40.453125 42.953125 
Q 42.40625 46.90625 42.40625 50.90625 
Q 42.40625 57.09375 38.15625 60.546875 
Q 33.90625 64 26 64 
Q 13.703125 64 6.90625 56.203125 
L 1.796875 60.59375 
Q 5.90625 65.40625 12.25 68 
Q 18.59375 70.59375 26.59375 70.59375 
Q 37.296875 70.59375 43.546875 65.546875 
Q 49.796875 60.5 49.796875 51.703125 
Q 49.796875 46.296875 47.390625 41.296875 
Q 45 36.296875 38.296875 29.796875 
L 14.5 6.40625 
z
" id="Montserrat-Regular-32"/>
      </defs>
      <g style="fill:#222222;" transform="translate(264.436725 393.936562)scale(0.18 -0.18)">
       <use xlink:href="#Montserrat-Regular-32"/>
       <use x="56.799988" xlink:href="#Montserrat-Regular-30"/>
       <use x="122.999985" xlink:href="#Montserrat-Regular-30"/>
       <use x="189.199982" xlink:href="#Montserrat-Regular-30"/>
      </g>
     </g>
    </g>
    <g id="xtick_4">
     <g id="line2d_4"/>
     <g id="text_4">
      <!-- 2005 -->
      <g style="fill:#222222;" transform="translate(367.411158 393.936562)scale(0.18 -0.18)">
       <use xlink:href="#Montserrat-Regular-32"/>
       <use x="56.799988" xlink:href="#Montserrat-Regular-30"/>
       <use x="122.999985" xlink:href="#Montserrat-Regular-30"/>
       <use x="189.199982" xlink:href="#Montserrat-Regular-35"/>
      </g>
     </g>
    </g>
    <g id="xtick_5">
     <g id="line2d_5"/>
     <g id="text_5">
      <!-- 2010 -->
      <g style="fill:#222222;" transform="translate(471.365747 393.936562)scale(0.18 -0.18)">
       <use xlink:href="#Montserrat-Regular-32"/>
       <use x="56.799988" xlink:href="#Montserrat-Regular-30"/>
       <use x="122.999985" xlink:href="#Montserrat-Regular-31"/>
       <use x="159.099976" xlink:href="#Montserrat-Regular-30"/>
      </g>
     </g>
    </g>
    <g id="xtick_6">
     <g id="line2d_6"/>
     <g id="text_6">
      <!-- 2015 -->
      <g style="fill:#222222;" transform="translate(574.34018 393.936562)scale(0.18 -0.18)">
       <use xlink:href="#Montserrat-Regular-32"/>
       <use x="56.799988" xlink:href="#Montserrat-Regular-30"/>
       <use x="122.999985" xlink:href="#Montserrat-Regular-31"/>
       <use x="159.099976" xlink:href="#Montserrat-Regular-35"/>
      </g>
     </g>
    </g>
   </g>
   <g id="matplotlib.axis_2">
    <g id="ytick_1">
     <g id="line2d_7">
      <path clip-path="url(#p9bf5526746)" d="M 60.74 356.723548 
L 657.06 356.723548 
" style="fill:none;stroke:#cbcbcb;stroke-linecap:square;stroke-width:0.8;"/>
     </g>
     <g id="line2d_8"/>
     <g id="text_7">
      <!-- 40 -->
      <defs>
       <path d="M 64.703125 18.40625 
L 50.703125 18.40625 
L 50.703125 0 
L 43.5 0 
L 43.5 18.40625 
L 4 18.40625 
L 4 23.59375 
L 41.09375 70 
L 49.09375 70 
L 13.296875 24.796875 
L 43.703125 24.796875 
L 43.703125 41 
L 50.703125 41 
L 50.703125 24.796875 
L 64.703125 24.796875 
z
" id="Montserrat-Regular-34"/>
      </defs>
      <g style="fill:#222222;" transform="translate(31.926563 363.40183)scale(0.18 -0.18)">
       <use xlink:href="#Montserrat-Regular-34"/>
       <use x="66.099991" xlink:href="#Montserrat-Regular-30"/>
      </g>
     </g>
    </g>
    <g id="ytick_2">
     <g id="line2d_9">
      <path clip-path="url(#p9bf5526746)" d="M 60.74 301.297742 
L 657.06 301.297742 
" style="fill:none;stroke:#cbcbcb;stroke-linecap:square;stroke-width:0.8;"/>
     </g>
     <g id="line2d_10"/>
     <g id="text_8">
      <!-- 60 -->
      <defs>
       <path d="M 34.203125 41.90625 
Q 41.09375 41.90625 46.4375 39.296875 
Q 51.796875 36.703125 54.796875 31.953125 
Q 57.796875 27.203125 57.796875 20.90625 
Q 57.796875 14.5 54.6875 9.59375 
Q 51.59375 4.703125 46.140625 2.046875 
Q 40.703125 -0.59375 33.90625 -0.59375 
Q 20 -0.59375 12.59375 8.546875 
Q 5.203125 17.703125 5.203125 34.40625 
Q 5.203125 46.09375 9.203125 54.1875 
Q 13.203125 62.296875 20.390625 66.4375 
Q 27.59375 70.59375 37.203125 70.59375 
Q 47.59375 70.59375 53.796875 66.796875 
L 50.90625 61 
Q 45.90625 64.296875 37.296875 64.296875 
Q 25.703125 64.296875 19.09375 56.9375 
Q 12.5 49.59375 12.5 35.59375 
Q 12.5 33.09375 12.796875 29.90625 
Q 15.40625 35.59375 21.09375 38.75 
Q 26.796875 41.90625 34.203125 41.90625 
z
M 33.59375 5.5 
Q 41.203125 5.5 45.953125 9.640625 
Q 50.703125 13.796875 50.703125 20.703125 
Q 50.703125 27.59375 45.953125 31.6875 
Q 41.203125 35.796875 33.09375 35.796875 
Q 27.796875 35.796875 23.75 33.796875 
Q 19.703125 31.796875 17.390625 28.296875 
Q 15.09375 24.796875 15.09375 20.5 
Q 15.09375 16.5 17.25 13.09375 
Q 19.40625 9.703125 23.59375 7.59375 
Q 27.796875 5.5 33.59375 5.5 
z
" id="Montserrat-Regular-36"/>
      </defs>
      <g style="fill:#222222;" transform="translate(32.860313 307.976023)scale(0.18 -0.18)">
       <use xlink:href="#Montserrat-Regular-36"/>
       <use x="60.899994" xlink:href="#Montserrat-Regular-30"/>
      </g>
     </g>
    </g>
    <g id="ytick_3">
     <g id="line2d_11">
      <path clip-path="url(#p9bf5526746)" d="M 60.74 245.871935 
L 657.06 245.871935 
" style="fill:none;stroke:#cbcbcb;stroke-linecap:square;stroke-width:0.8;"/>
     </g>
     <g id="line2d_12"/>
     <g id="text_9">
      <!-- 80 -->
      <defs>
       <path d="M 45.296875 36.703125 
Q 51.90625 34.5 55.453125 30.09375 
Q 59 25.703125 59 19.5 
Q 59 13.40625 55.703125 8.84375 
Q 52.40625 4.296875 46.25 1.84375 
Q 40.09375 -0.59375 31.796875 -0.59375 
Q 19.203125 -0.59375 12 4.796875 
Q 4.796875 10.203125 4.796875 19.5 
Q 4.796875 25.796875 8.25 30.140625 
Q 11.703125 34.5 18.296875 36.703125 
Q 12.90625 38.796875 10.09375 42.75 
Q 7.296875 46.703125 7.296875 52.09375 
Q 7.296875 60.59375 13.9375 65.59375 
Q 20.59375 70.59375 31.796875 70.59375 
Q 39.203125 70.59375 44.75 68.34375 
Q 50.296875 66.09375 53.390625 61.890625 
Q 56.5 57.703125 56.5 52.09375 
Q 56.5 46.703125 53.59375 42.75 
Q 50.703125 38.796875 45.296875 36.703125 
z
M 14.5 51.90625 
Q 14.5 46.09375 19.09375 42.6875 
Q 23.703125 39.296875 31.796875 39.296875 
Q 39.90625 39.296875 44.546875 42.6875 
Q 49.203125 46.09375 49.203125 51.796875 
Q 49.203125 57.703125 44.453125 61.09375 
Q 39.703125 64.5 31.796875 64.5 
Q 23.796875 64.5 19.140625 61.09375 
Q 14.5 57.703125 14.5 51.90625 
z
M 31.796875 5.5 
Q 41.09375 5.5 46.34375 9.296875 
Q 51.59375 13.09375 51.59375 19.59375 
Q 51.59375 26.09375 46.34375 29.84375 
Q 41.09375 33.59375 31.796875 33.59375 
Q 22.59375 33.59375 17.34375 29.84375 
Q 12.09375 26.09375 12.09375 19.59375 
Q 12.09375 13 17.296875 9.25 
Q 22.5 5.5 31.796875 5.5 
z
" id="Montserrat-Regular-38"/>
      </defs>
      <g style="fill:#222222;" transform="translate(32.34 252.550217)scale(0.18 -0.18)">
       <use xlink:href="#Montserrat-Regular-38"/>
       <use x="63.799988" xlink:href="#Montserrat-Regular-30"/>
      </g>
     </g>
    </g>
    <g id="ytick_4">
     <g id="line2d_13">
      <path clip-path="url(#p9bf5526746)" d="M 60.74 190.446129 
L 657.06 190.446129 
" style="fill:none;stroke:#cbcbcb;stroke-linecap:square;stroke-width:0.8;"/>
     </g>
     <g id="line2d_14"/>
     <g id="text_10">
      <!-- 100 -->
      <g style="fill:#222222;" transform="translate(25.41 197.12441)scale(0.18 -0.18)">
       <use xlink:href="#Montserrat-Regular-31"/>
       <use x="36.099991" xlink:href="#Montserrat-Regular-30"/>
       <use x="102.299988" xlink:href="#Montserrat-Regular-30"/>
      </g>
     </g>
    </g>
    <g id="ytick_5">
     <g id="line2d_15">
      <path clip-path="url(#p9bf5526746)" d="M 60.74 135.020323 
L 657.06 135.020323 
" style="fill:none;stroke:#cbcbcb;stroke-linecap:square;stroke-width:0.8;"/>
     </g>
     <g id="line2d_16"/>
     <g id="text_11">
      <!-- 120 -->
      <g style="fill:#222222;" transform="translate(27.103125 141.698604)scale(0.18 -0.18)">
       <use xlink:href="#Montserrat-Regular-31"/>
       <use x="36.099991" xlink:href="#Montserrat-Regular-32"/>
       <use x="92.899979" xlink:href="#Montserrat-Regular-30"/>
      </g>
     </g>
    </g>
    <g id="ytick_6">
     <g id="line2d_17">
      <path clip-path="url(#p9bf5526746)" d="M 60.74 79.594516 
L 657.06 79.594516 
" style="fill:none;stroke:#cbcbcb;stroke-linecap:square;stroke-width:0.8;"/>
     </g>
     <g id="line2d_18"/>
     <g id="text_12">
      <!-- 140 -->
      <g style="fill:#222222;" transform="translate(25.429688 86.272797)scale(0.18 -0.18)">
       <use xlink:href="#Montserrat-Regular-31"/>
       <use x="36.099991" xlink:href="#Montserrat-Regular-34"/>
       <use x="102.199982" xlink:href="#Montserrat-Regular-30"/>
      </g>
     </g>
    </g>
   </g>
   <g id="line2d_19">
    <path clip-path="url(#p9bf5526746)" d="M 614.173973 314.303407 
L 593.752055 320.921249 
L 573.330137 314.841038 
L 552.908219 315.436865 
L 532.486301 322.498113 
L 512.064384 323.445894 
L 491.642466 325.502192 
L 471.220548 315.256731 
L 450.79863 316.941676 
L 430.376712 319.230762 
L 409.954795 320.694003 
L 389.532877 322.223755 
L 369.110959 323.432038 
L 348.689041 324.135945 
L 328.267123 326.740958 
L 307.845205 327.94647 
L 287.423288 329.032815 
L 267.00137 332.674291 
L 246.579452 335.107484 
L 226.157534 341.980284 
L 205.735616 344.951107 
L 185.313699 347.991213 
L 164.891781 350.521401 
L 144.469863 350.194388 
L 124.047945 351.934759 
L 103.626027 354.140706 
L 83.20411 355.82565 
" style="fill:none;stroke:#1f77b4;stroke-linecap:square;stroke-width:3;"/>
    <defs>
     <path d="M 0 5 
C 1.326016 5 2.597899 4.473168 3.535534 3.535534 
C 4.473168 2.597899 5 1.326016 5 0 
C 5 -1.326016 4.473168 -2.597899 3.535534 -3.535534 
C 2.597899 -4.473168 1.326016 -5 0 -5 
C -1.326016 -5 -2.597899 -4.473168 -3.535534 -3.535534 
C -4.473168 -2.597899 -5 -1.326016 -5 0 
C -5 1.326016 -4.473168 2.597899 -3.535534 3.535534 
C -2.597899 4.473168 -1.326016 5 0 5 
z
" id="m187b5710cb" style="stroke:#1f77b4;"/>
    </defs>
    <g clip-path="url(#p9bf5526746)">
     <use style="fill:#1f77b4;stroke:#1f77b4;" x="614.173973" xlink:href="#m187b5710cb" y="314.303407"/>
     <use style="fill:#1f77b4;stroke:#1f77b4;" x="593.752055" xlink:href="#m187b5710cb" y="320.921249"/>
     <use style="fill:#1f77b4;stroke:#1f77b4;" x="573.330137" xlink:href="#m187b5710cb" y="314.841038"/>
     <use style="fill:#1f77b4;stroke:#1f77b4;" x="552.908219" xlink:href="#m187b5710cb" y="315.436865"/>
     <use style="fill:#1f77b4;stroke:#1f77b4;" x="532.486301" xlink:href="#m187b5710cb" y="322.498113"/>
     <use style="fill:#1f77b4;stroke:#1f77b4;" x="512.064384" xlink:href="#m187b5710cb" y="323.445894"/>
     <use style="fill:#1f77b4;stroke:#1f77b4;" x="491.642466" xlink:href="#m187b5710cb" y="325.502192"/>
     <use style="fill:#1f77b4;stroke:#1f77b4;" x="471.220548" xlink:href="#m187b5710cb" y="315.256731"/>
     <use style="fill:#1f77b4;stroke:#1f77b4;" x="450.79863" xlink:href="#m187b5710cb" y="316.941676"/>
     <use style="fill:#1f77b4;stroke:#1f77b4;" x="430.376712" xlink:href="#m187b5710cb" y="319.230762"/>
     <use style="fill:#1f77b4;stroke:#1f77b4;" x="409.954795" xlink:href="#m187b5710cb" y="320.694003"/>
     <use style="fill:#1f77b4;stroke:#1f77b4;" x="389.532877" xlink:href="#m187b5710cb" y="322.223755"/>
     <use style="fill:#1f77b4;stroke:#1f77b4;" x="369.110959" xlink:href="#m187b5710cb" y="323.432038"/>
     <use style="fill:#1f77b4;stroke:#1f77b4;" x="348.689041" xlink:href="#m187b5710cb" y="324.135945"/>
     <use style="fill:#1f77b4;stroke:#1f77b4;" x="328.267123" xlink:href="#m187b5710cb" y="326.740958"/>
     <use style="fill:#1f77b4;stroke:#1f77b4;" x="307.845205" xlink:href="#m187b5710cb" y="327.94647"/>
     <use style="fill:#1f77b4;stroke:#1f77b4;" x="287.423288" xlink:href="#m187b5710cb" y="329.032815"/>
     <use style="fill:#1f77b4;stroke:#1f77b4;" x="267.00137" xlink:href="#m187b5710cb" y="332.674291"/>
     <use style="fill:#1f77b4;stroke:#1f77b4;" x="246.579452" xlink:href="#m187b5710cb" y="335.107484"/>
     <use style="fill:#1f77b4;stroke:#1f77b4;" x="226.157534" xlink:href="#m187b5710cb" y="341.980284"/>
     <use style="fill:#1f77b4;stroke:#1f77b4;" x="205.735616" xlink:href="#m187b5710cb" y="344.951107"/>
     <use style="fill:#1f77b4;stroke:#1f77b4;" x="185.313699" xlink:href="#m187b5710cb" y="347.991213"/>
     <use style="fill:#1f77b4;stroke:#1f77b4;" x="164.891781" xlink:href="#m187b5710cb" y="350.521401"/>
     <use style="fill:#1f77b4;stroke:#1f77b4;" x="144.469863" xlink:href="#m187b5710cb" y="350.194388"/>
     <use style="fill:#1f77b4;stroke:#1f77b4;" x="124.047945" xlink:href="#m187b5710cb" y="351.934759"/>
     <use style="fill:#1f77b4;stroke:#1f77b4;" x="103.626027" xlink:href="#m187b5710cb" y="354.140706"/>
     <use style="fill:#1f77b4;stroke:#1f77b4;" x="83.20411" xlink:href="#m187b5710cb" y="355.82565"/>
    </g>
   </g>
   <g id="line2d_20">
    <path clip-path="url(#p9bf5526746)" d="M 614.173973 101.856291 
L 593.752055 109.410829 
L 573.330137 95.188567 
L 552.908219 102.00317 
L 532.486301 113.412572 
L 512.064384 115.915047 
L 491.642466 120.199462 
" style="fill:none;stroke:#ff7f0e;stroke-linecap:square;stroke-width:3;"/>
    <defs>
     <path d="M 0 5 
C 1.326016 5 2.597899 4.473168 3.535534 3.535534 
C 4.473168 2.597899 5 1.326016 5 0 
C 5 -1.326016 4.473168 -2.597899 3.535534 -3.535534 
C 2.597899 -4.473168 1.326016 -5 0 -5 
C -1.326016 -5 -2.597899 -4.473168 -3.535534 -3.535534 
C -4.473168 -2.597899 -5 -1.326016 -5 0 
C -5 1.326016 -4.473168 2.597899 -3.535534 3.535534 
C -2.597899 4.473168 -1.326016 5 0 5 
z
" id="mc6647654a7" style="stroke:#ff7f0e;"/>
    </defs>
    <g clip-path="url(#p9bf5526746)">
     <use style="fill:#ff7f0e;stroke:#ff7f0e;" x="614.173973" xlink:href="#mc6647654a7" y="101.856291"/>
     <use style="fill:#ff7f0e;stroke:#ff7f0e;" x="593.752055" xlink:href="#mc6647654a7" y="109.410829"/>
     <use style="fill:#ff7f0e;stroke:#ff7f0e;" x="573.330137" xlink:href="#mc6647654a7" y="95.188567"/>
     <use style="fill:#ff7f0e;stroke:#ff7f0e;" x="552.908219" xlink:href="#mc6647654a7" y="102.00317"/>
     <use style="fill:#ff7f0e;stroke:#ff7f0e;" x="532.486301" xlink:href="#mc6647654a7" y="113.412572"/>
     <use style="fill:#ff7f0e;stroke:#ff7f0e;" x="512.064384" xlink:href="#mc6647654a7" y="115.915047"/>
     <use style="fill:#ff7f0e;stroke:#ff7f0e;" x="491.642466" xlink:href="#mc6647654a7" y="120.199462"/>
    </g>
   </g>
   <g id="line2d_21">
    <path clip-path="url(#p9bf5526746)" d="M 634.59589 304.919818 
L 614.173973 302.489397 
L 593.752055 306.330405 
L 573.330137 311.146908 
L 552.908219 284.448297 
L 532.486301 276.738567 
L 512.064384 275.208815 
" style="fill:none;stroke:#2ca02c;stroke-linecap:square;stroke-width:3;"/>
    <defs>
     <path d="M 0 5 
C 1.326016 5 2.597899 4.473168 3.535534 3.535534 
C 4.473168 2.597899 5 1.326016 5 0 
C 5 -1.326016 4.473168 -2.597899 3.535534 -3.535534 
C 2.597899 -4.473168 1.326016 -5 0 -5 
C -1.326016 -5 -2.597899 -4.473168 -3.535534 -3.535534 
C -4.473168 -2.597899 -5 -1.326016 -5 0 
C -5 1.326016 -4.473168 2.597899 -3.535534 3.535534 
C -2.597899 4.473168 -1.326016 5 0 5 
z
" id="m53c7c0cece" style="stroke:#2ca02c;"/>
    </defs>
    <g clip-path="url(#p9bf5526746)">
     <use style="fill:#2ca02c;stroke:#2ca02c;" x="634.59589" xlink:href="#m53c7c0cece" y="304.919818"/>
     <use style="fill:#2ca02c;stroke:#2ca02c;" x="614.173973" xlink:href="#m53c7c0cece" y="302.489397"/>
     <use style="fill:#2ca02c;stroke:#2ca02c;" x="593.752055" xlink:href="#m53c7c0cece" y="306.330405"/>
     <use style="fill:#2ca02c;stroke:#2ca02c;" x="573.330137" xlink:href="#m53c7c0cece" y="311.146908"/>
     <use style="fill:#2ca02c;stroke:#2ca02c;" x="552.908219" xlink:href="#m53c7c0cece" y="284.448297"/>
     <use style="fill:#2ca02c;stroke:#2ca02c;" x="532.486301" xlink:href="#m53c7c0cece" y="276.738567"/>
     <use style="fill:#2ca02c;stroke:#2ca02c;" x="512.064384" xlink:href="#m53c7c0cece" y="275.208815"/>
    </g>
   </g>
   <g id="line2d_22">
    <path clip-path="url(#p9bf5526746)" d="M 614.173973 199.073156 
L 593.752055 164.387686 
L 573.330137 173.366667 
L 552.908219 181.977066 
L 532.486301 190.609635 
L 512.064384 202.188086 
L 450.79863 247.53471 
L 430.376712 243.557908 
L 409.954795 248.903727 
L 389.532877 255.302636 
L 369.110959 261.089091 
L 348.689041 266.598416 
L 328.267123 271.559025 
L 307.845205 276.890988 
L 287.423288 282.874204 
L 267.00137 289.547471 
L 205.735616 298.778639 
L 103.626027 313.117295 
" style="fill:none;stroke:#d62728;stroke-linecap:square;stroke-width:3;"/>
    <defs>
     <path d="M 0 5 
C 1.326016 5 2.597899 4.473168 3.535534 3.535534 
C 4.473168 2.597899 5 1.326016 5 0 
C 5 -1.326016 4.473168 -2.597899 3.535534 -3.535534 
C 2.597899 -4.473168 1.326016 -5 0 -5 
C -1.326016 -5 -2.597899 -4.473168 -3.535534 -3.535534 
C -4.473168 -2.597899 -5 -1.326016 -5 0 
C -5 1.326016 -4.473168 2.597899 -3.535534 3.535534 
C -2.597899 4.473168 -1.326016 5 0 5 
z
" id="m4d9d5a3d3b" style="stroke:#d62728;"/>
    </defs>
    <g clip-path="url(#p9bf5526746)">
     <use style="fill:#d62728;stroke:#d62728;" x="614.173973" xlink:href="#m4d9d5a3d3b" y="199.073156"/>
     <use style="fill:#d62728;stroke:#d62728;" x="593.752055" xlink:href="#m4d9d5a3d3b" y="164.387686"/>
     <use style="fill:#d62728;stroke:#d62728;" x="573.330137" xlink:href="#m4d9d5a3d3b" y="173.366667"/>
     <use style="fill:#d62728;stroke:#d62728;" x="552.908219" xlink:href="#m4d9d5a3d3b" y="181.977066"/>
     <use style="fill:#d62728;stroke:#d62728;" x="532.486301" xlink:href="#m4d9d5a3d3b" y="190.609635"/>
     <use style="fill:#d62728;stroke:#d62728;" x="512.064384" xlink:href="#m4d9d5a3d3b" y="202.188086"/>
     <use style="fill:#d62728;stroke:#d62728;" x="450.79863" xlink:href="#m4d9d5a3d3b" y="247.53471"/>
     <use style="fill:#d62728;stroke:#d62728;" x="430.376712" xlink:href="#m4d9d5a3d3b" y="243.557908"/>
     <use style="fill:#d62728;stroke:#d62728;" x="409.954795" xlink:href="#m4d9d5a3d3b" y="248.903727"/>
     <use style="fill:#d62728;stroke:#d62728;" x="389.532877" xlink:href="#m4d9d5a3d3b" y="255.302636"/>
     <use style="fill:#d62728;stroke:#d62728;" x="369.110959" xlink:href="#m4d9d5a3d3b" y="261.089091"/>
     <use style="fill:#d62728;stroke:#d62728;" x="348.689041" xlink:href="#m4d9d5a3d3b" y="266.598416"/>
     <use style="fill:#d62728;stroke:#d62728;" x="328.267123" xlink:href="#m4d9d5a3d3b" y="271.559025"/>
     <use style="fill:#d62728;stroke:#d62728;" x="307.845205" xlink:href="#m4d9d5a3d3b" y="276.890988"/>
     <use style="fill:#d62728;stroke:#d62728;" x="287.423288" xlink:href="#m4d9d5a3d3b" y="282.874204"/>
     <use style="fill:#d62728;stroke:#d62728;" x="267.00137" xlink:href="#m4d9d5a3d3b" y="289.547471"/>
     <use style="fill:#d62728;stroke:#d62728;" x="205.735616" xlink:href="#m4d9d5a3d3b" y="298.778639"/>
     <use style="fill:#d62728;stroke:#d62728;" x="103.626027" xlink:href="#m4d9d5a3d3b" y="313.117295"/>
    </g>
   </g>
   <g id="text_13">
    <!-- Personnel per 10 000 inhabitants -->
    <defs>
     <path d="M 37.59375 70 
Q 51 70 58.59375 63.59375 
Q 66.203125 57.203125 66.203125 46 
Q 66.203125 34.796875 58.59375 28.4375 
Q 51 22.09375 37.59375 22.09375 
L 18.796875 22.09375 
L 18.796875 0 
L 11.40625 0 
L 11.40625 70 
L 37.59375 70 
z
M 37.40625 28.59375 
Q 47.796875 28.59375 53.296875 33.140625 
Q 58.796875 37.703125 58.796875 46 
Q 58.796875 54.5 53.296875 59.046875 
Q 47.796875 63.59375 37.40625 63.59375 
L 18.796875 63.59375 
L 18.796875 28.59375 
L 37.40625 28.59375 
z
" id="Montserrat-Regular-50"/>
     <path d="M 55.703125 24.09375 
L 11.703125 24.09375 
Q 12.296875 15.90625 18 10.84375 
Q 23.703125 5.796875 32.40625 5.796875 
Q 37.296875 5.796875 41.390625 7.546875 
Q 45.5 9.296875 48.5 12.703125 
L 52.5 8.09375 
Q 49 3.90625 43.75 1.703125 
Q 38.5 -0.5 32.203125 -0.5 
Q 24.09375 -0.5 17.84375 2.953125 
Q 11.59375 6.40625 8.09375 12.5 
Q 4.59375 18.59375 4.59375 26.296875 
Q 4.59375 34 7.9375 40.09375 
Q 11.296875 46.203125 17.140625 49.59375 
Q 23 53 30.296875 53 
Q 37.59375 53 43.390625 49.59375 
Q 49.203125 46.203125 52.5 40.140625 
Q 55.796875 34.09375 55.796875 26.296875 
z
M 30.296875 46.90625 
Q 22.703125 46.90625 17.546875 42.046875 
Q 12.40625 37.203125 11.703125 29.40625 
L 49 29.40625 
Q 48.296875 37.203125 43.140625 42.046875 
Q 38 46.90625 30.296875 46.90625 
z
" id="Montserrat-Regular-65"/>
     <path d="M 16.703125 42.296875 
Q 19.203125 47.59375 24.140625 50.296875 
Q 29.09375 53 36.40625 53 
L 36.40625 46.09375 
L 34.703125 46.203125 
Q 26.40625 46.203125 21.703125 41.09375 
Q 17 36 17 26.796875 
L 17 0 
L 9.90625 0 
L 9.90625 52.59375 
L 16.703125 52.59375 
L 16.703125 42.296875 
z
" id="Montserrat-Regular-72"/>
     <path d="M 24 -0.5 
Q 17.59375 -0.5 11.75 1.34375 
Q 5.90625 3.203125 2.59375 6 
L 5.796875 11.59375 
Q 9.09375 9 14.09375 7.34375 
Q 19.09375 5.703125 24.5 5.703125 
Q 31.703125 5.703125 35.140625 7.953125 
Q 38.59375 10.203125 38.59375 14.296875 
Q 38.59375 17.203125 36.6875 18.84375 
Q 34.796875 20.5 31.890625 21.34375 
Q 29 22.203125 24.203125 23 
Q 17.796875 24.203125 13.890625 25.453125 
Q 10 26.703125 7.25 29.703125 
Q 4.5 32.703125 4.5 38 
Q 4.5 44.59375 10 48.796875 
Q 15.5 53 25.296875 53 
Q 30.40625 53 35.5 51.640625 
Q 40.59375 50.296875 43.90625 48.09375 
L 40.796875 42.40625 
Q 34.296875 46.90625 25.296875 46.90625 
Q 18.5 46.90625 15.046875 44.5 
Q 11.59375 42.09375 11.59375 38.203125 
Q 11.59375 35.203125 13.546875 33.390625 
Q 15.5 31.59375 18.390625 30.75 
Q 21.296875 29.90625 26.40625 29 
Q 32.703125 27.796875 36.5 26.59375 
Q 40.296875 25.40625 43 22.5 
Q 45.703125 19.59375 45.703125 14.5 
Q 45.703125 7.59375 39.953125 3.546875 
Q 34.203125 -0.5 24 -0.5 
z
" id="Montserrat-Regular-73"/>
     <path d="M 31.40625 -0.5 
Q 23.796875 -0.5 17.6875 2.953125 
Q 11.59375 6.40625 8.09375 12.5 
Q 4.59375 18.59375 4.59375 26.296875 
Q 4.59375 34 8.09375 40.09375 
Q 11.59375 46.203125 17.6875 49.59375 
Q 23.796875 53 31.40625 53 
Q 39 53 45.09375 49.59375 
Q 51.203125 46.203125 54.640625 40.09375 
Q 58.09375 34 58.09375 26.296875 
Q 58.09375 18.59375 54.640625 12.5 
Q 51.203125 6.40625 45.09375 2.953125 
Q 39 -0.5 31.40625 -0.5 
z
M 31.40625 5.796875 
Q 37 5.796875 41.453125 8.34375 
Q 45.90625 10.90625 48.40625 15.59375 
Q 50.90625 20.296875 50.90625 26.296875 
Q 50.90625 32.296875 48.40625 37 
Q 45.90625 41.703125 41.453125 44.25 
Q 37 46.796875 31.40625 46.796875 
Q 25.796875 46.796875 21.34375 44.25 
Q 16.90625 41.703125 14.34375 37 
Q 11.796875 32.296875 11.796875 26.296875 
Q 11.796875 20.296875 14.34375 15.59375 
Q 16.90625 10.90625 21.34375 8.34375 
Q 25.796875 5.796875 31.40625 5.796875 
z
" id="Montserrat-Regular-6f"/>
     <path d="M 36.703125 53 
Q 46.59375 53 52.4375 47.25 
Q 58.296875 41.5 58.296875 30.5 
L 58.296875 0 
L 51.203125 0 
L 51.203125 29.796875 
Q 51.203125 38 47.09375 42.296875 
Q 43 46.59375 35.40625 46.59375 
Q 26.90625 46.59375 21.953125 41.546875 
Q 17 36.5 17 27.59375 
L 17 0 
L 9.90625 0 
L 9.90625 52.59375 
L 16.703125 52.59375 
L 16.703125 42.90625 
Q 19.59375 47.703125 24.75 50.34375 
Q 29.90625 53 36.703125 53 
z
" id="Montserrat-Regular-6e"/>
     <path d="M 9.90625 74.203125 
L 17 74.203125 
L 17 0 
L 9.90625 0 
z
" id="Montserrat-Regular-6c"/>
     <path id="Montserrat-Regular-20"/>
     <path d="M 37 53 
Q 44.40625 53 50.40625 49.640625 
Q 56.40625 46.296875 59.796875 40.1875 
Q 63.203125 34.09375 63.203125 26.296875 
Q 63.203125 18.40625 59.796875 12.296875 
Q 56.40625 6.203125 50.453125 2.84375 
Q 44.5 -0.5 37 -0.5 
Q 30.59375 -0.5 25.4375 2.140625 
Q 20.296875 4.796875 17 9.90625 
L 17 -19.40625 
L 9.90625 -19.40625 
L 9.90625 52.59375 
L 16.703125 52.59375 
L 16.703125 42.203125 
Q 19.90625 47.40625 25.15625 50.203125 
Q 30.40625 53 37 53 
z
M 36.5 5.796875 
Q 42 5.796875 46.5 8.34375 
Q 51 10.90625 53.546875 15.59375 
Q 56.09375 20.296875 56.09375 26.296875 
Q 56.09375 32.296875 53.546875 36.9375 
Q 51 41.59375 46.5 44.1875 
Q 42 46.796875 36.5 46.796875 
Q 30.90625 46.796875 26.453125 44.1875 
Q 22 41.59375 19.453125 36.9375 
Q 16.90625 32.296875 16.90625 26.296875 
Q 16.90625 20.296875 19.453125 15.59375 
Q 22 10.90625 26.453125 8.34375 
Q 30.90625 5.796875 36.5 5.796875 
z
" id="Montserrat-Regular-70"/>
     <path d="M 9.90625 52.59375 
L 17 52.59375 
L 17 0 
L 9.90625 0 
z
M 13.5 64.09375 
Q 11.296875 64.09375 9.796875 65.59375 
Q 8.296875 67.09375 8.296875 69.203125 
Q 8.296875 71.203125 9.796875 72.703125 
Q 11.296875 74.203125 13.5 74.203125 
Q 15.703125 74.203125 17.203125 72.75 
Q 18.703125 71.296875 18.703125 69.296875 
Q 18.703125 67.09375 17.203125 65.59375 
Q 15.703125 64.09375 13.5 64.09375 
z
" id="Montserrat-Regular-69"/>
     <path d="M 36.703125 53 
Q 46.59375 53 52.4375 47.25 
Q 58.296875 41.5 58.296875 30.5 
L 58.296875 0 
L 51.203125 0 
L 51.203125 29.796875 
Q 51.203125 38 47.09375 42.296875 
Q 43 46.59375 35.40625 46.59375 
Q 26.90625 46.59375 21.953125 41.546875 
Q 17 36.5 17 27.59375 
L 17 0 
L 9.90625 0 
L 9.90625 74.203125 
L 17 74.203125 
L 17 43.40625 
Q 19.90625 48 25 50.5 
Q 30.09375 53 36.703125 53 
z
" id="Montserrat-Regular-68"/>
     <path d="M 28.296875 53 
Q 38.59375 53 44.09375 47.84375 
Q 49.59375 42.703125 49.59375 32.59375 
L 49.59375 0 
L 42.796875 0 
L 42.796875 8.203125 
Q 40.40625 4.09375 35.75 1.796875 
Q 31.09375 -0.5 24.703125 -0.5 
Q 15.90625 -0.5 10.703125 3.703125 
Q 5.5 7.90625 5.5 14.796875 
Q 5.5 21.5 10.34375 25.59375 
Q 15.203125 29.703125 25.796875 29.703125 
L 42.5 29.703125 
L 42.5 32.90625 
Q 42.5 39.703125 38.703125 43.25 
Q 34.90625 46.796875 27.59375 46.796875 
Q 22.59375 46.796875 18 45.140625 
Q 13.40625 43.5 10.09375 40.59375 
L 6.90625 45.90625 
Q 10.90625 49.296875 16.5 51.140625 
Q 22.09375 53 28.296875 53 
z
M 25.796875 5.09375 
Q 31.796875 5.09375 36.09375 7.84375 
Q 40.40625 10.59375 42.5 15.796875 
L 42.5 24.40625 
L 26 24.40625 
Q 12.5 24.40625 12.5 15 
Q 12.5 10.40625 16 7.75 
Q 19.5 5.09375 25.796875 5.09375 
z
" id="Montserrat-Regular-61"/>
     <path d="M 37 53 
Q 44.40625 53 50.40625 49.640625 
Q 56.40625 46.296875 59.796875 40.1875 
Q 63.203125 34.09375 63.203125 26.296875 
Q 63.203125 18.5 59.796875 12.390625 
Q 56.40625 6.296875 50.40625 2.890625 
Q 44.40625 -0.5 37 -0.5 
Q 30.40625 -0.5 25.15625 2.296875 
Q 19.90625 5.09375 16.703125 10.40625 
L 16.703125 0 
L 9.90625 0 
L 9.90625 74.203125 
L 17 74.203125 
L 17 42.59375 
Q 20.296875 47.703125 25.4375 50.34375 
Q 30.59375 53 37 53 
z
M 36.5 5.796875 
Q 42 5.796875 46.5 8.34375 
Q 51 10.90625 53.546875 15.59375 
Q 56.09375 20.296875 56.09375 26.296875 
Q 56.09375 32.296875 53.546875 37 
Q 51 41.703125 46.5 44.25 
Q 42 46.796875 36.5 46.796875 
Q 30.90625 46.796875 26.453125 44.25 
Q 22 41.703125 19.453125 37 
Q 16.90625 32.296875 16.90625 26.296875 
Q 16.90625 20.296875 19.453125 15.59375 
Q 22 10.90625 26.453125 8.34375 
Q 30.90625 5.796875 36.5 5.796875 
z
" id="Montserrat-Regular-62"/>
     <path d="M 37.59375 3.203125 
Q 35.59375 1.40625 32.640625 0.453125 
Q 29.703125 -0.5 26.5 -0.5 
Q 19.09375 -0.5 15.09375 3.5 
Q 11.09375 7.5 11.09375 14.796875 
L 11.09375 46.59375 
L 1.703125 46.59375 
L 1.703125 52.59375 
L 11.09375 52.59375 
L 11.09375 64.09375 
L 18.203125 64.09375 
L 18.203125 52.59375 
L 34.203125 52.59375 
L 34.203125 46.59375 
L 18.203125 46.59375 
L 18.203125 15.203125 
Q 18.203125 10.5 20.546875 8.046875 
Q 22.90625 5.59375 27.296875 5.59375 
Q 29.5 5.59375 31.546875 6.296875 
Q 33.59375 7 35.09375 8.296875 
z
" id="Montserrat-Regular-74"/>
    </defs>
    <g style="fill:#222222;" transform="translate(210.089219 55.304)scale(0.18 -0.18)">
     <use xlink:href="#Montserrat-Regular-50"/>
     <use x="71.799988" xlink:href="#Montserrat-Regular-65"/>
     <use x="132.199982" xlink:href="#Montserrat-Regular-72"/>
     <use x="172.299973" xlink:href="#Montserrat-Regular-73"/>
     <use x="221.199966" xlink:href="#Montserrat-Regular-6f"/>
     <use x="283.899963" xlink:href="#Montserrat-Regular-6e"/>
     <use x="351.599945" xlink:href="#Montserrat-Regular-6e"/>
     <use x="419.299927" xlink:href="#Montserrat-Regular-65"/>
     <use x="479.699921" xlink:href="#Montserrat-Regular-6c"/>
     <use x="506.599915" xlink:href="#Montserrat-Regular-20"/>
     <use x="532.799911" xlink:href="#Montserrat-Regular-70"/>
     <use x="600.599899" xlink:href="#Montserrat-Regular-65"/>
     <use x="660.999893" xlink:href="#Montserrat-Regular-72"/>
     <use x="701.099884" xlink:href="#Montserrat-Regular-20"/>
     <use x="727.299881" xlink:href="#Montserrat-Regular-31"/>
     <use x="763.399872" xlink:href="#Montserrat-Regular-30"/>
     <use x="829.599869" xlink:href="#Montserrat-Regular-20"/>
     <use x="855.799866" xlink:href="#Montserrat-Regular-30"/>
     <use x="921.999863" xlink:href="#Montserrat-Regular-30"/>
     <use x="988.19986" xlink:href="#Montserrat-Regular-30"/>
     <use x="1054.399857" xlink:href="#Montserrat-Regular-20"/>
     <use x="1080.599854" xlink:href="#Montserrat-Regular-69"/>
     <use x="1107.499847" xlink:href="#Montserrat-Regular-6e"/>
     <use x="1175.199829" xlink:href="#Montserrat-Regular-68"/>
     <use x="1242.899811" xlink:href="#Montserrat-Regular-61"/>
     <use x="1301.899796" xlink:href="#Montserrat-Regular-62"/>
     <use x="1369.699783" xlink:href="#Montserrat-Regular-69"/>
     <use x="1396.599777" xlink:href="#Montserrat-Regular-74"/>
     <use x="1437.199768" xlink:href="#Montserrat-Regular-61"/>
     <use x="1496.199753" xlink:href="#Montserrat-Regular-6e"/>
     <use x="1563.899734" xlink:href="#Montserrat-Regular-74"/>
     <use x="1604.499725" xlink:href="#Montserrat-Regular-73"/>
    </g>
   </g>
   <g id="legend_1">
    <g id="patch_3">
     <path d="M 72.836 251.0698 
L 208.4489 251.0698 
Q 211.9049 251.0698 211.9049 247.6138 
L 211.9049 149.9062 
Q 211.9049 146.4502 208.4489 146.4502 
L 72.836 146.4502 
Q 69.38 146.4502 69.38 149.9062 
L 69.38 247.6138 
Q 69.38 251.0698 72.836 251.0698 
z
" style="fill:#ffffff;opacity:0.8;stroke:#cccccc;stroke-linejoin:miter;"/>
    </g>
    <g id="line2d_23">
     <path d="M 76.292 160.1365 
L 110.852 160.1365 
" style="fill:none;stroke:#1f77b4;stroke-linecap:square;stroke-width:3;"/>
    </g>
    <g id="line2d_24">
     <g>
      <use style="fill:#1f77b4;stroke:#1f77b4;" x="93.572" xlink:href="#m187b5710cb" y="160.1365"/>
     </g>
    </g>
    <g id="text_14">
     <!-- Spain -->
     <defs>
      <path d="M 30.703125 -0.59375 
Q 22.90625 -0.59375 15.75 1.90625 
Q 8.59375 4.40625 4.703125 8.5 
L 7.59375 14.203125 
Q 11.40625 10.40625 17.703125 8.046875 
Q 24 5.703125 30.703125 5.703125 
Q 40.09375 5.703125 44.796875 9.140625 
Q 49.5 12.59375 49.5 18.09375 
Q 49.5 22.296875 46.953125 24.796875 
Q 44.40625 27.296875 40.703125 28.640625 
Q 37 30 30.40625 31.59375 
Q 22.5 33.59375 17.796875 35.4375 
Q 13.09375 37.296875 9.75 41.09375 
Q 6.40625 44.90625 6.40625 51.40625 
Q 6.40625 56.703125 9.203125 61.046875 
Q 12 65.40625 17.796875 68 
Q 23.59375 70.59375 32.203125 70.59375 
Q 38.203125 70.59375 43.953125 68.9375 
Q 49.703125 67.296875 53.90625 64.40625 
L 51.40625 58.5 
Q 47 61.40625 42 62.84375 
Q 37 64.296875 32.203125 64.296875 
Q 23 64.296875 18.34375 60.75 
Q 13.703125 57.203125 13.703125 51.59375 
Q 13.703125 47.40625 16.25 44.84375 
Q 18.796875 42.296875 22.640625 40.9375 
Q 26.5 39.59375 33 38 
Q 40.703125 36.09375 45.453125 34.25 
Q 50.203125 32.40625 53.5 28.65625 
Q 56.796875 24.90625 56.796875 18.5 
Q 56.796875 13.203125 53.9375 8.84375 
Q 51.09375 4.5 45.1875 1.953125 
Q 39.296875 -0.59375 30.703125 -0.59375 
z
" id="Montserrat-Regular-53"/>
     </defs>
     <g style="fill:#222222;" transform="translate(124.676 166.1845)scale(0.1728 -0.1728)">
      <use xlink:href="#Montserrat-Regular-53"/>
      <use x="61.499985" xlink:href="#Montserrat-Regular-70"/>
      <use x="129.299973" xlink:href="#Montserrat-Regular-61"/>
      <use x="188.299957" xlink:href="#Montserrat-Regular-69"/>
      <use x="215.199951" xlink:href="#Montserrat-Regular-6e"/>
     </g>
    </g>
    <g id="line2d_25">
     <path d="M 76.292 184.9522 
L 110.852 184.9522 
" style="fill:none;stroke:#ff7f0e;stroke-linecap:square;stroke-width:3;"/>
    </g>
    <g id="line2d_26">
     <g>
      <use style="fill:#ff7f0e;stroke:#ff7f0e;" x="93.572" xlink:href="#mc6647654a7" y="184.9522"/>
     </g>
    </g>
    <g id="text_15">
     <!-- Germany -->
     <defs>
      <path d="M 60.703125 35 
L 67.796875 35 
L 67.796875 8.296875 
Q 62.90625 4 56.203125 1.703125 
Q 49.5 -0.59375 42.09375 -0.59375 
Q 31.59375 -0.59375 23.1875 4 
Q 14.796875 8.59375 10 16.75 
Q 5.203125 24.90625 5.203125 35 
Q 5.203125 45.09375 10 53.25 
Q 14.796875 61.40625 23.1875 66 
Q 31.59375 70.59375 42.203125 70.59375 
Q 50.203125 70.59375 56.890625 68.046875 
Q 63.59375 65.5 68.203125 60.5 
L 63.59375 55.796875 
Q 55.296875 64 42.5 64 
Q 34 64 27.140625 60.25 
Q 20.296875 56.5 16.390625 49.84375 
Q 12.5 43.203125 12.5 35 
Q 12.5 26.796875 16.390625 20.1875 
Q 20.296875 13.59375 27.09375 9.796875 
Q 33.90625 6 42.40625 6 
Q 53.203125 6 60.703125 11.40625 
z
" id="Montserrat-Regular-47"/>
      <path d="M 75.5 53 
Q 85.40625 53 91.046875 47.296875 
Q 96.703125 41.59375 96.703125 30.5 
L 96.703125 0 
L 89.59375 0 
L 89.59375 29.796875 
Q 89.59375 38 85.640625 42.296875 
Q 81.703125 46.59375 74.5 46.59375 
Q 66.296875 46.59375 61.59375 41.546875 
Q 56.90625 36.5 56.90625 27.59375 
L 56.90625 0 
L 49.796875 0 
L 49.796875 29.796875 
Q 49.796875 38 45.84375 42.296875 
Q 41.90625 46.59375 34.59375 46.59375 
Q 26.5 46.59375 21.75 41.546875 
Q 17 36.5 17 27.59375 
L 17 0 
L 9.90625 0 
L 9.90625 52.59375 
L 16.703125 52.59375 
L 16.703125 43 
Q 19.5 47.796875 24.5 50.390625 
Q 29.5 53 36 53 
Q 42.59375 53 47.4375 50.203125 
Q 52.296875 47.40625 54.703125 41.90625 
Q 57.59375 47.09375 63.046875 50.046875 
Q 68.5 53 75.5 53 
z
" id="Montserrat-Regular-6d"/>
      <path d="M 54.09375 52.59375 
L 27.796875 -6.296875 
Q 24.59375 -13.703125 20.390625 -16.796875 
Q 16.203125 -19.90625 10.296875 -19.90625 
Q 6.5 -19.90625 3.203125 -18.703125 
Q -0.09375 -17.5 -2.5 -15.09375 
L 0.796875 -9.796875 
Q 4.796875 -13.796875 10.40625 -13.796875 
Q 14 -13.796875 16.546875 -11.796875 
Q 19.09375 -9.796875 21.296875 -5 
L 23.59375 0.09375 
L 0.09375 52.59375 
L 7.5 52.59375 
L 27.296875 7.90625 
L 47.09375 52.59375 
z
" id="Montserrat-Regular-79"/>
     </defs>
     <g style="fill:#222222;" transform="translate(124.676 191.0002)scale(0.1728 -0.1728)">
      <use xlink:href="#Montserrat-Regular-47"/>
      <use x="77.299988" xlink:href="#Montserrat-Regular-65"/>
      <use x="137.699982" xlink:href="#Montserrat-Regular-72"/>
      <use x="177.799973" xlink:href="#Montserrat-Regular-6d"/>
      <use x="283.899963" xlink:href="#Montserrat-Regular-61"/>
      <use x="342.899948" xlink:href="#Montserrat-Regular-6e"/>
      <use x="410.59993" xlink:href="#Montserrat-Regular-79"/>
     </g>
    </g>
    <g id="line2d_27">
     <path d="M 76.292 209.8543 
L 110.852 209.8543 
" style="fill:none;stroke:#2ca02c;stroke-linecap:square;stroke-width:3;"/>
    </g>
    <g id="line2d_28">
     <g>
      <use style="fill:#2ca02c;stroke:#2ca02c;" x="93.572" xlink:href="#m53c7c0cece" y="209.8543"/>
     </g>
    </g>
    <g id="text_16">
     <!-- Italy -->
     <defs>
      <path d="M 11.40625 70 
L 18.796875 70 
L 18.796875 0 
L 11.40625 0 
z
" id="Montserrat-Regular-49"/>
     </defs>
     <g style="fill:#222222;" transform="translate(124.676 215.9023)scale(0.1728 -0.1728)">
      <use xlink:href="#Montserrat-Regular-49"/>
      <use x="30.199997" xlink:href="#Montserrat-Regular-74"/>
      <use x="70.799988" xlink:href="#Montserrat-Regular-61"/>
      <use x="129.799973" xlink:href="#Montserrat-Regular-6c"/>
      <use x="156.699966" xlink:href="#Montserrat-Regular-79"/>
     </g>
    </g>
    <g id="line2d_29">
     <path d="M 76.292 234.7564 
L 110.852 234.7564 
" style="fill:none;stroke:#d62728;stroke-linecap:square;stroke-width:3;"/>
    </g>
    <g id="line2d_30">
     <g>
      <use style="fill:#d62728;stroke:#d62728;" x="93.572" xlink:href="#m4d9d5a3d3b" y="234.7564"/>
     </g>
    </g>
    <g id="text_17">
     <!-- France -->
     <defs>
      <path d="M 18.796875 63.59375 
L 18.796875 36.09375 
L 55 36.09375 
L 55 29.703125 
L 18.796875 29.703125 
L 18.796875 0 
L 11.40625 0 
L 11.40625 70 
L 59.40625 70 
L 59.40625 63.59375 
z
" id="Montserrat-Regular-46"/>
      <path d="M 31.703125 -0.5 
Q 23.90625 -0.5 17.75 2.890625 
Q 11.59375 6.296875 8.09375 12.4375 
Q 4.59375 18.59375 4.59375 26.296875 
Q 4.59375 34 8.09375 40.09375 
Q 11.59375 46.203125 17.75 49.59375 
Q 23.90625 53 31.703125 53 
Q 38.5 53 43.84375 50.34375 
Q 49.203125 47.703125 52.296875 42.59375 
L 47 39 
Q 44.40625 42.90625 40.40625 44.84375 
Q 36.40625 46.796875 31.703125 46.796875 
Q 26 46.796875 21.453125 44.25 
Q 16.90625 41.703125 14.34375 37 
Q 11.796875 32.296875 11.796875 26.296875 
Q 11.796875 20.203125 14.34375 15.546875 
Q 16.90625 10.90625 21.453125 8.34375 
Q 26 5.796875 31.703125 5.796875 
Q 36.40625 5.796875 40.40625 7.6875 
Q 44.40625 9.59375 47 13.5 
L 52.296875 9.90625 
Q 49.203125 4.796875 43.796875 2.140625 
Q 38.40625 -0.5 31.703125 -0.5 
z
" id="Montserrat-Regular-63"/>
     </defs>
     <g style="fill:#222222;" transform="translate(124.676 240.8044)scale(0.1728 -0.1728)">
      <use xlink:href="#Montserrat-Regular-46"/>
      <use x="63.299988" xlink:href="#Montserrat-Regular-72"/>
      <use x="103.399979" xlink:href="#Montserrat-Regular-61"/>
      <use x="162.399963" xlink:href="#Montserrat-Regular-6e"/>
      <use x="230.099945" xlink:href="#Montserrat-Regular-63"/>
      <use x="286.399933" xlink:href="#Montserrat-Regular-65"/>
     </g>
    </g>
   </g>
  </g>
  <g id="text_18">
   <!-- Nurses and midwives in EU countries hit by COVID-19 -->
   <defs>
    <path d="M 72.5 70 
L 72.5 0 
L 59.203125 0 
L 24.296875 42.5 
L 24.296875 0 
L 8.296875 0 
L 8.296875 70 
L 21.703125 70 
L 56.5 27.5 
L 56.5 70 
z
" id="Montserrat-Bold-4e"/>
    <path d="M 61.40625 53.796875 
L 61.40625 0 
L 46.59375 0 
L 46.59375 6.40625 
Q 43.5 2.90625 39.203125 1.046875 
Q 34.90625 -0.796875 29.90625 -0.796875 
Q 19.296875 -0.796875 13.09375 5.296875 
Q 6.90625 11.40625 6.90625 23.40625 
L 6.90625 53.796875 
L 22.5 53.796875 
L 22.5 25.703125 
Q 22.5 12.703125 33.40625 12.703125 
Q 39 12.703125 42.390625 16.34375 
Q 45.796875 20 45.796875 27.203125 
L 45.796875 53.796875 
z
" id="Montserrat-Bold-75"/>
    <path d="M 22.09375 46.703125 
Q 24.90625 50.59375 29.65625 52.59375 
Q 34.40625 54.59375 40.59375 54.59375 
L 40.59375 40.203125 
Q 38 40.40625 37.09375 40.40625 
Q 30.40625 40.40625 26.59375 36.65625 
Q 22.796875 32.90625 22.796875 25.40625 
L 22.796875 0 
L 7.203125 0 
L 7.203125 53.796875 
L 22.09375 53.796875 
L 22.09375 46.703125 
z
" id="Montserrat-Bold-72"/>
    <path d="M 25.296875 -0.796875 
Q 18.59375 -0.796875 12.1875 0.84375 
Q 5.796875 2.5 2 5 
L 7.203125 16.203125 
Q 10.796875 13.90625 15.890625 12.453125 
Q 21 11 25.90625 11 
Q 35.796875 11 35.796875 15.90625 
Q 35.796875 18.203125 33.09375 19.203125 
Q 30.40625 20.203125 24.796875 20.90625 
Q 18.203125 21.90625 13.890625 23.203125 
Q 9.59375 24.5 6.4375 27.796875 
Q 3.296875 31.09375 3.296875 37.203125 
Q 3.296875 42.296875 6.25 46.25 
Q 9.203125 50.203125 14.84375 52.390625 
Q 20.5 54.59375 28.203125 54.59375 
Q 33.90625 54.59375 39.546875 53.34375 
Q 45.203125 52.09375 48.90625 49.90625 
L 43.703125 38.796875 
Q 36.59375 42.796875 28.203125 42.796875 
Q 23.203125 42.796875 20.703125 41.390625 
Q 18.203125 40 18.203125 37.796875 
Q 18.203125 35.296875 20.890625 34.296875 
Q 23.59375 33.296875 29.5 32.40625 
Q 36.09375 31.296875 40.296875 30.046875 
Q 44.5 28.796875 47.59375 25.5 
Q 50.703125 22.203125 50.703125 16.296875 
Q 50.703125 11.296875 47.703125 7.390625 
Q 44.703125 3.5 38.953125 1.34375 
Q 33.203125 -0.796875 25.296875 -0.796875 
z
" id="Montserrat-Bold-73"/>
    <path d="M 59.90625 26.703125 
Q 59.90625 26.40625 59.59375 22.5 
L 18.90625 22.5 
Q 20 17.5 24.09375 14.59375 
Q 28.203125 11.703125 34.296875 11.703125 
Q 38.5 11.703125 41.75 12.953125 
Q 45 14.203125 47.796875 16.90625 
L 56.09375 7.90625 
Q 48.5 -0.796875 33.90625 -0.796875 
Q 24.796875 -0.796875 17.796875 2.75 
Q 10.796875 6.296875 7 12.59375 
Q 3.203125 18.90625 3.203125 26.90625 
Q 3.203125 34.796875 6.953125 41.140625 
Q 10.703125 47.5 17.25 51.046875 
Q 23.796875 54.59375 31.90625 54.59375 
Q 39.796875 54.59375 46.1875 51.1875 
Q 52.59375 47.796875 56.25 41.4375 
Q 59.90625 35.09375 59.90625 26.703125 
z
M 32 42.796875 
Q 26.703125 42.796875 23.09375 39.796875 
Q 19.5 36.796875 18.703125 31.59375 
L 45.203125 31.59375 
Q 44.40625 36.703125 40.796875 39.75 
Q 37.203125 42.796875 32 42.796875 
z
" id="Montserrat-Bold-65"/>
    <path id="Montserrat-Bold-20"/>
    <path d="M 28.90625 54.59375 
Q 41.40625 54.59375 48.09375 48.640625 
Q 54.796875 42.703125 54.796875 30.703125 
L 54.796875 0 
L 40.203125 0 
L 40.203125 6.703125 
Q 35.796875 -0.796875 23.796875 -0.796875 
Q 17.59375 -0.796875 13.046875 1.296875 
Q 8.5 3.40625 6.09375 7.09375 
Q 3.703125 10.796875 3.703125 15.5 
Q 3.703125 23 9.34375 27.296875 
Q 15 31.59375 26.796875 31.59375 
L 39.203125 31.59375 
Q 39.203125 36.703125 36.09375 39.453125 
Q 33 42.203125 26.796875 42.203125 
Q 22.5 42.203125 18.34375 40.84375 
Q 14.203125 39.5 11.296875 37.203125 
L 5.703125 48.09375 
Q 10.09375 51.203125 16.25 52.890625 
Q 22.40625 54.59375 28.90625 54.59375 
z
M 27.703125 9.703125 
Q 31.703125 9.703125 34.796875 11.546875 
Q 37.90625 13.40625 39.203125 17 
L 39.203125 22.5 
L 28.5 22.5 
Q 18.90625 22.5 18.90625 16.203125 
Q 18.90625 13.203125 21.25 11.453125 
Q 23.59375 9.703125 27.703125 9.703125 
z
" id="Montserrat-Bold-61"/>
    <path d="M 39.90625 54.59375 
Q 49.90625 54.59375 56.046875 48.59375 
Q 62.203125 42.59375 62.203125 30.796875 
L 62.203125 0 
L 46.59375 0 
L 46.59375 28.40625 
Q 46.59375 34.796875 43.796875 37.9375 
Q 41 41.09375 35.703125 41.09375 
Q 29.796875 41.09375 26.296875 37.4375 
Q 22.796875 33.796875 22.796875 26.59375 
L 22.796875 0 
L 7.203125 0 
L 7.203125 53.796875 
L 22.09375 53.796875 
L 22.09375 47.5 
Q 25.203125 50.90625 29.796875 52.75 
Q 34.40625 54.59375 39.90625 54.59375 
z
" id="Montserrat-Bold-6e"/>
    <path d="M 62 74.203125 
L 62 0 
L 47.09375 0 
L 47.09375 6.203125 
Q 41.296875 -0.796875 30.296875 -0.796875 
Q 22.703125 -0.796875 16.546875 2.59375 
Q 10.40625 6 6.90625 12.296875 
Q 3.40625 18.59375 3.40625 26.90625 
Q 3.40625 35.203125 6.90625 41.5 
Q 10.40625 47.796875 16.546875 51.1875 
Q 22.703125 54.59375 30.296875 54.59375 
Q 40.59375 54.59375 46.40625 48.09375 
L 46.40625 74.203125 
z
M 33 12 
Q 38.90625 12 42.796875 16.046875 
Q 46.703125 20.09375 46.703125 26.90625 
Q 46.703125 33.703125 42.796875 37.75 
Q 38.90625 41.796875 33 41.796875 
Q 27 41.796875 23.09375 37.75 
Q 19.203125 33.703125 19.203125 26.90625 
Q 19.203125 20.09375 23.09375 16.046875 
Q 27 12 33 12 
z
" id="Montserrat-Bold-64"/>
    <path d="M 76.09375 54.59375 
Q 86.203125 54.59375 92.140625 48.640625 
Q 98.09375 42.703125 98.09375 30.796875 
L 98.09375 0 
L 82.5 0 
L 82.5 28.40625 
Q 82.5 34.796875 79.84375 37.9375 
Q 77.203125 41.09375 72.296875 41.09375 
Q 66.796875 41.09375 63.59375 37.546875 
Q 60.40625 34 60.40625 27 
L 60.40625 0 
L 44.796875 0 
L 44.796875 28.40625 
Q 44.796875 41.09375 34.59375 41.09375 
Q 29.203125 41.09375 26 37.546875 
Q 22.796875 34 22.796875 27 
L 22.796875 0 
L 7.203125 0 
L 7.203125 53.796875 
L 22.09375 53.796875 
L 22.09375 47.59375 
Q 25.09375 51 29.4375 52.796875 
Q 33.796875 54.59375 39 54.59375 
Q 44.703125 54.59375 49.296875 52.34375 
Q 53.90625 50.09375 56.703125 45.796875 
Q 60 50 65.046875 52.296875 
Q 70.09375 54.59375 76.09375 54.59375 
z
" id="Montserrat-Bold-6d"/>
    <path d="M 7.203125 53.796875 
L 22.796875 53.796875 
L 22.796875 0 
L 7.203125 0 
z
M 15 61.296875 
Q 10.703125 61.296875 8 63.796875 
Q 5.296875 66.296875 5.296875 70 
Q 5.296875 73.703125 8 76.203125 
Q 10.703125 78.703125 15 78.703125 
Q 19.296875 78.703125 22 76.296875 
Q 24.703125 73.90625 24.703125 70.296875 
Q 24.703125 66.40625 22 63.84375 
Q 19.296875 61.296875 15 61.296875 
z
" id="Montserrat-Bold-69"/>
    <path d="M 93.59375 53.796875 
L 74.09375 0 
L 59.09375 0 
L 47 33.40625 
L 34.5 0 
L 19.5 0 
L 0.09375 53.796875 
L 14.796875 53.796875 
L 27.5 17.40625 
L 40.703125 53.796875 
L 53.90625 53.796875 
L 66.703125 17.40625 
L 79.796875 53.796875 
z
" id="Montserrat-Bold-77"/>
    <path d="M 60.59375 53.796875 
L 37.90625 0 
L 21.796875 0 
L -0.796875 53.796875 
L 15.296875 53.796875 
L 30.203125 17.203125 
L 45.59375 53.796875 
z
" id="Montserrat-Bold-76"/>
    <path d="M 62.5 13 
L 62.5 0 
L 8.296875 0 
L 8.296875 70 
L 61.203125 70 
L 61.203125 57 
L 24.40625 57 
L 24.40625 41.796875 
L 56.90625 41.796875 
L 56.90625 29.203125 
L 24.40625 29.203125 
L 24.40625 13 
z
" id="Montserrat-Bold-45"/>
    <path d="M 39.40625 -1.203125 
Q 24.40625 -1.203125 16.046875 7.09375 
Q 7.703125 15.40625 7.703125 30.796875 
L 7.703125 70 
L 23.90625 70 
L 23.90625 31.40625 
Q 23.90625 12.59375 39.5 12.59375 
Q 47.09375 12.59375 51.09375 17.140625 
Q 55.09375 21.703125 55.09375 31.40625 
L 55.09375 70 
L 71.09375 70 
L 71.09375 30.796875 
Q 71.09375 15.40625 62.75 7.09375 
Q 54.40625 -1.203125 39.40625 -1.203125 
z
" id="Montserrat-Bold-55"/>
    <path d="M 33.203125 -0.796875 
Q 24.59375 -0.796875 17.75 2.75 
Q 10.90625 6.296875 7.046875 12.59375 
Q 3.203125 18.90625 3.203125 26.90625 
Q 3.203125 34.90625 7.046875 41.203125 
Q 10.90625 47.5 17.75 51.046875 
Q 24.59375 54.59375 33.203125 54.59375 
Q 41.703125 54.59375 48.046875 51.046875 
Q 54.40625 47.5 57.296875 40.90625 
L 45.203125 34.40625 
Q 41 41.796875 33.09375 41.796875 
Q 27 41.796875 23 37.796875 
Q 19 33.796875 19 26.90625 
Q 19 20 23 16 
Q 27 12 33.09375 12 
Q 41.09375 12 45.203125 19.40625 
L 57.296875 12.796875 
Q 54.40625 6.40625 48.046875 2.796875 
Q 41.703125 -0.796875 33.203125 -0.796875 
z
" id="Montserrat-Bold-63"/>
    <path d="M 32.796875 -0.796875 
Q 24.296875 -0.796875 17.546875 2.75 
Q 10.796875 6.296875 7 12.59375 
Q 3.203125 18.90625 3.203125 26.90625 
Q 3.203125 34.90625 7 41.203125 
Q 10.796875 47.5 17.546875 51.046875 
Q 24.296875 54.59375 32.796875 54.59375 
Q 41.296875 54.59375 48 51.046875 
Q 54.703125 47.5 58.5 41.203125 
Q 62.296875 34.90625 62.296875 26.90625 
Q 62.296875 18.90625 58.5 12.59375 
Q 54.703125 6.296875 48 2.75 
Q 41.296875 -0.796875 32.796875 -0.796875 
z
M 32.796875 12 
Q 38.796875 12 42.640625 16.046875 
Q 46.5 20.09375 46.5 26.90625 
Q 46.5 33.703125 42.640625 37.75 
Q 38.796875 41.796875 32.796875 41.796875 
Q 26.796875 41.796875 22.890625 37.75 
Q 19 33.703125 19 26.90625 
Q 19 20.09375 22.890625 16.046875 
Q 26.796875 12 32.796875 12 
z
" id="Montserrat-Bold-6f"/>
    <path d="M 41.90625 2.59375 
Q 39.59375 0.90625 36.25 0.046875 
Q 32.90625 -0.796875 29.203125 -0.796875 
Q 19.59375 -0.796875 14.34375 4.09375 
Q 9.09375 9 9.09375 18.5 
L 9.09375 40.59375 
L 0.796875 40.59375 
L 0.796875 52.59375 
L 9.09375 52.59375 
L 9.09375 65.703125 
L 24.703125 65.703125 
L 24.703125 52.59375 
L 38.09375 52.59375 
L 38.09375 40.59375 
L 24.703125 40.59375 
L 24.703125 18.703125 
Q 24.703125 15.296875 26.453125 13.4375 
Q 28.203125 11.59375 31.40625 11.59375 
Q 35.09375 11.59375 37.703125 13.59375 
z
" id="Montserrat-Bold-74"/>
    <path d="M 39.90625 54.59375 
Q 49.90625 54.59375 56.046875 48.59375 
Q 62.203125 42.59375 62.203125 30.796875 
L 62.203125 0 
L 46.59375 0 
L 46.59375 28.40625 
Q 46.59375 34.796875 43.796875 37.9375 
Q 41 41.09375 35.703125 41.09375 
Q 29.796875 41.09375 26.296875 37.4375 
Q 22.796875 33.796875 22.796875 26.59375 
L 22.796875 0 
L 7.203125 0 
L 7.203125 74.203125 
L 22.796875 74.203125 
L 22.796875 48.203125 
Q 25.90625 51.296875 30.296875 52.9375 
Q 34.703125 54.59375 39.90625 54.59375 
z
" id="Montserrat-Bold-68"/>
    <path d="M 39 54.59375 
Q 46.5 54.59375 52.640625 51.140625 
Q 58.796875 47.703125 62.296875 41.453125 
Q 65.796875 35.203125 65.796875 26.90625 
Q 65.796875 18.59375 62.296875 12.34375 
Q 58.796875 6.09375 52.640625 2.640625 
Q 46.5 -0.796875 39 -0.796875 
Q 27.90625 -0.796875 22.09375 6.203125 
L 22.09375 0 
L 7.203125 0 
L 7.203125 74.203125 
L 22.796875 74.203125 
L 22.796875 48.09375 
Q 28.703125 54.59375 39 54.59375 
z
M 36.296875 12 
Q 42.296875 12 46.140625 16.046875 
Q 50 20.09375 50 26.90625 
Q 50 33.703125 46.140625 37.75 
Q 42.296875 41.796875 36.296875 41.796875 
Q 30.296875 41.796875 26.4375 37.75 
Q 22.59375 33.703125 22.59375 26.90625 
Q 22.59375 20.09375 26.4375 16.046875 
Q 30.296875 12 36.296875 12 
z
" id="Montserrat-Bold-62"/>
    <path d="M 60.59375 53.796875 
L 36.296875 -3.296875 
Q 32.59375 -12.59375 27.140625 -16.390625 
Q 21.703125 -20.203125 14 -20.203125 
Q 9.796875 -20.203125 5.6875 -18.890625 
Q 1.59375 -17.59375 -1 -15.296875 
L 4.703125 -4.203125 
Q 6.5 -5.796875 8.84375 -6.6875 
Q 11.203125 -7.59375 13.5 -7.59375 
Q 16.703125 -7.59375 18.703125 -6.046875 
Q 20.703125 -4.5 22.296875 -0.90625 
L 22.5 -0.40625 
L -0.796875 53.796875 
L 15.296875 53.796875 
L 30.40625 17.296875 
L 45.59375 53.796875 
z
" id="Montserrat-Bold-79"/>
    <path d="M 41.796875 -1.203125 
Q 31.09375 -1.203125 22.4375 3.4375 
Q 13.796875 8.09375 8.84375 16.34375 
Q 3.90625 24.59375 3.90625 35 
Q 3.90625 45.40625 8.84375 53.65625 
Q 13.796875 61.90625 22.4375 66.546875 
Q 31.09375 71.203125 41.90625 71.203125 
Q 51 71.203125 58.34375 68 
Q 65.703125 64.796875 70.703125 58.796875 
L 60.296875 49.203125 
Q 53.203125 57.40625 42.703125 57.40625 
Q 36.203125 57.40625 31.09375 54.546875 
Q 26 51.703125 23.140625 46.59375 
Q 20.296875 41.5 20.296875 35 
Q 20.296875 28.5 23.140625 23.390625 
Q 26 18.296875 31.09375 15.4375 
Q 36.203125 12.59375 42.703125 12.59375 
Q 53.203125 12.59375 60.296875 20.90625 
L 70.703125 11.296875 
Q 65.703125 5.203125 58.296875 2 
Q 50.90625 -1.203125 41.796875 -1.203125 
z
" id="Montserrat-Bold-43"/>
    <path d="M 42.203125 -1.203125 
Q 31.296875 -1.203125 22.546875 3.5 
Q 13.796875 8.203125 8.84375 16.453125 
Q 3.90625 24.703125 3.90625 35 
Q 3.90625 45.296875 8.84375 53.546875 
Q 13.796875 61.796875 22.546875 66.5 
Q 31.296875 71.203125 42.203125 71.203125 
Q 53.09375 71.203125 61.796875 66.5 
Q 70.5 61.796875 75.5 53.546875 
Q 80.5 45.296875 80.5 35 
Q 80.5 24.703125 75.5 16.453125 
Q 70.5 8.203125 61.796875 3.5 
Q 53.09375 -1.203125 42.203125 -1.203125 
z
M 42.203125 12.59375 
Q 48.40625 12.59375 53.40625 15.4375 
Q 58.40625 18.296875 61.25 23.390625 
Q 64.09375 28.5 64.09375 35 
Q 64.09375 41.5 61.25 46.59375 
Q 58.40625 51.703125 53.40625 54.546875 
Q 48.40625 57.40625 42.203125 57.40625 
Q 36 57.40625 31 54.546875 
Q 26 51.703125 23.140625 46.59375 
Q 20.296875 41.5 20.296875 35 
Q 20.296875 28.5 23.140625 23.390625 
Q 26 18.296875 31 15.4375 
Q 36 12.59375 42.203125 12.59375 
z
" id="Montserrat-Bold-4f"/>
    <path d="M 75.59375 70 
L 45.296875 0 
L 29.296875 0 
L -0.90625 70 
L 16.59375 70 
L 37.90625 20 
L 59.5 70 
z
" id="Montserrat-Bold-56"/>
    <path d="M 8.296875 70 
L 24.5 70 
L 24.5 0 
L 8.296875 0 
z
" id="Montserrat-Bold-49"/>
    <path d="M 8.296875 70 
L 40.09375 70 
Q 51.5 70 60.25 65.640625 
Q 69 61.296875 73.84375 53.390625 
Q 78.703125 45.5 78.703125 35 
Q 78.703125 24.5 73.84375 16.59375 
Q 69 8.703125 60.25 4.34375 
Q 51.5 0 40.09375 0 
L 8.296875 0 
z
M 39.296875 13.296875 
Q 49.796875 13.296875 56.046875 19.140625 
Q 62.296875 25 62.296875 35 
Q 62.296875 45 56.046875 50.84375 
Q 49.796875 56.703125 39.296875 56.703125 
L 24.5 56.703125 
L 24.5 13.296875 
z
" id="Montserrat-Bold-44"/>
    <path d="M 5.203125 34.40625 
L 33.5 34.40625 
L 33.5 21.90625 
L 5.203125 21.90625 
z
" id="Montserrat-Bold-2d"/>
    <path d="M 30.90625 70 
L 30.90625 0 
L 14.703125 0 
L 14.703125 57 
L 0.703125 57 
L 0.703125 70 
z
" id="Montserrat-Bold-31"/>
    <path d="M 28.5 71.203125 
Q 43.203125 71.203125 51.5 62.25 
Q 59.796875 53.296875 59.796875 36.5 
Q 59.796875 24.59375 55.34375 16.09375 
Q 50.90625 7.59375 42.796875 3.1875 
Q 34.703125 -1.203125 24.09375 -1.203125 
Q 18.5 -1.203125 13.390625 0.046875 
Q 8.296875 1.296875 4.703125 3.59375 
L 10.703125 15.5 
Q 15.796875 12 23.796875 12 
Q 32.703125 12 37.890625 17.25 
Q 43.09375 22.5 43.5 32.40625 
Q 37.203125 26.09375 26.09375 26.09375 
Q 19.40625 26.09375 13.90625 28.796875 
Q 8.40625 31.5 5.203125 36.453125 
Q 2 41.40625 2 47.90625 
Q 2 54.90625 5.5 60.203125 
Q 9 65.5 15.046875 68.34375 
Q 21.09375 71.203125 28.5 71.203125 
z
M 29.703125 38.203125 
Q 35 38.203125 38.34375 41.140625 
Q 41.703125 44.09375 41.703125 48.703125 
Q 41.703125 53.296875 38.453125 56.1875 
Q 35.203125 59.09375 29.5 59.09375 
Q 24.296875 59.09375 21.046875 56.296875 
Q 17.796875 53.5 17.796875 48.703125 
Q 17.796875 43.90625 21.046875 41.046875 
Q 24.296875 38.203125 29.703125 38.203125 
z
" id="Montserrat-Bold-39"/>
   </defs>
   <g style="fill:#222222;" transform="translate(6.81 27.34155)scale(0.24 -0.24)">
    <use xlink:href="#Montserrat-Bold-4e"/>
    <use x="80.799988" xlink:href="#Montserrat-Bold-75"/>
    <use x="149.499969" xlink:href="#Montserrat-Bold-72"/>
    <use x="192.59996" xlink:href="#Montserrat-Bold-73"/>
    <use x="245.699951" xlink:href="#Montserrat-Bold-65"/>
    <use x="308.799942" xlink:href="#Montserrat-Bold-73"/>
    <use x="361.899933" xlink:href="#Montserrat-Bold-20"/>
    <use x="390.199921" xlink:href="#Montserrat-Bold-61"/>
    <use x="451.899918" xlink:href="#Montserrat-Bold-6e"/>
    <use x="520.999908" xlink:href="#Montserrat-Bold-64"/>
    <use x="590.19989" xlink:href="#Montserrat-Bold-20"/>
    <use x="618.499878" xlink:href="#Montserrat-Bold-6d"/>
    <use x="723.399872" xlink:href="#Montserrat-Bold-69"/>
    <use x="753.499863" xlink:href="#Montserrat-Bold-64"/>
    <use x="822.699844" xlink:href="#Montserrat-Bold-77"/>
    <use x="916.399826" xlink:href="#Montserrat-Bold-69"/>
    <use x="946.499817" xlink:href="#Montserrat-Bold-76"/>
    <use x="1006.299805" xlink:href="#Montserrat-Bold-65"/>
    <use x="1069.399796" xlink:href="#Montserrat-Bold-73"/>
    <use x="1122.499786" xlink:href="#Montserrat-Bold-20"/>
    <use x="1150.799774" xlink:href="#Montserrat-Bold-69"/>
    <use x="1180.899765" xlink:href="#Montserrat-Bold-6e"/>
    <use x="1249.999756" xlink:href="#Montserrat-Bold-20"/>
    <use x="1278.299744" xlink:href="#Montserrat-Bold-45"/>
    <use x="1345.399734" xlink:href="#Montserrat-Bold-55"/>
    <use x="1424.199722" xlink:href="#Montserrat-Bold-20"/>
    <use x="1452.49971" xlink:href="#Montserrat-Bold-63"/>
    <use x="1511.599701" xlink:href="#Montserrat-Bold-6f"/>
    <use x="1577.099686" xlink:href="#Montserrat-Bold-75"/>
    <use x="1645.799667" xlink:href="#Montserrat-Bold-6e"/>
    <use x="1714.899658" xlink:href="#Montserrat-Bold-74"/>
    <use x="1758.399643" xlink:href="#Montserrat-Bold-72"/>
    <use x="1801.499634" xlink:href="#Montserrat-Bold-69"/>
    <use x="1831.599625" xlink:href="#Montserrat-Bold-65"/>
    <use x="1894.699615" xlink:href="#Montserrat-Bold-73"/>
    <use x="1947.799606" xlink:href="#Montserrat-Bold-20"/>
    <use x="1976.099594" xlink:href="#Montserrat-Bold-68"/>
    <use x="2045.199585" xlink:href="#Montserrat-Bold-69"/>
    <use x="2075.299576" xlink:href="#Montserrat-Bold-74"/>
    <use x="2118.799561" xlink:href="#Montserrat-Bold-20"/>
    <use x="2147.099548" xlink:href="#Montserrat-Bold-62"/>
    <use x="2216.099533" xlink:href="#Montserrat-Bold-79"/>
    <use x="2275.899521" xlink:href="#Montserrat-Bold-20"/>
    <use x="2304.199509" xlink:href="#Montserrat-Bold-43"/>
    <use x="2377.499496" xlink:href="#Montserrat-Bold-4f"/>
    <use x="2461.89949" xlink:href="#Montserrat-Bold-56"/>
    <use x="2536.499481" xlink:href="#Montserrat-Bold-49"/>
    <use x="2569.299469" xlink:href="#Montserrat-Bold-44"/>
    <use x="2651.89946" xlink:href="#Montserrat-Bold-2d"/>
    <use x="2690.499451" xlink:href="#Montserrat-Bold-31"/>
    <use x="2729.699448" xlink:href="#Montserrat-Bold-39"/>
   </g>
  </g>
  <g id="text_19">
   <!-- Source: WHO -->
   <defs>
    <path d="M 57.296875 52.59375 
L 57.296875 0 
L 50.5 0 
L 50.5 9.59375 
Q 47.703125 4.796875 42.796875 2.140625 
Q 37.90625 -0.5 31.59375 -0.5 
Q 21.296875 -0.5 15.34375 5.25 
Q 9.40625 11 9.40625 22.09375 
L 9.40625 52.59375 
L 16.5 52.59375 
L 16.5 22.796875 
Q 16.5 14.5 20.59375 10.203125 
Q 24.703125 5.90625 32.296875 5.90625 
Q 40.59375 5.90625 45.390625 10.953125 
Q 50.203125 16 50.203125 25 
L 50.203125 52.59375 
z
" id="Montserrat-Regular-75"/>
    <path d="M 10.59375 42.5 
Q 8.40625 42.5 6.84375 44.09375 
Q 5.296875 45.703125 5.296875 48 
Q 5.296875 50.296875 6.84375 51.84375 
Q 8.40625 53.40625 10.59375 53.40625 
Q 12.796875 53.40625 14.390625 51.84375 
Q 16 50.296875 16 48 
Q 16 45.703125 14.390625 44.09375 
Q 12.796875 42.5 10.59375 42.5 
z
M 10.59375 -0.5 
Q 8.40625 -0.5 6.84375 1.09375 
Q 5.296875 2.703125 5.296875 5 
Q 5.296875 7.296875 6.84375 8.84375 
Q 8.40625 10.40625 10.59375 10.40625 
Q 12.796875 10.40625 14.390625 8.84375 
Q 16 7.296875 16 5 
Q 16 2.703125 14.390625 1.09375 
Q 12.796875 -0.5 10.59375 -0.5 
z
" id="Montserrat-Regular-3a"/>
    <path d="M 107.5 70 
L 83.90625 0 
L 76.09375 0 
L 55.59375 59.703125 
L 35 0 
L 27.296875 0 
L 3.703125 70 
L 11.296875 70 
L 31.5 9.796875 
L 52.40625 70 
L 59.296875 70 
L 79.90625 9.5 
L 100.40625 70 
z
" id="Montserrat-Regular-57"/>
    <path d="M 69.90625 70 
L 69.90625 0 
L 62.59375 0 
L 62.59375 32.296875 
L 18.796875 32.296875 
L 18.796875 0 
L 11.40625 0 
L 11.40625 70 
L 18.796875 70 
L 18.796875 38.796875 
L 62.59375 38.796875 
L 62.59375 70 
z
" id="Montserrat-Regular-48"/>
    <path d="M 42 -0.59375 
Q 31.59375 -0.59375 23.140625 4.046875 
Q 14.703125 8.703125 9.953125 16.796875 
Q 5.203125 24.90625 5.203125 35 
Q 5.203125 45.09375 9.953125 53.1875 
Q 14.703125 61.296875 23.140625 65.9375 
Q 31.59375 70.59375 42 70.59375 
Q 52.40625 70.59375 60.75 66 
Q 69.09375 61.40625 73.890625 53.25 
Q 78.703125 45.09375 78.703125 35 
Q 78.703125 24.90625 73.890625 16.75 
Q 69.09375 8.59375 60.75 4 
Q 52.40625 -0.59375 42 -0.59375 
z
M 42 6 
Q 50.296875 6 57 9.75 
Q 63.703125 13.5 67.5 20.140625 
Q 71.296875 26.796875 71.296875 35 
Q 71.296875 43.203125 67.5 49.84375 
Q 63.703125 56.5 57 60.25 
Q 50.296875 64 42 64 
Q 33.703125 64 26.953125 60.25 
Q 20.203125 56.5 16.34375 49.84375 
Q 12.5 43.203125 12.5 35 
Q 12.5 26.796875 16.34375 20.140625 
Q 20.203125 13.5 26.953125 9.75 
Q 33.703125 6 42 6 
z
" id="Montserrat-Regular-4f"/>
   </defs>
   <g style="fill:#222222;" transform="translate(596.52 418.4136)scale(0.12 -0.12)">
    <use xlink:href="#Montserrat-Regular-53"/>
    <use x="61.499985" xlink:href="#Montserrat-Regular-6f"/>
    <use x="124.199982" xlink:href="#Montserrat-Regular-75"/>
    <use x="191.499969" xlink:href="#Montserrat-Regular-72"/>
    <use x="231.59996" xlink:href="#Montserrat-Regular-63"/>
    <use x="287.899948" xlink:href="#Montserrat-Regular-65"/>
    <use x="348.299942" xlink:href="#Montserrat-Regular-3a"/>
    <use x="369.499939" xlink:href="#Montserrat-Regular-20"/>
    <use x="395.699936" xlink:href="#Montserrat-Regular-57"/>
    <use x="506.799927" xlink:href="#Montserrat-Regular-48"/>
    <use x="588.099915" xlink:href="#Montserrat-Regular-4f"/>
   </g>
  </g>
 </g>
 <defs>
  <clipPath id="p9bf5526746">
   <rect height="343.64" width="596.32" x="60.74" y="26.94"/>
  </clipPath>
 </defs>
</svg>
