<?xml version="1.0" encoding="utf-8" standalone="no"?>
<!DOCTYPE svg PUBLIC "-//W3C//DTD SVG 1.1//EN"
  "http://www.w3.org/Graphics/SVG/1.1/DTD/svg11.dtd">
<!-- Created with matplotlib (http://matplotlib.org/) -->
<svg height="422.64pt" version="1.1" viewBox="0 0 684 422.64" width="684pt" xmlns="http://www.w3.org/2000/svg" xmlns:xlink="http://www.w3.org/1999/xlink">
 <defs>
  <style type="text/css">
*{stroke-linecap:butt;stroke-linejoin:round;}
  </style>
 </defs>
 <g id="figure_1">
  <g id="patch_1">
   <path d="M 0 422.64 
L 684 422.64 
L 684 0 
L 0 0 
z
" style="fill:#ffffff;"/>
  </g>
  <g id="axes_1">
   <g id="patch_2">
    <path d="M 72.62 370.58 
L 657.06 370.58 
L 657.06 26.94 
L 72.62 26.94 
z
" style="fill:#ffffff;"/>
   </g>
   <g id="matplotlib.axis_1">
    <g id="xtick_1">
     <g id="line2d_1"/>
     <g id="text_1">
      <!-- 1970 -->
      <defs>
       <path d="M 24.59375 70 
L 24.59375 0 
L 17.40625 0 
L 17.40625 63.59375 
L 0.90625 63.59375 
L 0.90625 70 
z
" id="Montserrat-Regular-31"/>
       <path d="M 27 70.59375 
Q 40.90625 70.59375 48.296875 61.4375 
Q 55.703125 52.296875 55.703125 35.59375 
Q 55.703125 23.90625 51.703125 15.796875 
Q 47.703125 7.703125 40.5 3.546875 
Q 33.296875 -0.59375 23.703125 -0.59375 
Q 13.296875 -0.59375 7.09375 3.203125 
L 10 9 
Q 15 5.703125 23.59375 5.703125 
Q 35.203125 5.703125 41.796875 13.046875 
Q 48.40625 20.40625 48.40625 34.40625 
Q 48.40625 37 48.09375 40.09375 
Q 45.5 34.40625 39.796875 31.25 
Q 34.09375 28.09375 26.703125 28.09375 
Q 19.796875 28.09375 14.4375 30.6875 
Q 9.09375 33.296875 6.09375 38.046875 
Q 3.09375 42.796875 3.09375 49.09375 
Q 3.09375 55.5 6.1875 60.390625 
Q 9.296875 65.296875 14.75 67.9375 
Q 20.203125 70.59375 27 70.59375 
z
M 27.796875 34.203125 
Q 33.09375 34.203125 37.140625 36.203125 
Q 41.203125 38.203125 43.5 41.703125 
Q 45.796875 45.203125 45.796875 49.5 
Q 45.796875 53.5 43.640625 56.890625 
Q 41.5 60.296875 37.296875 62.390625 
Q 33.09375 64.5 27.296875 64.5 
Q 19.703125 64.5 14.953125 60.34375 
Q 10.203125 56.203125 10.203125 49.296875 
Q 10.203125 42.40625 14.953125 38.296875 
Q 19.703125 34.203125 27.796875 34.203125 
z
" id="Montserrat-Regular-39"/>
       <path d="M 54.59375 70 
L 54.59375 64.90625 
L 25.296875 0 
L 17.5 0 
L 46.296875 63.59375 
L 10.296875 63.59375 
L 10.296875 50.5 
L 3.203125 50.5 
L 3.203125 70 
z
" id="Montserrat-Regular-37"/>
       <path d="M 33.09375 -0.59375 
Q 25 -0.59375 18.640625 3.703125 
Q 12.296875 8 8.75 16.046875 
Q 5.203125 24.09375 5.203125 35 
Q 5.203125 45.90625 8.75 53.953125 
Q 12.296875 62 18.640625 66.296875 
Q 25 70.59375 33.09375 70.59375 
Q 41.203125 70.59375 47.546875 66.296875 
Q 53.90625 62 57.5 53.953125 
Q 61.09375 45.90625 61.09375 35 
Q 61.09375 24.09375 57.5 16.046875 
Q 53.90625 8 47.546875 3.703125 
Q 41.203125 -0.59375 33.09375 -0.59375 
z
M 33.09375 6 
Q 39.203125 6 43.84375 9.390625 
Q 48.5 12.796875 51.09375 19.296875 
Q 53.703125 25.796875 53.703125 35 
Q 53.703125 44.203125 51.09375 50.703125 
Q 48.5 57.203125 43.84375 60.59375 
Q 39.203125 64 33.09375 64 
Q 27 64 22.34375 60.59375 
Q 17.703125 57.203125 15.09375 50.703125 
Q 12.5 44.203125 12.5 35 
Q 12.5 25.796875 15.09375 19.296875 
Q 17.703125 12.796875 22.34375 9.390625 
Q 27 6 33.09375 6 
z
" id="Montserrat-Regular-30"/>
      </defs>
      <g style="fill:#222222;" transform="translate(53.842687 393.936562)scale(0.18 -0.18)">
       <use xlink:href="#Montserrat-Regular-31"/>
       <use x="36.099991" xlink:href="#Montserrat-Regular-39"/>
       <use x="96.999985" xlink:href="#Montserrat-Regular-37"/>
       <use x="155.899979" xlink:href="#Montserrat-Regular-30"/>
      </g>
     </g>
    </g>
    <g id="xtick_2">
     <g id="line2d_2"/>
     <g id="text_2">
      <!-- 1980 -->
      <defs>
       <path d="M 45.296875 36.703125 
Q 51.90625 34.5 55.453125 30.09375 
Q 59 25.703125 59 19.5 
Q 59 13.40625 55.703125 8.84375 
Q 52.40625 4.296875 46.25 1.84375 
Q 40.09375 -0.59375 31.796875 -0.59375 
Q 19.203125 -0.59375 12 4.796875 
Q 4.796875 10.203125 4.796875 19.5 
Q 4.796875 25.796875 8.25 30.140625 
Q 11.703125 34.5 18.296875 36.703125 
Q 12.90625 38.796875 10.09375 42.75 
Q 7.296875 46.703125 7.296875 52.09375 
Q 7.296875 60.59375 13.9375 65.59375 
Q 20.59375 70.59375 31.796875 70.59375 
Q 39.203125 70.59375 44.75 68.34375 
Q 50.296875 66.09375 53.390625 61.890625 
Q 56.5 57.703125 56.5 52.09375 
Q 56.5 46.703125 53.59375 42.75 
Q 50.703125 38.796875 45.296875 36.703125 
z
M 14.5 51.90625 
Q 14.5 46.09375 19.09375 42.6875 
Q 23.703125 39.296875 31.796875 39.296875 
Q 39.90625 39.296875 44.546875 42.6875 
Q 49.203125 46.09375 49.203125 51.796875 
Q 49.203125 57.703125 44.453125 61.09375 
Q 39.703125 64.5 31.796875 64.5 
Q 23.796875 64.5 19.140625 61.09375 
Q 14.5 57.703125 14.5 51.90625 
z
M 31.796875 5.5 
Q 41.09375 5.5 46.34375 9.296875 
Q 51.59375 13.09375 51.59375 19.59375 
Q 51.59375 26.09375 46.34375 29.84375 
Q 41.09375 33.59375 31.796875 33.59375 
Q 22.59375 33.59375 17.34375 29.84375 
Q 12.09375 26.09375 12.09375 19.59375 
Q 12.09375 13 17.296875 9.25 
Q 22.5 5.5 31.796875 5.5 
z
" id="Montserrat-Regular-38"/>
      </defs>
      <g style="fill:#222222;" transform="translate(174.655643 393.936562)scale(0.18 -0.18)">
       <use xlink:href="#Montserrat-Regular-31"/>
       <use x="36.099991" xlink:href="#Montserrat-Regular-39"/>
       <use x="96.999985" xlink:href="#Montserrat-Regular-38"/>
       <use x="160.799973" xlink:href="#Montserrat-Regular-30"/>
      </g>
     </g>
    </g>
    <g id="xtick_3">
     <g id="line2d_3"/>
     <g id="text_3">
      <!-- 1990 -->
      <g style="fill:#222222;" transform="translate(296.168911 393.936562)scale(0.18 -0.18)">
       <use xlink:href="#Montserrat-Regular-31"/>
       <use x="36.099991" xlink:href="#Montserrat-Regular-39"/>
       <use x="96.999985" xlink:href="#Montserrat-Regular-39"/>
       <use x="157.899979" xlink:href="#Montserrat-Regular-30"/>
      </g>
     </g>
    </g>
    <g id="xtick_4">
     <g id="line2d_4"/>
     <g id="text_4">
      <!-- 2000 -->
      <defs>
       <path d="M 53 6.40625 
L 53 0 
L 3.90625 0 
L 3.90625 5.09375 
L 33 33.59375 
Q 38.5 39 40.453125 42.953125 
Q 42.40625 46.90625 42.40625 50.90625 
Q 42.40625 57.09375 38.15625 60.546875 
Q 33.90625 64 26 64 
Q 13.703125 64 6.90625 56.203125 
L 1.796875 60.59375 
Q 5.90625 65.40625 12.25 68 
Q 18.59375 70.59375 26.59375 70.59375 
Q 37.296875 70.59375 43.546875 65.546875 
Q 49.796875 60.5 49.796875 51.703125 
Q 49.796875 46.296875 47.390625 41.296875 
Q 45 36.296875 38.296875 29.796875 
L 14.5 6.40625 
z
" id="Montserrat-Regular-32"/>
      </defs>
      <g style="fill:#222222;" transform="translate(414.605305 393.936562)scale(0.18 -0.18)">
       <use xlink:href="#Montserrat-Regular-32"/>
       <use x="56.799988" xlink:href="#Montserrat-Regular-30"/>
       <use x="122.999985" xlink:href="#Montserrat-Regular-30"/>
       <use x="189.199982" xlink:href="#Montserrat-Regular-30"/>
      </g>
     </g>
    </g>
    <g id="xtick_5">
     <g id="line2d_5"/>
     <g id="text_5">
      <!-- 2010 -->
      <g style="fill:#222222;" transform="translate(538.568261 393.936562)scale(0.18 -0.18)">
       <use xlink:href="#Montserrat-Regular-32"/>
       <use x="56.799988" xlink:href="#Montserrat-Regular-30"/>
       <use x="122.999985" xlink:href="#Montserrat-Regular-31"/>
       <use x="159.099976" xlink:href="#Montserrat-Regular-30"/>
      </g>
     </g>
    </g>
   </g>
   <g id="matplotlib.axis_2">
    <g id="ytick_1">
     <g id="line2d_6">
      <path clip-path="url(#p5f7c56ac85)" d="M 72.62 368.980953 
L 657.06 368.980953 
" style="fill:none;stroke:#cbcbcb;stroke-linecap:square;stroke-width:0.8;"/>
     </g>
     <g id="line2d_7"/>
     <g id="text_6">
      <!-- 200 -->
      <g style="fill:#222222;" transform="translate(33.563438 375.659234)scale(0.18 -0.18)">
       <use xlink:href="#Montserrat-Regular-32"/>
       <use x="56.799988" xlink:href="#Montserrat-Regular-30"/>
       <use x="122.999985" xlink:href="#Montserrat-Regular-30"/>
      </g>
     </g>
    </g>
    <g id="ytick_2">
     <g id="line2d_8">
      <path clip-path="url(#p5f7c56ac85)" d="M 72.62 330.249039 
L 657.06 330.249039 
" style="fill:none;stroke:#cbcbcb;stroke-linecap:square;stroke-width:0.8;"/>
     </g>
     <g id="line2d_9"/>
     <g id="text_7">
      <!-- 300 -->
      <defs>
       <path d="M 29 40 
Q 40 39.40625 45.75 34.046875 
Q 51.5 28.703125 51.5 20.09375 
Q 51.5 14.09375 48.59375 9.4375 
Q 45.703125 4.796875 40 2.09375 
Q 34.296875 -0.59375 26.09375 -0.59375 
Q 18.5 -0.59375 11.75 1.84375 
Q 5 4.296875 0.90625 8.40625 
L 4.40625 14.09375 
Q 7.90625 10.5 13.703125 8.25 
Q 19.5 6 26.09375 6 
Q 34.703125 6 39.390625 9.75 
Q 44.09375 13.5 44.09375 20.09375 
Q 44.09375 26.59375 39.390625 30.296875 
Q 34.703125 34 25.203125 34 
L 20.203125 34 
L 20.203125 39.296875 
L 39.59375 63.59375 
L 3.796875 63.59375 
L 3.796875 70 
L 48.796875 70 
L 48.796875 64.90625 
L 29 40 
z
" id="Montserrat-Regular-33"/>
      </defs>
      <g style="fill:#222222;" transform="translate(33.63375 336.92732)scale(0.18 -0.18)">
       <use xlink:href="#Montserrat-Regular-33"/>
       <use x="56.399994" xlink:href="#Montserrat-Regular-30"/>
       <use x="122.599991" xlink:href="#Montserrat-Regular-30"/>
      </g>
     </g>
    </g>
    <g id="ytick_3">
     <g id="line2d_10">
      <path clip-path="url(#p5f7c56ac85)" d="M 72.62 291.517125 
L 657.06 291.517125 
" style="fill:none;stroke:#cbcbcb;stroke-linecap:square;stroke-width:0.8;"/>
     </g>
     <g id="line2d_11"/>
     <g id="text_8">
      <!-- 400 -->
      <defs>
       <path d="M 64.703125 18.40625 
L 50.703125 18.40625 
L 50.703125 0 
L 43.5 0 
L 43.5 18.40625 
L 4 18.40625 
L 4 23.59375 
L 41.09375 70 
L 49.09375 70 
L 13.296875 24.796875 
L 43.703125 24.796875 
L 43.703125 41 
L 50.703125 41 
L 50.703125 24.796875 
L 64.703125 24.796875 
z
" id="Montserrat-Regular-34"/>
      </defs>
      <g style="fill:#222222;" transform="translate(31.89 298.195406)scale(0.18 -0.18)">
       <use xlink:href="#Montserrat-Regular-34"/>
       <use x="66.099991" xlink:href="#Montserrat-Regular-30"/>
       <use x="132.299988" xlink:href="#Montserrat-Regular-30"/>
      </g>
     </g>
    </g>
    <g id="ytick_4">
     <g id="line2d_12">
      <path clip-path="url(#p5f7c56ac85)" d="M 72.62 252.78521 
L 657.06 252.78521 
" style="fill:none;stroke:#cbcbcb;stroke-linecap:square;stroke-width:0.8;"/>
     </g>
     <g id="line2d_13"/>
     <g id="text_9">
      <!-- 500 -->
      <defs>
       <path d="M 23.59375 41.296875 
Q 38.796875 41.296875 45.75 35.84375 
Q 52.703125 30.40625 52.703125 20.59375 
Q 52.703125 14.5 49.84375 9.703125 
Q 47 4.90625 41.296875 2.15625 
Q 35.59375 -0.59375 27.296875 -0.59375 
Q 19.796875 -0.59375 13.046875 1.84375 
Q 6.296875 4.296875 2.203125 8.40625 
L 5.703125 14.09375 
Q 9.203125 10.5 14.890625 8.25 
Q 20.59375 6 27.203125 6 
Q 35.90625 6 40.65625 9.890625 
Q 45.40625 13.796875 45.40625 20.296875 
Q 45.40625 27.5 40.046875 31.203125 
Q 34.703125 34.90625 22 34.90625 
L 7.09375 34.90625 
L 10.703125 70 
L 49 70 
L 49 63.59375 
L 17 63.59375 
L 14.59375 41.296875 
L 23.59375 41.296875 
z
" id="Montserrat-Regular-35"/>
      </defs>
      <g style="fill:#222222;" transform="translate(33.6 259.463492)scale(0.18 -0.18)">
       <use xlink:href="#Montserrat-Regular-35"/>
       <use x="56.599991" xlink:href="#Montserrat-Regular-30"/>
       <use x="122.799988" xlink:href="#Montserrat-Regular-30"/>
      </g>
     </g>
    </g>
    <g id="ytick_5">
     <g id="line2d_14">
      <path clip-path="url(#p5f7c56ac85)" d="M 72.62 214.053296 
L 657.06 214.053296 
" style="fill:none;stroke:#cbcbcb;stroke-linecap:square;stroke-width:0.8;"/>
     </g>
     <g id="line2d_15"/>
     <g id="text_10">
      <!-- 600 -->
      <defs>
       <path d="M 34.203125 41.90625 
Q 41.09375 41.90625 46.4375 39.296875 
Q 51.796875 36.703125 54.796875 31.953125 
Q 57.796875 27.203125 57.796875 20.90625 
Q 57.796875 14.5 54.6875 9.59375 
Q 51.59375 4.703125 46.140625 2.046875 
Q 40.703125 -0.59375 33.90625 -0.59375 
Q 20 -0.59375 12.59375 8.546875 
Q 5.203125 17.703125 5.203125 34.40625 
Q 5.203125 46.09375 9.203125 54.1875 
Q 13.203125 62.296875 20.390625 66.4375 
Q 27.59375 70.59375 37.203125 70.59375 
Q 47.59375 70.59375 53.796875 66.796875 
L 50.90625 61 
Q 45.90625 64.296875 37.296875 64.296875 
Q 25.703125 64.296875 19.09375 56.9375 
Q 12.5 49.59375 12.5 35.59375 
Q 12.5 33.09375 12.796875 29.90625 
Q 15.40625 35.59375 21.09375 38.75 
Q 26.796875 41.90625 34.203125 41.90625 
z
M 33.59375 5.5 
Q 41.203125 5.5 45.953125 9.640625 
Q 50.703125 13.796875 50.703125 20.703125 
Q 50.703125 27.59375 45.953125 31.6875 
Q 41.203125 35.796875 33.09375 35.796875 
Q 27.796875 35.796875 23.75 33.796875 
Q 19.703125 31.796875 17.390625 28.296875 
Q 15.09375 24.796875 15.09375 20.5 
Q 15.09375 16.5 17.25 13.09375 
Q 19.40625 9.703125 23.59375 7.59375 
Q 27.796875 5.5 33.59375 5.5 
z
" id="Montserrat-Regular-36"/>
      </defs>
      <g style="fill:#222222;" transform="translate(32.82375 220.731578)scale(0.18 -0.18)">
       <use xlink:href="#Montserrat-Regular-36"/>
       <use x="60.899994" xlink:href="#Montserrat-Regular-30"/>
       <use x="127.099991" xlink:href="#Montserrat-Regular-30"/>
      </g>
     </g>
    </g>
    <g id="ytick_6">
     <g id="line2d_16">
      <path clip-path="url(#p5f7c56ac85)" d="M 72.62 175.321382 
L 657.06 175.321382 
" style="fill:none;stroke:#cbcbcb;stroke-linecap:square;stroke-width:0.8;"/>
     </g>
     <g id="line2d_17"/>
     <g id="text_11">
      <!-- 700 -->
      <g style="fill:#222222;" transform="translate(33.18375 181.999663)scale(0.18 -0.18)">
       <use xlink:href="#Montserrat-Regular-37"/>
       <use x="58.899994" xlink:href="#Montserrat-Regular-30"/>
       <use x="125.099991" xlink:href="#Montserrat-Regular-30"/>
      </g>
     </g>
    </g>
    <g id="ytick_7">
     <g id="line2d_18">
      <path clip-path="url(#p5f7c56ac85)" d="M 72.62 136.589468 
L 657.06 136.589468 
" style="fill:none;stroke:#cbcbcb;stroke-linecap:square;stroke-width:0.8;"/>
     </g>
     <g id="line2d_19"/>
     <g id="text_12">
      <!-- 800 -->
      <g style="fill:#222222;" transform="translate(32.303438 143.267749)scale(0.18 -0.18)">
       <use xlink:href="#Montserrat-Regular-38"/>
       <use x="63.799988" xlink:href="#Montserrat-Regular-30"/>
       <use x="129.999985" xlink:href="#Montserrat-Regular-30"/>
      </g>
     </g>
    </g>
    <g id="ytick_8">
     <g id="line2d_20">
      <path clip-path="url(#p5f7c56ac85)" d="M 72.62 97.857554 
L 657.06 97.857554 
" style="fill:none;stroke:#cbcbcb;stroke-linecap:square;stroke-width:0.8;"/>
     </g>
     <g id="line2d_21"/>
     <g id="text_13">
      <!-- 900 -->
      <g style="fill:#222222;" transform="translate(32.82375 104.535835)scale(0.18 -0.18)">
       <use xlink:href="#Montserrat-Regular-39"/>
       <use x="60.899994" xlink:href="#Montserrat-Regular-30"/>
       <use x="127.099991" xlink:href="#Montserrat-Regular-30"/>
      </g>
     </g>
    </g>
    <g id="ytick_9">
     <g id="line2d_22">
      <path clip-path="url(#p5f7c56ac85)" d="M 72.62 59.12564 
L 657.06 59.12564 
" style="fill:none;stroke:#cbcbcb;stroke-linecap:square;stroke-width:0.8;"/>
     </g>
     <g id="line2d_23"/>
     <g id="text_14">
      <!-- 1000 -->
      <g style="fill:#222222;" transform="translate(25.373438 65.803921)scale(0.18 -0.18)">
       <use xlink:href="#Montserrat-Regular-31"/>
       <use x="36.099991" xlink:href="#Montserrat-Regular-30"/>
       <use x="102.299988" xlink:href="#Montserrat-Regular-30"/>
       <use x="168.499985" xlink:href="#Montserrat-Regular-30"/>
      </g>
     </g>
    </g>
   </g>
   <g id="line2d_24">
    <path clip-path="url(#p5f7c56ac85)" d="M 401.215934 273.340237 
L 413.341245 279.6303 
L 425.466556 284.758406 
L 437.591867 289.115746 
L 449.717178 293.341398 
L 461.84249 295.239262 
L 473.967801 298.945906 
L 486.093112 301.610661 
L 498.218423 303.713804 
L 510.343734 306.088071 
L 522.469046 307.683826 
L 534.594357 310.247878 
L 546.719668 311.130966 
L 558.844979 312.366514 
L 570.97029 313.633048 
L 583.095602 315.027397 
L 595.220913 317.126666 
L 607.346224 319.930857 
L 619.471535 322.181181 
L 631.596846 324.536081 
L 643.722158 326.759293 
" style="fill:none;stroke:#1f77b4;stroke-linecap:square;stroke-width:3;"/>
    <defs>
     <path d="M 0 5 
C 1.326016 5 2.597899 4.473168 3.535534 3.535534 
C 4.473168 2.597899 5 1.326016 5 0 
C 5 -1.326016 4.473168 -2.597899 3.535534 -3.535534 
C 2.597899 -4.473168 1.326016 -5 0 -5 
C -1.326016 -5 -2.597899 -4.473168 -3.535534 -3.535534 
C -4.473168 -2.597899 -5 -1.326016 -5 0 
C -5 1.326016 -4.473168 2.597899 -3.535534 3.535534 
C -2.597899 4.473168 -1.326016 5 0 5 
z
" id="m5a399a92bf" style="stroke:#1f77b4;"/>
    </defs>
    <g clip-path="url(#p5f7c56ac85)">
     <use style="fill:#1f77b4;stroke:#1f77b4;" x="401.215934" xlink:href="#m5a399a92bf" y="273.340237"/>
     <use style="fill:#1f77b4;stroke:#1f77b4;" x="413.341245" xlink:href="#m5a399a92bf" y="279.6303"/>
     <use style="fill:#1f77b4;stroke:#1f77b4;" x="425.466556" xlink:href="#m5a399a92bf" y="284.758406"/>
     <use style="fill:#1f77b4;stroke:#1f77b4;" x="437.591867" xlink:href="#m5a399a92bf" y="289.115746"/>
     <use style="fill:#1f77b4;stroke:#1f77b4;" x="449.717178" xlink:href="#m5a399a92bf" y="293.341398"/>
     <use style="fill:#1f77b4;stroke:#1f77b4;" x="461.84249" xlink:href="#m5a399a92bf" y="295.239262"/>
     <use style="fill:#1f77b4;stroke:#1f77b4;" x="473.967801" xlink:href="#m5a399a92bf" y="298.945906"/>
     <use style="fill:#1f77b4;stroke:#1f77b4;" x="486.093112" xlink:href="#m5a399a92bf" y="301.610661"/>
     <use style="fill:#1f77b4;stroke:#1f77b4;" x="498.218423" xlink:href="#m5a399a92bf" y="303.713804"/>
     <use style="fill:#1f77b4;stroke:#1f77b4;" x="510.343734" xlink:href="#m5a399a92bf" y="306.088071"/>
     <use style="fill:#1f77b4;stroke:#1f77b4;" x="522.469046" xlink:href="#m5a399a92bf" y="307.683826"/>
     <use style="fill:#1f77b4;stroke:#1f77b4;" x="534.594357" xlink:href="#m5a399a92bf" y="310.247878"/>
     <use style="fill:#1f77b4;stroke:#1f77b4;" x="546.719668" xlink:href="#m5a399a92bf" y="311.130966"/>
     <use style="fill:#1f77b4;stroke:#1f77b4;" x="558.844979" xlink:href="#m5a399a92bf" y="312.366514"/>
     <use style="fill:#1f77b4;stroke:#1f77b4;" x="570.97029" xlink:href="#m5a399a92bf" y="313.633048"/>
     <use style="fill:#1f77b4;stroke:#1f77b4;" x="583.095602" xlink:href="#m5a399a92bf" y="315.027397"/>
     <use style="fill:#1f77b4;stroke:#1f77b4;" x="595.220913" xlink:href="#m5a399a92bf" y="317.126666"/>
     <use style="fill:#1f77b4;stroke:#1f77b4;" x="607.346224" xlink:href="#m5a399a92bf" y="319.930857"/>
     <use style="fill:#1f77b4;stroke:#1f77b4;" x="619.471535" xlink:href="#m5a399a92bf" y="322.181181"/>
     <use style="fill:#1f77b4;stroke:#1f77b4;" x="631.596846" xlink:href="#m5a399a92bf" y="324.536081"/>
     <use style="fill:#1f77b4;stroke:#1f77b4;" x="643.722158" xlink:href="#m5a399a92bf" y="326.759293"/>
    </g>
   </g>
   <g id="line2d_25">
    <path clip-path="url(#p5f7c56ac85)" d="M 255.712199 310.402806 
L 267.83751 313.261221 
L 279.962822 312.424612 
L 292.088133 313.288334 
L 304.213444 314.992538 
L 316.338755 316.994978 
L 328.464066 320.12839 
L 340.589378 323.92799 
L 352.714689 326.267398 
L 364.84 327.21633 
L 376.965311 330.353615 
L 389.090622 328.382161 
L 401.215934 330.427206 
L 413.341245 331.647261 
L 425.466556 332.603939 
L 437.591867 334.381734 
L 449.717178 336.422906 
L 461.84249 338.828158 
L 473.967801 341.903472 
L 486.093112 342.825291 
L 498.218423 343.700633 
L 510.343734 345.393217 
L 522.469046 345.834761 
L 534.594357 347.322067 
L 546.719668 348.569234 
L 558.844979 350.099145 
L 570.97029 352.450172 
L 583.095602 354.336416 
L 595.220913 354.96 
L 607.346224 354.545569 
L 619.471535 353.178332 
L 631.596846 353.739945 
L 643.722158 352.477284 
" style="fill:none;stroke:#ff7f0e;stroke-linecap:square;stroke-width:3;"/>
    <defs>
     <path d="M 0 5 
C 1.326016 5 2.597899 4.473168 3.535534 3.535534 
C 4.473168 2.597899 5 1.326016 5 0 
C 5 -1.326016 4.473168 -2.597899 3.535534 -3.535534 
C 2.597899 -4.473168 1.326016 -5 0 -5 
C -1.326016 -5 -2.597899 -4.473168 -3.535534 -3.535534 
C -4.473168 -2.597899 -5 -1.326016 -5 0 
C -5 1.326016 -4.473168 2.597899 -3.535534 3.535534 
C -2.597899 4.473168 -1.326016 5 0 5 
z
" id="m62ceb579a0" style="stroke:#ff7f0e;"/>
    </defs>
    <g clip-path="url(#p5f7c56ac85)">
     <use style="fill:#ff7f0e;stroke:#ff7f0e;" x="255.712199" xlink:href="#m62ceb579a0" y="310.402806"/>
     <use style="fill:#ff7f0e;stroke:#ff7f0e;" x="267.83751" xlink:href="#m62ceb579a0" y="313.261221"/>
     <use style="fill:#ff7f0e;stroke:#ff7f0e;" x="279.962822" xlink:href="#m62ceb579a0" y="312.424612"/>
     <use style="fill:#ff7f0e;stroke:#ff7f0e;" x="292.088133" xlink:href="#m62ceb579a0" y="313.288334"/>
     <use style="fill:#ff7f0e;stroke:#ff7f0e;" x="304.213444" xlink:href="#m62ceb579a0" y="314.992538"/>
     <use style="fill:#ff7f0e;stroke:#ff7f0e;" x="316.338755" xlink:href="#m62ceb579a0" y="316.994978"/>
     <use style="fill:#ff7f0e;stroke:#ff7f0e;" x="328.464066" xlink:href="#m62ceb579a0" y="320.12839"/>
     <use style="fill:#ff7f0e;stroke:#ff7f0e;" x="340.589378" xlink:href="#m62ceb579a0" y="323.92799"/>
     <use style="fill:#ff7f0e;stroke:#ff7f0e;" x="352.714689" xlink:href="#m62ceb579a0" y="326.267398"/>
     <use style="fill:#ff7f0e;stroke:#ff7f0e;" x="364.84" xlink:href="#m62ceb579a0" y="327.21633"/>
     <use style="fill:#ff7f0e;stroke:#ff7f0e;" x="376.965311" xlink:href="#m62ceb579a0" y="330.353615"/>
     <use style="fill:#ff7f0e;stroke:#ff7f0e;" x="389.090622" xlink:href="#m62ceb579a0" y="328.382161"/>
     <use style="fill:#ff7f0e;stroke:#ff7f0e;" x="401.215934" xlink:href="#m62ceb579a0" y="330.427206"/>
     <use style="fill:#ff7f0e;stroke:#ff7f0e;" x="413.341245" xlink:href="#m62ceb579a0" y="331.647261"/>
     <use style="fill:#ff7f0e;stroke:#ff7f0e;" x="425.466556" xlink:href="#m62ceb579a0" y="332.603939"/>
     <use style="fill:#ff7f0e;stroke:#ff7f0e;" x="437.591867" xlink:href="#m62ceb579a0" y="334.381734"/>
     <use style="fill:#ff7f0e;stroke:#ff7f0e;" x="449.717178" xlink:href="#m62ceb579a0" y="336.422906"/>
     <use style="fill:#ff7f0e;stroke:#ff7f0e;" x="461.84249" xlink:href="#m62ceb579a0" y="338.828158"/>
     <use style="fill:#ff7f0e;stroke:#ff7f0e;" x="473.967801" xlink:href="#m62ceb579a0" y="341.903472"/>
     <use style="fill:#ff7f0e;stroke:#ff7f0e;" x="486.093112" xlink:href="#m62ceb579a0" y="342.825291"/>
     <use style="fill:#ff7f0e;stroke:#ff7f0e;" x="498.218423" xlink:href="#m62ceb579a0" y="343.700633"/>
     <use style="fill:#ff7f0e;stroke:#ff7f0e;" x="510.343734" xlink:href="#m62ceb579a0" y="345.393217"/>
     <use style="fill:#ff7f0e;stroke:#ff7f0e;" x="522.469046" xlink:href="#m62ceb579a0" y="345.834761"/>
     <use style="fill:#ff7f0e;stroke:#ff7f0e;" x="534.594357" xlink:href="#m62ceb579a0" y="347.322067"/>
     <use style="fill:#ff7f0e;stroke:#ff7f0e;" x="546.719668" xlink:href="#m62ceb579a0" y="348.569234"/>
     <use style="fill:#ff7f0e;stroke:#ff7f0e;" x="558.844979" xlink:href="#m62ceb579a0" y="350.099145"/>
     <use style="fill:#ff7f0e;stroke:#ff7f0e;" x="570.97029" xlink:href="#m62ceb579a0" y="352.450172"/>
     <use style="fill:#ff7f0e;stroke:#ff7f0e;" x="583.095602" xlink:href="#m62ceb579a0" y="354.336416"/>
     <use style="fill:#ff7f0e;stroke:#ff7f0e;" x="595.220913" xlink:href="#m62ceb579a0" y="354.96"/>
     <use style="fill:#ff7f0e;stroke:#ff7f0e;" x="607.346224" xlink:href="#m62ceb579a0" y="354.545569"/>
     <use style="fill:#ff7f0e;stroke:#ff7f0e;" x="619.471535" xlink:href="#m62ceb579a0" y="353.178332"/>
     <use style="fill:#ff7f0e;stroke:#ff7f0e;" x="631.596846" xlink:href="#m62ceb579a0" y="353.739945"/>
     <use style="fill:#ff7f0e;stroke:#ff7f0e;" x="643.722158" xlink:href="#m62ceb579a0" y="352.477284"/>
    </g>
   </g>
   <g id="line2d_26">
    <path clip-path="url(#p5f7c56ac85)" d="M 328.464066 124.268846 
L 340.589378 135.628917 
L 352.714689 146.415755 
L 364.84 152.44244 
L 376.965311 157.597658 
L 389.090622 165.704248 
L 401.215934 172.400996 
L 413.341245 176.595662 
L 425.466556 179.771679 
L 437.591867 182.777276 
L 449.717178 186.499413 
L 461.84249 189.47015 
L 473.967801 192.138779 
L 486.093112 197.046113 
L 498.218423 200.431282 
L 510.343734 206.291421 
L 522.469046 207.767107 
L 534.594357 209.006528 
L 546.719668 208.41393 
L 558.844979 206.082268 
L 570.97029 204.219263 
L 583.095602 204.94355 
L 595.220913 205.985439 
L 607.346224 206.980849 
L 619.471535 209.67659 
L 631.596846 211.876563 
L 643.722158 213.472318 
" style="fill:none;stroke:#2ca02c;stroke-linecap:square;stroke-width:3;"/>
    <defs>
     <path d="M 0 5 
C 1.326016 5 2.597899 4.473168 3.535534 3.535534 
C 4.473168 2.597899 5 1.326016 5 0 
C 5 -1.326016 4.473168 -2.597899 3.535534 -3.535534 
C 2.597899 -4.473168 1.326016 -5 0 -5 
C -1.326016 -5 -2.597899 -4.473168 -3.535534 -3.535534 
C -4.473168 -2.597899 -5 -1.326016 -5 0 
C -5 1.326016 -4.473168 2.597899 -3.535534 3.535534 
C -2.597899 4.473168 -1.326016 5 0 5 
z
" id="mde80c79a20" style="stroke:#2ca02c;"/>
    </defs>
    <g clip-path="url(#p5f7c56ac85)">
     <use style="fill:#2ca02c;stroke:#2ca02c;" x="328.464066" xlink:href="#mde80c79a20" y="124.268846"/>
     <use style="fill:#2ca02c;stroke:#2ca02c;" x="340.589378" xlink:href="#mde80c79a20" y="135.628917"/>
     <use style="fill:#2ca02c;stroke:#2ca02c;" x="352.714689" xlink:href="#mde80c79a20" y="146.415755"/>
     <use style="fill:#2ca02c;stroke:#2ca02c;" x="364.84" xlink:href="#mde80c79a20" y="152.44244"/>
     <use style="fill:#2ca02c;stroke:#2ca02c;" x="376.965311" xlink:href="#mde80c79a20" y="157.597658"/>
     <use style="fill:#2ca02c;stroke:#2ca02c;" x="389.090622" xlink:href="#mde80c79a20" y="165.704248"/>
     <use style="fill:#2ca02c;stroke:#2ca02c;" x="401.215934" xlink:href="#mde80c79a20" y="172.400996"/>
     <use style="fill:#2ca02c;stroke:#2ca02c;" x="413.341245" xlink:href="#mde80c79a20" y="176.595662"/>
     <use style="fill:#2ca02c;stroke:#2ca02c;" x="425.466556" xlink:href="#mde80c79a20" y="179.771679"/>
     <use style="fill:#2ca02c;stroke:#2ca02c;" x="437.591867" xlink:href="#mde80c79a20" y="182.777276"/>
     <use style="fill:#2ca02c;stroke:#2ca02c;" x="449.717178" xlink:href="#mde80c79a20" y="186.499413"/>
     <use style="fill:#2ca02c;stroke:#2ca02c;" x="461.84249" xlink:href="#mde80c79a20" y="189.47015"/>
     <use style="fill:#2ca02c;stroke:#2ca02c;" x="473.967801" xlink:href="#mde80c79a20" y="192.138779"/>
     <use style="fill:#2ca02c;stroke:#2ca02c;" x="486.093112" xlink:href="#mde80c79a20" y="197.046113"/>
     <use style="fill:#2ca02c;stroke:#2ca02c;" x="498.218423" xlink:href="#mde80c79a20" y="200.431282"/>
     <use style="fill:#2ca02c;stroke:#2ca02c;" x="510.343734" xlink:href="#mde80c79a20" y="206.291421"/>
     <use style="fill:#2ca02c;stroke:#2ca02c;" x="522.469046" xlink:href="#mde80c79a20" y="207.767107"/>
     <use style="fill:#2ca02c;stroke:#2ca02c;" x="534.594357" xlink:href="#mde80c79a20" y="209.006528"/>
     <use style="fill:#2ca02c;stroke:#2ca02c;" x="546.719668" xlink:href="#mde80c79a20" y="208.41393"/>
     <use style="fill:#2ca02c;stroke:#2ca02c;" x="558.844979" xlink:href="#mde80c79a20" y="206.082268"/>
     <use style="fill:#2ca02c;stroke:#2ca02c;" x="570.97029" xlink:href="#mde80c79a20" y="204.219263"/>
     <use style="fill:#2ca02c;stroke:#2ca02c;" x="583.095602" xlink:href="#mde80c79a20" y="204.94355"/>
     <use style="fill:#2ca02c;stroke:#2ca02c;" x="595.220913" xlink:href="#mde80c79a20" y="205.985439"/>
     <use style="fill:#2ca02c;stroke:#2ca02c;" x="607.346224" xlink:href="#mde80c79a20" y="206.980849"/>
     <use style="fill:#2ca02c;stroke:#2ca02c;" x="619.471535" xlink:href="#mde80c79a20" y="209.67659"/>
     <use style="fill:#2ca02c;stroke:#2ca02c;" x="631.596846" xlink:href="#mde80c79a20" y="211.876563"/>
     <use style="fill:#2ca02c;stroke:#2ca02c;" x="643.722158" xlink:href="#mde80c79a20" y="213.472318"/>
    </g>
   </g>
   <g id="line2d_27">
    <path clip-path="url(#p5f7c56ac85)" d="M 134.459087 42.56 
L 146.584398 49.795122 
L 158.70971 58.796418 
L 170.835021 69.037137 
L 182.960332 75.799729 
L 195.085643 85.211584 
L 207.210954 95.545259 
L 219.336266 104.562048 
L 231.461577 113.923552 
L 243.586888 126.600507 
L 255.712199 133.928585 
L 267.83751 146.814693 
L 279.962822 153.495949 
L 292.088133 164.058142 
L 304.213444 179.419219 
L 316.338755 175.220679 
L 328.464066 191.778572 
L 340.589378 189.520502 
L 352.714689 195.65951 
L 364.84 200.896065 
L 376.965311 212.039237 
L 389.090622 201.721055 
L 401.215934 226.982009 
L 413.341245 239.33749 
L 425.466556 262.785791 
L 437.591867 283.123919 
L 449.717178 287.376683 
L 461.84249 294.673776 
L 473.967801 304.47295 
L 486.093112 311.227796 
L 498.218423 311.704198 
L 510.343734 314.396066 
L 522.469046 318.84249 
L 534.594357 323.103001 
L 546.719668 326.972319 
L 558.844979 328.982505 
L 570.97029 333.099708 
L 583.095602 336.256359 
L 595.220913 340.098565 
L 607.346224 343.642535 
L 619.471535 344.347456 
L 631.596846 344.9478 
L 643.722158 344.785126 
" style="fill:none;stroke:#d62728;stroke-linecap:square;stroke-width:3;"/>
    <defs>
     <path d="M 0 5 
C 1.326016 5 2.597899 4.473168 3.535534 3.535534 
C 4.473168 2.597899 5 1.326016 5 0 
C 5 -1.326016 4.473168 -2.597899 3.535534 -3.535534 
C 2.597899 -4.473168 1.326016 -5 0 -5 
C -1.326016 -5 -2.597899 -4.473168 -3.535534 -3.535534 
C -4.473168 -2.597899 -5 -1.326016 -5 0 
C -5 1.326016 -4.473168 2.597899 -3.535534 3.535534 
C -2.597899 4.473168 -1.326016 5 0 5 
z
" id="m9aadff813a" style="stroke:#d62728;"/>
    </defs>
    <g clip-path="url(#p5f7c56ac85)">
     <use style="fill:#d62728;stroke:#d62728;" x="134.459087" xlink:href="#m9aadff813a" y="42.56"/>
     <use style="fill:#d62728;stroke:#d62728;" x="146.584398" xlink:href="#m9aadff813a" y="49.795122"/>
     <use style="fill:#d62728;stroke:#d62728;" x="158.70971" xlink:href="#m9aadff813a" y="58.796418"/>
     <use style="fill:#d62728;stroke:#d62728;" x="170.835021" xlink:href="#m9aadff813a" y="69.037137"/>
     <use style="fill:#d62728;stroke:#d62728;" x="182.960332" xlink:href="#m9aadff813a" y="75.799729"/>
     <use style="fill:#d62728;stroke:#d62728;" x="195.085643" xlink:href="#m9aadff813a" y="85.211584"/>
     <use style="fill:#d62728;stroke:#d62728;" x="207.210954" xlink:href="#m9aadff813a" y="95.545259"/>
     <use style="fill:#d62728;stroke:#d62728;" x="219.336266" xlink:href="#m9aadff813a" y="104.562048"/>
     <use style="fill:#d62728;stroke:#d62728;" x="231.461577" xlink:href="#m9aadff813a" y="113.923552"/>
     <use style="fill:#d62728;stroke:#d62728;" x="243.586888" xlink:href="#m9aadff813a" y="126.600507"/>
     <use style="fill:#d62728;stroke:#d62728;" x="255.712199" xlink:href="#m9aadff813a" y="133.928585"/>
     <use style="fill:#d62728;stroke:#d62728;" x="267.83751" xlink:href="#m9aadff813a" y="146.814693"/>
     <use style="fill:#d62728;stroke:#d62728;" x="279.962822" xlink:href="#m9aadff813a" y="153.495949"/>
     <use style="fill:#d62728;stroke:#d62728;" x="292.088133" xlink:href="#m9aadff813a" y="164.058142"/>
     <use style="fill:#d62728;stroke:#d62728;" x="304.213444" xlink:href="#m9aadff813a" y="179.419219"/>
     <use style="fill:#d62728;stroke:#d62728;" x="316.338755" xlink:href="#m9aadff813a" y="175.220679"/>
     <use style="fill:#d62728;stroke:#d62728;" x="328.464066" xlink:href="#m9aadff813a" y="191.778572"/>
     <use style="fill:#d62728;stroke:#d62728;" x="340.589378" xlink:href="#m9aadff813a" y="189.520502"/>
     <use style="fill:#d62728;stroke:#d62728;" x="352.714689" xlink:href="#m9aadff813a" y="195.65951"/>
     <use style="fill:#d62728;stroke:#d62728;" x="364.84" xlink:href="#m9aadff813a" y="200.896065"/>
     <use style="fill:#d62728;stroke:#d62728;" x="376.965311" xlink:href="#m9aadff813a" y="212.039237"/>
     <use style="fill:#d62728;stroke:#d62728;" x="389.090622" xlink:href="#m9aadff813a" y="201.721055"/>
     <use style="fill:#d62728;stroke:#d62728;" x="401.215934" xlink:href="#m9aadff813a" y="226.982009"/>
     <use style="fill:#d62728;stroke:#d62728;" x="413.341245" xlink:href="#m9aadff813a" y="239.33749"/>
     <use style="fill:#d62728;stroke:#d62728;" x="425.466556" xlink:href="#m9aadff813a" y="262.785791"/>
     <use style="fill:#d62728;stroke:#d62728;" x="437.591867" xlink:href="#m9aadff813a" y="283.123919"/>
     <use style="fill:#d62728;stroke:#d62728;" x="449.717178" xlink:href="#m9aadff813a" y="287.376683"/>
     <use style="fill:#d62728;stroke:#d62728;" x="461.84249" xlink:href="#m9aadff813a" y="294.673776"/>
     <use style="fill:#d62728;stroke:#d62728;" x="473.967801" xlink:href="#m9aadff813a" y="304.47295"/>
     <use style="fill:#d62728;stroke:#d62728;" x="486.093112" xlink:href="#m9aadff813a" y="311.227796"/>
     <use style="fill:#d62728;stroke:#d62728;" x="498.218423" xlink:href="#m9aadff813a" y="311.704198"/>
     <use style="fill:#d62728;stroke:#d62728;" x="510.343734" xlink:href="#m9aadff813a" y="314.396066"/>
     <use style="fill:#d62728;stroke:#d62728;" x="522.469046" xlink:href="#m9aadff813a" y="318.84249"/>
     <use style="fill:#d62728;stroke:#d62728;" x="534.594357" xlink:href="#m9aadff813a" y="323.103001"/>
     <use style="fill:#d62728;stroke:#d62728;" x="546.719668" xlink:href="#m9aadff813a" y="326.972319"/>
     <use style="fill:#d62728;stroke:#d62728;" x="558.844979" xlink:href="#m9aadff813a" y="328.982505"/>
     <use style="fill:#d62728;stroke:#d62728;" x="570.97029" xlink:href="#m9aadff813a" y="333.099708"/>
     <use style="fill:#d62728;stroke:#d62728;" x="583.095602" xlink:href="#m9aadff813a" y="336.256359"/>
     <use style="fill:#d62728;stroke:#d62728;" x="595.220913" xlink:href="#m9aadff813a" y="340.098565"/>
     <use style="fill:#d62728;stroke:#d62728;" x="607.346224" xlink:href="#m9aadff813a" y="343.642535"/>
     <use style="fill:#d62728;stroke:#d62728;" x="619.471535" xlink:href="#m9aadff813a" y="344.347456"/>
     <use style="fill:#d62728;stroke:#d62728;" x="631.596846" xlink:href="#m9aadff813a" y="344.9478"/>
     <use style="fill:#d62728;stroke:#d62728;" x="643.722158" xlink:href="#m9aadff813a" y="344.785126"/>
    </g>
   </g>
   <g id="text_15">
    <!-- Beds per 100 000 inhabitants -->
    <defs>
     <path d="M 55.5 36.09375 
Q 62.40625 34.59375 66.15625 30.140625 
Q 69.90625 25.703125 69.90625 18.703125 
Q 69.90625 9.703125 63.25 4.84375 
Q 56.59375 0 43.59375 0 
L 11.40625 0 
L 11.40625 70 
L 41.59375 70 
Q 53.296875 70 59.75 65.296875 
Q 66.203125 60.59375 66.203125 52 
Q 66.203125 46.203125 63.34375 42.140625 
Q 60.5 38.09375 55.5 36.09375 
z
M 18.796875 63.90625 
L 18.796875 38.5 
L 41.09375 38.5 
Q 49.59375 38.5 54.1875 41.75 
Q 58.796875 45 58.796875 51.203125 
Q 58.796875 57.40625 54.1875 60.65625 
Q 49.59375 63.90625 41.09375 63.90625 
z
M 43.5 6.09375 
Q 52.90625 6.09375 57.703125 9.296875 
Q 62.5 12.5 62.5 19.296875 
Q 62.5 32.40625 43.5 32.40625 
L 18.796875 32.40625 
L 18.796875 6.09375 
L 43.5 6.09375 
z
" id="Montserrat-Regular-42"/>
     <path d="M 55.703125 24.09375 
L 11.703125 24.09375 
Q 12.296875 15.90625 18 10.84375 
Q 23.703125 5.796875 32.40625 5.796875 
Q 37.296875 5.796875 41.390625 7.546875 
Q 45.5 9.296875 48.5 12.703125 
L 52.5 8.09375 
Q 49 3.90625 43.75 1.703125 
Q 38.5 -0.5 32.203125 -0.5 
Q 24.09375 -0.5 17.84375 2.953125 
Q 11.59375 6.40625 8.09375 12.5 
Q 4.59375 18.59375 4.59375 26.296875 
Q 4.59375 34 7.9375 40.09375 
Q 11.296875 46.203125 17.140625 49.59375 
Q 23 53 30.296875 53 
Q 37.59375 53 43.390625 49.59375 
Q 49.203125 46.203125 52.5 40.140625 
Q 55.796875 34.09375 55.796875 26.296875 
z
M 30.296875 46.90625 
Q 22.703125 46.90625 17.546875 42.046875 
Q 12.40625 37.203125 11.703125 29.40625 
L 49 29.40625 
Q 48.296875 37.203125 43.140625 42.046875 
Q 38 46.90625 30.296875 46.90625 
z
" id="Montserrat-Regular-65"/>
     <path d="M 57.90625 74.203125 
L 57.90625 0 
L 51.09375 0 
L 51.09375 10.40625 
Q 47.90625 5.09375 42.65625 2.296875 
Q 37.40625 -0.5 30.796875 -0.5 
Q 23.40625 -0.5 17.40625 2.890625 
Q 11.40625 6.296875 8 12.390625 
Q 4.59375 18.5 4.59375 26.296875 
Q 4.59375 34.09375 8 40.1875 
Q 11.40625 46.296875 17.40625 49.640625 
Q 23.40625 53 30.796875 53 
Q 37.203125 53 42.34375 50.34375 
Q 47.5 47.703125 50.796875 42.59375 
L 50.796875 74.203125 
z
M 31.40625 5.796875 
Q 36.90625 5.796875 41.34375 8.34375 
Q 45.796875 10.90625 48.34375 15.59375 
Q 50.90625 20.296875 50.90625 26.296875 
Q 50.90625 32.296875 48.34375 37 
Q 45.796875 41.703125 41.34375 44.25 
Q 36.90625 46.796875 31.40625 46.796875 
Q 25.796875 46.796875 21.34375 44.25 
Q 16.90625 41.703125 14.34375 37 
Q 11.796875 32.296875 11.796875 26.296875 
Q 11.796875 20.296875 14.34375 15.59375 
Q 16.90625 10.90625 21.34375 8.34375 
Q 25.796875 5.796875 31.40625 5.796875 
z
" id="Montserrat-Regular-64"/>
     <path d="M 24 -0.5 
Q 17.59375 -0.5 11.75 1.34375 
Q 5.90625 3.203125 2.59375 6 
L 5.796875 11.59375 
Q 9.09375 9 14.09375 7.34375 
Q 19.09375 5.703125 24.5 5.703125 
Q 31.703125 5.703125 35.140625 7.953125 
Q 38.59375 10.203125 38.59375 14.296875 
Q 38.59375 17.203125 36.6875 18.84375 
Q 34.796875 20.5 31.890625 21.34375 
Q 29 22.203125 24.203125 23 
Q 17.796875 24.203125 13.890625 25.453125 
Q 10 26.703125 7.25 29.703125 
Q 4.5 32.703125 4.5 38 
Q 4.5 44.59375 10 48.796875 
Q 15.5 53 25.296875 53 
Q 30.40625 53 35.5 51.640625 
Q 40.59375 50.296875 43.90625 48.09375 
L 40.796875 42.40625 
Q 34.296875 46.90625 25.296875 46.90625 
Q 18.5 46.90625 15.046875 44.5 
Q 11.59375 42.09375 11.59375 38.203125 
Q 11.59375 35.203125 13.546875 33.390625 
Q 15.5 31.59375 18.390625 30.75 
Q 21.296875 29.90625 26.40625 29 
Q 32.703125 27.796875 36.5 26.59375 
Q 40.296875 25.40625 43 22.5 
Q 45.703125 19.59375 45.703125 14.5 
Q 45.703125 7.59375 39.953125 3.546875 
Q 34.203125 -0.5 24 -0.5 
z
" id="Montserrat-Regular-73"/>
     <path id="Montserrat-Regular-20"/>
     <path d="M 37 53 
Q 44.40625 53 50.40625 49.640625 
Q 56.40625 46.296875 59.796875 40.1875 
Q 63.203125 34.09375 63.203125 26.296875 
Q 63.203125 18.40625 59.796875 12.296875 
Q 56.40625 6.203125 50.453125 2.84375 
Q 44.5 -0.5 37 -0.5 
Q 30.59375 -0.5 25.4375 2.140625 
Q 20.296875 4.796875 17 9.90625 
L 17 -19.40625 
L 9.90625 -19.40625 
L 9.90625 52.59375 
L 16.703125 52.59375 
L 16.703125 42.203125 
Q 19.90625 47.40625 25.15625 50.203125 
Q 30.40625 53 37 53 
z
M 36.5 5.796875 
Q 42 5.796875 46.5 8.34375 
Q 51 10.90625 53.546875 15.59375 
Q 56.09375 20.296875 56.09375 26.296875 
Q 56.09375 32.296875 53.546875 36.9375 
Q 51 41.59375 46.5 44.1875 
Q 42 46.796875 36.5 46.796875 
Q 30.90625 46.796875 26.453125 44.1875 
Q 22 41.59375 19.453125 36.9375 
Q 16.90625 32.296875 16.90625 26.296875 
Q 16.90625 20.296875 19.453125 15.59375 
Q 22 10.90625 26.453125 8.34375 
Q 30.90625 5.796875 36.5 5.796875 
z
" id="Montserrat-Regular-70"/>
     <path d="M 16.703125 42.296875 
Q 19.203125 47.59375 24.140625 50.296875 
Q 29.09375 53 36.40625 53 
L 36.40625 46.09375 
L 34.703125 46.203125 
Q 26.40625 46.203125 21.703125 41.09375 
Q 17 36 17 26.796875 
L 17 0 
L 9.90625 0 
L 9.90625 52.59375 
L 16.703125 52.59375 
L 16.703125 42.296875 
z
" id="Montserrat-Regular-72"/>
     <path d="M 9.90625 52.59375 
L 17 52.59375 
L 17 0 
L 9.90625 0 
z
M 13.5 64.09375 
Q 11.296875 64.09375 9.796875 65.59375 
Q 8.296875 67.09375 8.296875 69.203125 
Q 8.296875 71.203125 9.796875 72.703125 
Q 11.296875 74.203125 13.5 74.203125 
Q 15.703125 74.203125 17.203125 72.75 
Q 18.703125 71.296875 18.703125 69.296875 
Q 18.703125 67.09375 17.203125 65.59375 
Q 15.703125 64.09375 13.5 64.09375 
z
" id="Montserrat-Regular-69"/>
     <path d="M 36.703125 53 
Q 46.59375 53 52.4375 47.25 
Q 58.296875 41.5 58.296875 30.5 
L 58.296875 0 
L 51.203125 0 
L 51.203125 29.796875 
Q 51.203125 38 47.09375 42.296875 
Q 43 46.59375 35.40625 46.59375 
Q 26.90625 46.59375 21.953125 41.546875 
Q 17 36.5 17 27.59375 
L 17 0 
L 9.90625 0 
L 9.90625 52.59375 
L 16.703125 52.59375 
L 16.703125 42.90625 
Q 19.59375 47.703125 24.75 50.34375 
Q 29.90625 53 36.703125 53 
z
" id="Montserrat-Regular-6e"/>
     <path d="M 36.703125 53 
Q 46.59375 53 52.4375 47.25 
Q 58.296875 41.5 58.296875 30.5 
L 58.296875 0 
L 51.203125 0 
L 51.203125 29.796875 
Q 51.203125 38 47.09375 42.296875 
Q 43 46.59375 35.40625 46.59375 
Q 26.90625 46.59375 21.953125 41.546875 
Q 17 36.5 17 27.59375 
L 17 0 
L 9.90625 0 
L 9.90625 74.203125 
L 17 74.203125 
L 17 43.40625 
Q 19.90625 48 25 50.5 
Q 30.09375 53 36.703125 53 
z
" id="Montserrat-Regular-68"/>
     <path d="M 28.296875 53 
Q 38.59375 53 44.09375 47.84375 
Q 49.59375 42.703125 49.59375 32.59375 
L 49.59375 0 
L 42.796875 0 
L 42.796875 8.203125 
Q 40.40625 4.09375 35.75 1.796875 
Q 31.09375 -0.5 24.703125 -0.5 
Q 15.90625 -0.5 10.703125 3.703125 
Q 5.5 7.90625 5.5 14.796875 
Q 5.5 21.5 10.34375 25.59375 
Q 15.203125 29.703125 25.796875 29.703125 
L 42.5 29.703125 
L 42.5 32.90625 
Q 42.5 39.703125 38.703125 43.25 
Q 34.90625 46.796875 27.59375 46.796875 
Q 22.59375 46.796875 18 45.140625 
Q 13.40625 43.5 10.09375 40.59375 
L 6.90625 45.90625 
Q 10.90625 49.296875 16.5 51.140625 
Q 22.09375 53 28.296875 53 
z
M 25.796875 5.09375 
Q 31.796875 5.09375 36.09375 7.84375 
Q 40.40625 10.59375 42.5 15.796875 
L 42.5 24.40625 
L 26 24.40625 
Q 12.5 24.40625 12.5 15 
Q 12.5 10.40625 16 7.75 
Q 19.5 5.09375 25.796875 5.09375 
z
" id="Montserrat-Regular-61"/>
     <path d="M 37 53 
Q 44.40625 53 50.40625 49.640625 
Q 56.40625 46.296875 59.796875 40.1875 
Q 63.203125 34.09375 63.203125 26.296875 
Q 63.203125 18.5 59.796875 12.390625 
Q 56.40625 6.296875 50.40625 2.890625 
Q 44.40625 -0.5 37 -0.5 
Q 30.40625 -0.5 25.15625 2.296875 
Q 19.90625 5.09375 16.703125 10.40625 
L 16.703125 0 
L 9.90625 0 
L 9.90625 74.203125 
L 17 74.203125 
L 17 42.59375 
Q 20.296875 47.703125 25.4375 50.34375 
Q 30.59375 53 37 53 
z
M 36.5 5.796875 
Q 42 5.796875 46.5 8.34375 
Q 51 10.90625 53.546875 15.59375 
Q 56.09375 20.296875 56.09375 26.296875 
Q 56.09375 32.296875 53.546875 37 
Q 51 41.703125 46.5 44.25 
Q 42 46.796875 36.5 46.796875 
Q 30.90625 46.796875 26.453125 44.25 
Q 22 41.703125 19.453125 37 
Q 16.90625 32.296875 16.90625 26.296875 
Q 16.90625 20.296875 19.453125 15.59375 
Q 22 10.90625 26.453125 8.34375 
Q 30.90625 5.796875 36.5 5.796875 
z
" id="Montserrat-Regular-62"/>
     <path d="M 37.59375 3.203125 
Q 35.59375 1.40625 32.640625 0.453125 
Q 29.703125 -0.5 26.5 -0.5 
Q 19.09375 -0.5 15.09375 3.5 
Q 11.09375 7.5 11.09375 14.796875 
L 11.09375 46.59375 
L 1.703125 46.59375 
L 1.703125 52.59375 
L 11.09375 52.59375 
L 11.09375 64.09375 
L 18.203125 64.09375 
L 18.203125 52.59375 
L 34.203125 52.59375 
L 34.203125 46.59375 
L 18.203125 46.59375 
L 18.203125 15.203125 
Q 18.203125 10.5 20.546875 8.046875 
Q 22.90625 5.59375 27.296875 5.59375 
Q 29.5 5.59375 31.546875 6.296875 
Q 33.59375 7 35.09375 8.296875 
z
" id="Montserrat-Regular-74"/>
    </defs>
    <g style="fill:#222222;" transform="translate(232.940781 55.304)scale(0.18 -0.18)">
     <use xlink:href="#Montserrat-Regular-42"/>
     <use x="75.399994" xlink:href="#Montserrat-Regular-65"/>
     <use x="135.799988" xlink:href="#Montserrat-Regular-64"/>
     <use x="203.599976" xlink:href="#Montserrat-Regular-73"/>
     <use x="252.499969" xlink:href="#Montserrat-Regular-20"/>
     <use x="278.699966" xlink:href="#Montserrat-Regular-70"/>
     <use x="346.499954" xlink:href="#Montserrat-Regular-65"/>
     <use x="406.899948" xlink:href="#Montserrat-Regular-72"/>
     <use x="446.999939" xlink:href="#Montserrat-Regular-20"/>
     <use x="473.199936" xlink:href="#Montserrat-Regular-31"/>
     <use x="509.299927" xlink:href="#Montserrat-Regular-30"/>
     <use x="575.499924" xlink:href="#Montserrat-Regular-30"/>
     <use x="641.699921" xlink:href="#Montserrat-Regular-20"/>
     <use x="667.899918" xlink:href="#Montserrat-Regular-30"/>
     <use x="734.099915" xlink:href="#Montserrat-Regular-30"/>
     <use x="800.299911" xlink:href="#Montserrat-Regular-30"/>
     <use x="866.499908" xlink:href="#Montserrat-Regular-20"/>
     <use x="892.699905" xlink:href="#Montserrat-Regular-69"/>
     <use x="919.599899" xlink:href="#Montserrat-Regular-6e"/>
     <use x="987.299881" xlink:href="#Montserrat-Regular-68"/>
     <use x="1054.999863" xlink:href="#Montserrat-Regular-61"/>
     <use x="1113.999847" xlink:href="#Montserrat-Regular-62"/>
     <use x="1181.799835" xlink:href="#Montserrat-Regular-69"/>
     <use x="1208.699829" xlink:href="#Montserrat-Regular-74"/>
     <use x="1249.29982" xlink:href="#Montserrat-Regular-61"/>
     <use x="1308.299805" xlink:href="#Montserrat-Regular-6e"/>
     <use x="1375.999786" xlink:href="#Montserrat-Regular-74"/>
     <use x="1416.599777" xlink:href="#Montserrat-Regular-73"/>
    </g>
   </g>
   <g id="legend_1">
    <g id="patch_3">
     <path d="M 84.716 251.0698 
L 220.3289 251.0698 
Q 223.7849 251.0698 223.7849 247.6138 
L 223.7849 149.9062 
Q 223.7849 146.4502 220.3289 146.4502 
L 84.716 146.4502 
Q 81.26 146.4502 81.26 149.9062 
L 81.26 247.6138 
Q 81.26 251.0698 84.716 251.0698 
z
" style="fill:#ffffff;opacity:0.8;stroke:#cccccc;stroke-linejoin:miter;"/>
    </g>
    <g id="line2d_28">
     <path d="M 88.172 160.1365 
L 122.732 160.1365 
" style="fill:none;stroke:#1f77b4;stroke-linecap:square;stroke-width:3;"/>
    </g>
    <g id="line2d_29">
     <g>
      <use style="fill:#1f77b4;stroke:#1f77b4;" x="105.452" xlink:href="#m5a399a92bf" y="160.1365"/>
     </g>
    </g>
    <g id="text_16">
     <!-- France  -->
     <defs>
      <path d="M 18.796875 63.59375 
L 18.796875 36.09375 
L 55 36.09375 
L 55 29.703125 
L 18.796875 29.703125 
L 18.796875 0 
L 11.40625 0 
L 11.40625 70 
L 59.40625 70 
L 59.40625 63.59375 
z
" id="Montserrat-Regular-46"/>
      <path d="M 31.703125 -0.5 
Q 23.90625 -0.5 17.75 2.890625 
Q 11.59375 6.296875 8.09375 12.4375 
Q 4.59375 18.59375 4.59375 26.296875 
Q 4.59375 34 8.09375 40.09375 
Q 11.59375 46.203125 17.75 49.59375 
Q 23.90625 53 31.703125 53 
Q 38.5 53 43.84375 50.34375 
Q 49.203125 47.703125 52.296875 42.59375 
L 47 39 
Q 44.40625 42.90625 40.40625 44.84375 
Q 36.40625 46.796875 31.703125 46.796875 
Q 26 46.796875 21.453125 44.25 
Q 16.90625 41.703125 14.34375 37 
Q 11.796875 32.296875 11.796875 26.296875 
Q 11.796875 20.203125 14.34375 15.546875 
Q 16.90625 10.90625 21.453125 8.34375 
Q 26 5.796875 31.703125 5.796875 
Q 36.40625 5.796875 40.40625 7.6875 
Q 44.40625 9.59375 47 13.5 
L 52.296875 9.90625 
Q 49.203125 4.796875 43.796875 2.140625 
Q 38.40625 -0.5 31.703125 -0.5 
z
" id="Montserrat-Regular-63"/>
     </defs>
     <g style="fill:#222222;" transform="translate(136.556 166.1845)scale(0.1728 -0.1728)">
      <use xlink:href="#Montserrat-Regular-46"/>
      <use x="63.299988" xlink:href="#Montserrat-Regular-72"/>
      <use x="103.399979" xlink:href="#Montserrat-Regular-61"/>
      <use x="162.399963" xlink:href="#Montserrat-Regular-6e"/>
      <use x="230.099945" xlink:href="#Montserrat-Regular-63"/>
      <use x="286.399933" xlink:href="#Montserrat-Regular-65"/>
      <use x="346.799927" xlink:href="#Montserrat-Regular-20"/>
     </g>
    </g>
    <g id="line2d_30">
     <path d="M 88.172 184.9522 
L 122.732 184.9522 
" style="fill:none;stroke:#ff7f0e;stroke-linecap:square;stroke-width:3;"/>
    </g>
    <g id="line2d_31">
     <g>
      <use style="fill:#ff7f0e;stroke:#ff7f0e;" x="105.452" xlink:href="#m62ceb579a0" y="184.9522"/>
     </g>
    </g>
    <g id="text_17">
     <!-- Spain   -->
     <defs>
      <path d="M 30.703125 -0.59375 
Q 22.90625 -0.59375 15.75 1.90625 
Q 8.59375 4.40625 4.703125 8.5 
L 7.59375 14.203125 
Q 11.40625 10.40625 17.703125 8.046875 
Q 24 5.703125 30.703125 5.703125 
Q 40.09375 5.703125 44.796875 9.140625 
Q 49.5 12.59375 49.5 18.09375 
Q 49.5 22.296875 46.953125 24.796875 
Q 44.40625 27.296875 40.703125 28.640625 
Q 37 30 30.40625 31.59375 
Q 22.5 33.59375 17.796875 35.4375 
Q 13.09375 37.296875 9.75 41.09375 
Q 6.40625 44.90625 6.40625 51.40625 
Q 6.40625 56.703125 9.203125 61.046875 
Q 12 65.40625 17.796875 68 
Q 23.59375 70.59375 32.203125 70.59375 
Q 38.203125 70.59375 43.953125 68.9375 
Q 49.703125 67.296875 53.90625 64.40625 
L 51.40625 58.5 
Q 47 61.40625 42 62.84375 
Q 37 64.296875 32.203125 64.296875 
Q 23 64.296875 18.34375 60.75 
Q 13.703125 57.203125 13.703125 51.59375 
Q 13.703125 47.40625 16.25 44.84375 
Q 18.796875 42.296875 22.640625 40.9375 
Q 26.5 39.59375 33 38 
Q 40.703125 36.09375 45.453125 34.25 
Q 50.203125 32.40625 53.5 28.65625 
Q 56.796875 24.90625 56.796875 18.5 
Q 56.796875 13.203125 53.9375 8.84375 
Q 51.09375 4.5 45.1875 1.953125 
Q 39.296875 -0.59375 30.703125 -0.59375 
z
" id="Montserrat-Regular-53"/>
     </defs>
     <g style="fill:#222222;" transform="translate(136.556 191.0002)scale(0.1728 -0.1728)">
      <use xlink:href="#Montserrat-Regular-53"/>
      <use x="61.499985" xlink:href="#Montserrat-Regular-70"/>
      <use x="129.299973" xlink:href="#Montserrat-Regular-61"/>
      <use x="188.299957" xlink:href="#Montserrat-Regular-69"/>
      <use x="215.199951" xlink:href="#Montserrat-Regular-6e"/>
      <use x="282.899933" xlink:href="#Montserrat-Regular-20"/>
      <use x="309.09993" xlink:href="#Montserrat-Regular-20"/>
     </g>
    </g>
    <g id="line2d_32">
     <path d="M 88.172 209.7679 
L 122.732 209.7679 
" style="fill:none;stroke:#2ca02c;stroke-linecap:square;stroke-width:3;"/>
    </g>
    <g id="line2d_33">
     <g>
      <use style="fill:#2ca02c;stroke:#2ca02c;" x="105.452" xlink:href="#mde80c79a20" y="209.7679"/>
     </g>
    </g>
    <g id="text_18">
     <!-- Germany -->
     <defs>
      <path d="M 60.703125 35 
L 67.796875 35 
L 67.796875 8.296875 
Q 62.90625 4 56.203125 1.703125 
Q 49.5 -0.59375 42.09375 -0.59375 
Q 31.59375 -0.59375 23.1875 4 
Q 14.796875 8.59375 10 16.75 
Q 5.203125 24.90625 5.203125 35 
Q 5.203125 45.09375 10 53.25 
Q 14.796875 61.40625 23.1875 66 
Q 31.59375 70.59375 42.203125 70.59375 
Q 50.203125 70.59375 56.890625 68.046875 
Q 63.59375 65.5 68.203125 60.5 
L 63.59375 55.796875 
Q 55.296875 64 42.5 64 
Q 34 64 27.140625 60.25 
Q 20.296875 56.5 16.390625 49.84375 
Q 12.5 43.203125 12.5 35 
Q 12.5 26.796875 16.390625 20.1875 
Q 20.296875 13.59375 27.09375 9.796875 
Q 33.90625 6 42.40625 6 
Q 53.203125 6 60.703125 11.40625 
z
" id="Montserrat-Regular-47"/>
      <path d="M 75.5 53 
Q 85.40625 53 91.046875 47.296875 
Q 96.703125 41.59375 96.703125 30.5 
L 96.703125 0 
L 89.59375 0 
L 89.59375 29.796875 
Q 89.59375 38 85.640625 42.296875 
Q 81.703125 46.59375 74.5 46.59375 
Q 66.296875 46.59375 61.59375 41.546875 
Q 56.90625 36.5 56.90625 27.59375 
L 56.90625 0 
L 49.796875 0 
L 49.796875 29.796875 
Q 49.796875 38 45.84375 42.296875 
Q 41.90625 46.59375 34.59375 46.59375 
Q 26.5 46.59375 21.75 41.546875 
Q 17 36.5 17 27.59375 
L 17 0 
L 9.90625 0 
L 9.90625 52.59375 
L 16.703125 52.59375 
L 16.703125 43 
Q 19.5 47.796875 24.5 50.390625 
Q 29.5 53 36 53 
Q 42.59375 53 47.4375 50.203125 
Q 52.296875 47.40625 54.703125 41.90625 
Q 57.59375 47.09375 63.046875 50.046875 
Q 68.5 53 75.5 53 
z
" id="Montserrat-Regular-6d"/>
      <path d="M 54.09375 52.59375 
L 27.796875 -6.296875 
Q 24.59375 -13.703125 20.390625 -16.796875 
Q 16.203125 -19.90625 10.296875 -19.90625 
Q 6.5 -19.90625 3.203125 -18.703125 
Q -0.09375 -17.5 -2.5 -15.09375 
L 0.796875 -9.796875 
Q 4.796875 -13.796875 10.40625 -13.796875 
Q 14 -13.796875 16.546875 -11.796875 
Q 19.09375 -9.796875 21.296875 -5 
L 23.59375 0.09375 
L 0.09375 52.59375 
L 7.5 52.59375 
L 27.296875 7.90625 
L 47.09375 52.59375 
z
" id="Montserrat-Regular-79"/>
     </defs>
     <g style="fill:#222222;" transform="translate(136.556 215.8159)scale(0.1728 -0.1728)">
      <use xlink:href="#Montserrat-Regular-47"/>
      <use x="77.299988" xlink:href="#Montserrat-Regular-65"/>
      <use x="137.699982" xlink:href="#Montserrat-Regular-72"/>
      <use x="177.799973" xlink:href="#Montserrat-Regular-6d"/>
      <use x="283.899963" xlink:href="#Montserrat-Regular-61"/>
      <use x="342.899948" xlink:href="#Montserrat-Regular-6e"/>
      <use x="410.59993" xlink:href="#Montserrat-Regular-79"/>
     </g>
    </g>
    <g id="line2d_34">
     <path d="M 88.172 234.67 
L 122.732 234.67 
" style="fill:none;stroke:#d62728;stroke-linecap:square;stroke-width:3;"/>
    </g>
    <g id="line2d_35">
     <g>
      <use style="fill:#d62728;stroke:#d62728;" x="105.452" xlink:href="#m9aadff813a" y="234.67"/>
     </g>
    </g>
    <g id="text_19">
     <!-- Italy   -->
     <defs>
      <path d="M 11.40625 70 
L 18.796875 70 
L 18.796875 0 
L 11.40625 0 
z
" id="Montserrat-Regular-49"/>
      <path d="M 9.90625 74.203125 
L 17 74.203125 
L 17 0 
L 9.90625 0 
z
" id="Montserrat-Regular-6c"/>
     </defs>
     <g style="fill:#222222;" transform="translate(136.556 240.718)scale(0.1728 -0.1728)">
      <use xlink:href="#Montserrat-Regular-49"/>
      <use x="30.199997" xlink:href="#Montserrat-Regular-74"/>
      <use x="70.799988" xlink:href="#Montserrat-Regular-61"/>
      <use x="129.799973" xlink:href="#Montserrat-Regular-6c"/>
      <use x="156.699966" xlink:href="#Montserrat-Regular-79"/>
      <use x="210.899963" xlink:href="#Montserrat-Regular-20"/>
      <use x="237.09996" xlink:href="#Montserrat-Regular-20"/>
     </g>
    </g>
   </g>
  </g>
  <g id="text_20">
   <!-- Curative beds in EU countries hit by COVID-19 -->
   <defs>
    <path d="M 41.796875 -1.203125 
Q 31.09375 -1.203125 22.4375 3.4375 
Q 13.796875 8.09375 8.84375 16.34375 
Q 3.90625 24.59375 3.90625 35 
Q 3.90625 45.40625 8.84375 53.65625 
Q 13.796875 61.90625 22.4375 66.546875 
Q 31.09375 71.203125 41.90625 71.203125 
Q 51 71.203125 58.34375 68 
Q 65.703125 64.796875 70.703125 58.796875 
L 60.296875 49.203125 
Q 53.203125 57.40625 42.703125 57.40625 
Q 36.203125 57.40625 31.09375 54.546875 
Q 26 51.703125 23.140625 46.59375 
Q 20.296875 41.5 20.296875 35 
Q 20.296875 28.5 23.140625 23.390625 
Q 26 18.296875 31.09375 15.4375 
Q 36.203125 12.59375 42.703125 12.59375 
Q 53.203125 12.59375 60.296875 20.90625 
L 70.703125 11.296875 
Q 65.703125 5.203125 58.296875 2 
Q 50.90625 -1.203125 41.796875 -1.203125 
z
" id="Montserrat-Bold-43"/>
    <path d="M 61.40625 53.796875 
L 61.40625 0 
L 46.59375 0 
L 46.59375 6.40625 
Q 43.5 2.90625 39.203125 1.046875 
Q 34.90625 -0.796875 29.90625 -0.796875 
Q 19.296875 -0.796875 13.09375 5.296875 
Q 6.90625 11.40625 6.90625 23.40625 
L 6.90625 53.796875 
L 22.5 53.796875 
L 22.5 25.703125 
Q 22.5 12.703125 33.40625 12.703125 
Q 39 12.703125 42.390625 16.34375 
Q 45.796875 20 45.796875 27.203125 
L 45.796875 53.796875 
z
" id="Montserrat-Bold-75"/>
    <path d="M 22.09375 46.703125 
Q 24.90625 50.59375 29.65625 52.59375 
Q 34.40625 54.59375 40.59375 54.59375 
L 40.59375 40.203125 
Q 38 40.40625 37.09375 40.40625 
Q 30.40625 40.40625 26.59375 36.65625 
Q 22.796875 32.90625 22.796875 25.40625 
L 22.796875 0 
L 7.203125 0 
L 7.203125 53.796875 
L 22.09375 53.796875 
L 22.09375 46.703125 
z
" id="Montserrat-Bold-72"/>
    <path d="M 28.90625 54.59375 
Q 41.40625 54.59375 48.09375 48.640625 
Q 54.796875 42.703125 54.796875 30.703125 
L 54.796875 0 
L 40.203125 0 
L 40.203125 6.703125 
Q 35.796875 -0.796875 23.796875 -0.796875 
Q 17.59375 -0.796875 13.046875 1.296875 
Q 8.5 3.40625 6.09375 7.09375 
Q 3.703125 10.796875 3.703125 15.5 
Q 3.703125 23 9.34375 27.296875 
Q 15 31.59375 26.796875 31.59375 
L 39.203125 31.59375 
Q 39.203125 36.703125 36.09375 39.453125 
Q 33 42.203125 26.796875 42.203125 
Q 22.5 42.203125 18.34375 40.84375 
Q 14.203125 39.5 11.296875 37.203125 
L 5.703125 48.09375 
Q 10.09375 51.203125 16.25 52.890625 
Q 22.40625 54.59375 28.90625 54.59375 
z
M 27.703125 9.703125 
Q 31.703125 9.703125 34.796875 11.546875 
Q 37.90625 13.40625 39.203125 17 
L 39.203125 22.5 
L 28.5 22.5 
Q 18.90625 22.5 18.90625 16.203125 
Q 18.90625 13.203125 21.25 11.453125 
Q 23.59375 9.703125 27.703125 9.703125 
z
" id="Montserrat-Bold-61"/>
    <path d="M 41.90625 2.59375 
Q 39.59375 0.90625 36.25 0.046875 
Q 32.90625 -0.796875 29.203125 -0.796875 
Q 19.59375 -0.796875 14.34375 4.09375 
Q 9.09375 9 9.09375 18.5 
L 9.09375 40.59375 
L 0.796875 40.59375 
L 0.796875 52.59375 
L 9.09375 52.59375 
L 9.09375 65.703125 
L 24.703125 65.703125 
L 24.703125 52.59375 
L 38.09375 52.59375 
L 38.09375 40.59375 
L 24.703125 40.59375 
L 24.703125 18.703125 
Q 24.703125 15.296875 26.453125 13.4375 
Q 28.203125 11.59375 31.40625 11.59375 
Q 35.09375 11.59375 37.703125 13.59375 
z
" id="Montserrat-Bold-74"/>
    <path d="M 7.203125 53.796875 
L 22.796875 53.796875 
L 22.796875 0 
L 7.203125 0 
z
M 15 61.296875 
Q 10.703125 61.296875 8 63.796875 
Q 5.296875 66.296875 5.296875 70 
Q 5.296875 73.703125 8 76.203125 
Q 10.703125 78.703125 15 78.703125 
Q 19.296875 78.703125 22 76.296875 
Q 24.703125 73.90625 24.703125 70.296875 
Q 24.703125 66.40625 22 63.84375 
Q 19.296875 61.296875 15 61.296875 
z
" id="Montserrat-Bold-69"/>
    <path d="M 60.59375 53.796875 
L 37.90625 0 
L 21.796875 0 
L -0.796875 53.796875 
L 15.296875 53.796875 
L 30.203125 17.203125 
L 45.59375 53.796875 
z
" id="Montserrat-Bold-76"/>
    <path d="M 59.90625 26.703125 
Q 59.90625 26.40625 59.59375 22.5 
L 18.90625 22.5 
Q 20 17.5 24.09375 14.59375 
Q 28.203125 11.703125 34.296875 11.703125 
Q 38.5 11.703125 41.75 12.953125 
Q 45 14.203125 47.796875 16.90625 
L 56.09375 7.90625 
Q 48.5 -0.796875 33.90625 -0.796875 
Q 24.796875 -0.796875 17.796875 2.75 
Q 10.796875 6.296875 7 12.59375 
Q 3.203125 18.90625 3.203125 26.90625 
Q 3.203125 34.796875 6.953125 41.140625 
Q 10.703125 47.5 17.25 51.046875 
Q 23.796875 54.59375 31.90625 54.59375 
Q 39.796875 54.59375 46.1875 51.1875 
Q 52.59375 47.796875 56.25 41.4375 
Q 59.90625 35.09375 59.90625 26.703125 
z
M 32 42.796875 
Q 26.703125 42.796875 23.09375 39.796875 
Q 19.5 36.796875 18.703125 31.59375 
L 45.203125 31.59375 
Q 44.40625 36.703125 40.796875 39.75 
Q 37.203125 42.796875 32 42.796875 
z
" id="Montserrat-Bold-65"/>
    <path id="Montserrat-Bold-20"/>
    <path d="M 39 54.59375 
Q 46.5 54.59375 52.640625 51.140625 
Q 58.796875 47.703125 62.296875 41.453125 
Q 65.796875 35.203125 65.796875 26.90625 
Q 65.796875 18.59375 62.296875 12.34375 
Q 58.796875 6.09375 52.640625 2.640625 
Q 46.5 -0.796875 39 -0.796875 
Q 27.90625 -0.796875 22.09375 6.203125 
L 22.09375 0 
L 7.203125 0 
L 7.203125 74.203125 
L 22.796875 74.203125 
L 22.796875 48.09375 
Q 28.703125 54.59375 39 54.59375 
z
M 36.296875 12 
Q 42.296875 12 46.140625 16.046875 
Q 50 20.09375 50 26.90625 
Q 50 33.703125 46.140625 37.75 
Q 42.296875 41.796875 36.296875 41.796875 
Q 30.296875 41.796875 26.4375 37.75 
Q 22.59375 33.703125 22.59375 26.90625 
Q 22.59375 20.09375 26.4375 16.046875 
Q 30.296875 12 36.296875 12 
z
" id="Montserrat-Bold-62"/>
    <path d="M 62 74.203125 
L 62 0 
L 47.09375 0 
L 47.09375 6.203125 
Q 41.296875 -0.796875 30.296875 -0.796875 
Q 22.703125 -0.796875 16.546875 2.59375 
Q 10.40625 6 6.90625 12.296875 
Q 3.40625 18.59375 3.40625 26.90625 
Q 3.40625 35.203125 6.90625 41.5 
Q 10.40625 47.796875 16.546875 51.1875 
Q 22.703125 54.59375 30.296875 54.59375 
Q 40.59375 54.59375 46.40625 48.09375 
L 46.40625 74.203125 
z
M 33 12 
Q 38.90625 12 42.796875 16.046875 
Q 46.703125 20.09375 46.703125 26.90625 
Q 46.703125 33.703125 42.796875 37.75 
Q 38.90625 41.796875 33 41.796875 
Q 27 41.796875 23.09375 37.75 
Q 19.203125 33.703125 19.203125 26.90625 
Q 19.203125 20.09375 23.09375 16.046875 
Q 27 12 33 12 
z
" id="Montserrat-Bold-64"/>
    <path d="M 25.296875 -0.796875 
Q 18.59375 -0.796875 12.1875 0.84375 
Q 5.796875 2.5 2 5 
L 7.203125 16.203125 
Q 10.796875 13.90625 15.890625 12.453125 
Q 21 11 25.90625 11 
Q 35.796875 11 35.796875 15.90625 
Q 35.796875 18.203125 33.09375 19.203125 
Q 30.40625 20.203125 24.796875 20.90625 
Q 18.203125 21.90625 13.890625 23.203125 
Q 9.59375 24.5 6.4375 27.796875 
Q 3.296875 31.09375 3.296875 37.203125 
Q 3.296875 42.296875 6.25 46.25 
Q 9.203125 50.203125 14.84375 52.390625 
Q 20.5 54.59375 28.203125 54.59375 
Q 33.90625 54.59375 39.546875 53.34375 
Q 45.203125 52.09375 48.90625 49.90625 
L 43.703125 38.796875 
Q 36.59375 42.796875 28.203125 42.796875 
Q 23.203125 42.796875 20.703125 41.390625 
Q 18.203125 40 18.203125 37.796875 
Q 18.203125 35.296875 20.890625 34.296875 
Q 23.59375 33.296875 29.5 32.40625 
Q 36.09375 31.296875 40.296875 30.046875 
Q 44.5 28.796875 47.59375 25.5 
Q 50.703125 22.203125 50.703125 16.296875 
Q 50.703125 11.296875 47.703125 7.390625 
Q 44.703125 3.5 38.953125 1.34375 
Q 33.203125 -0.796875 25.296875 -0.796875 
z
" id="Montserrat-Bold-73"/>
    <path d="M 39.90625 54.59375 
Q 49.90625 54.59375 56.046875 48.59375 
Q 62.203125 42.59375 62.203125 30.796875 
L 62.203125 0 
L 46.59375 0 
L 46.59375 28.40625 
Q 46.59375 34.796875 43.796875 37.9375 
Q 41 41.09375 35.703125 41.09375 
Q 29.796875 41.09375 26.296875 37.4375 
Q 22.796875 33.796875 22.796875 26.59375 
L 22.796875 0 
L 7.203125 0 
L 7.203125 53.796875 
L 22.09375 53.796875 
L 22.09375 47.5 
Q 25.203125 50.90625 29.796875 52.75 
Q 34.40625 54.59375 39.90625 54.59375 
z
" id="Montserrat-Bold-6e"/>
    <path d="M 62.5 13 
L 62.5 0 
L 8.296875 0 
L 8.296875 70 
L 61.203125 70 
L 61.203125 57 
L 24.40625 57 
L 24.40625 41.796875 
L 56.90625 41.796875 
L 56.90625 29.203125 
L 24.40625 29.203125 
L 24.40625 13 
z
" id="Montserrat-Bold-45"/>
    <path d="M 39.40625 -1.203125 
Q 24.40625 -1.203125 16.046875 7.09375 
Q 7.703125 15.40625 7.703125 30.796875 
L 7.703125 70 
L 23.90625 70 
L 23.90625 31.40625 
Q 23.90625 12.59375 39.5 12.59375 
Q 47.09375 12.59375 51.09375 17.140625 
Q 55.09375 21.703125 55.09375 31.40625 
L 55.09375 70 
L 71.09375 70 
L 71.09375 30.796875 
Q 71.09375 15.40625 62.75 7.09375 
Q 54.40625 -1.203125 39.40625 -1.203125 
z
" id="Montserrat-Bold-55"/>
    <path d="M 33.203125 -0.796875 
Q 24.59375 -0.796875 17.75 2.75 
Q 10.90625 6.296875 7.046875 12.59375 
Q 3.203125 18.90625 3.203125 26.90625 
Q 3.203125 34.90625 7.046875 41.203125 
Q 10.90625 47.5 17.75 51.046875 
Q 24.59375 54.59375 33.203125 54.59375 
Q 41.703125 54.59375 48.046875 51.046875 
Q 54.40625 47.5 57.296875 40.90625 
L 45.203125 34.40625 
Q 41 41.796875 33.09375 41.796875 
Q 27 41.796875 23 37.796875 
Q 19 33.796875 19 26.90625 
Q 19 20 23 16 
Q 27 12 33.09375 12 
Q 41.09375 12 45.203125 19.40625 
L 57.296875 12.796875 
Q 54.40625 6.40625 48.046875 2.796875 
Q 41.703125 -0.796875 33.203125 -0.796875 
z
" id="Montserrat-Bold-63"/>
    <path d="M 32.796875 -0.796875 
Q 24.296875 -0.796875 17.546875 2.75 
Q 10.796875 6.296875 7 12.59375 
Q 3.203125 18.90625 3.203125 26.90625 
Q 3.203125 34.90625 7 41.203125 
Q 10.796875 47.5 17.546875 51.046875 
Q 24.296875 54.59375 32.796875 54.59375 
Q 41.296875 54.59375 48 51.046875 
Q 54.703125 47.5 58.5 41.203125 
Q 62.296875 34.90625 62.296875 26.90625 
Q 62.296875 18.90625 58.5 12.59375 
Q 54.703125 6.296875 48 2.75 
Q 41.296875 -0.796875 32.796875 -0.796875 
z
M 32.796875 12 
Q 38.796875 12 42.640625 16.046875 
Q 46.5 20.09375 46.5 26.90625 
Q 46.5 33.703125 42.640625 37.75 
Q 38.796875 41.796875 32.796875 41.796875 
Q 26.796875 41.796875 22.890625 37.75 
Q 19 33.703125 19 26.90625 
Q 19 20.09375 22.890625 16.046875 
Q 26.796875 12 32.796875 12 
z
" id="Montserrat-Bold-6f"/>
    <path d="M 39.90625 54.59375 
Q 49.90625 54.59375 56.046875 48.59375 
Q 62.203125 42.59375 62.203125 30.796875 
L 62.203125 0 
L 46.59375 0 
L 46.59375 28.40625 
Q 46.59375 34.796875 43.796875 37.9375 
Q 41 41.09375 35.703125 41.09375 
Q 29.796875 41.09375 26.296875 37.4375 
Q 22.796875 33.796875 22.796875 26.59375 
L 22.796875 0 
L 7.203125 0 
L 7.203125 74.203125 
L 22.796875 74.203125 
L 22.796875 48.203125 
Q 25.90625 51.296875 30.296875 52.9375 
Q 34.703125 54.59375 39.90625 54.59375 
z
" id="Montserrat-Bold-68"/>
    <path d="M 60.59375 53.796875 
L 36.296875 -3.296875 
Q 32.59375 -12.59375 27.140625 -16.390625 
Q 21.703125 -20.203125 14 -20.203125 
Q 9.796875 -20.203125 5.6875 -18.890625 
Q 1.59375 -17.59375 -1 -15.296875 
L 4.703125 -4.203125 
Q 6.5 -5.796875 8.84375 -6.6875 
Q 11.203125 -7.59375 13.5 -7.59375 
Q 16.703125 -7.59375 18.703125 -6.046875 
Q 20.703125 -4.5 22.296875 -0.90625 
L 22.5 -0.40625 
L -0.796875 53.796875 
L 15.296875 53.796875 
L 30.40625 17.296875 
L 45.59375 53.796875 
z
" id="Montserrat-Bold-79"/>
    <path d="M 42.203125 -1.203125 
Q 31.296875 -1.203125 22.546875 3.5 
Q 13.796875 8.203125 8.84375 16.453125 
Q 3.90625 24.703125 3.90625 35 
Q 3.90625 45.296875 8.84375 53.546875 
Q 13.796875 61.796875 22.546875 66.5 
Q 31.296875 71.203125 42.203125 71.203125 
Q 53.09375 71.203125 61.796875 66.5 
Q 70.5 61.796875 75.5 53.546875 
Q 80.5 45.296875 80.5 35 
Q 80.5 24.703125 75.5 16.453125 
Q 70.5 8.203125 61.796875 3.5 
Q 53.09375 -1.203125 42.203125 -1.203125 
z
M 42.203125 12.59375 
Q 48.40625 12.59375 53.40625 15.4375 
Q 58.40625 18.296875 61.25 23.390625 
Q 64.09375 28.5 64.09375 35 
Q 64.09375 41.5 61.25 46.59375 
Q 58.40625 51.703125 53.40625 54.546875 
Q 48.40625 57.40625 42.203125 57.40625 
Q 36 57.40625 31 54.546875 
Q 26 51.703125 23.140625 46.59375 
Q 20.296875 41.5 20.296875 35 
Q 20.296875 28.5 23.140625 23.390625 
Q 26 18.296875 31 15.4375 
Q 36 12.59375 42.203125 12.59375 
z
" id="Montserrat-Bold-4f"/>
    <path d="M 75.59375 70 
L 45.296875 0 
L 29.296875 0 
L -0.90625 70 
L 16.59375 70 
L 37.90625 20 
L 59.5 70 
z
" id="Montserrat-Bold-56"/>
    <path d="M 8.296875 70 
L 24.5 70 
L 24.5 0 
L 8.296875 0 
z
" id="Montserrat-Bold-49"/>
    <path d="M 8.296875 70 
L 40.09375 70 
Q 51.5 70 60.25 65.640625 
Q 69 61.296875 73.84375 53.390625 
Q 78.703125 45.5 78.703125 35 
Q 78.703125 24.5 73.84375 16.59375 
Q 69 8.703125 60.25 4.34375 
Q 51.5 0 40.09375 0 
L 8.296875 0 
z
M 39.296875 13.296875 
Q 49.796875 13.296875 56.046875 19.140625 
Q 62.296875 25 62.296875 35 
Q 62.296875 45 56.046875 50.84375 
Q 49.796875 56.703125 39.296875 56.703125 
L 24.5 56.703125 
L 24.5 13.296875 
z
" id="Montserrat-Bold-44"/>
    <path d="M 5.203125 34.40625 
L 33.5 34.40625 
L 33.5 21.90625 
L 5.203125 21.90625 
z
" id="Montserrat-Bold-2d"/>
    <path d="M 30.90625 70 
L 30.90625 0 
L 14.703125 0 
L 14.703125 57 
L 0.703125 57 
L 0.703125 70 
z
" id="Montserrat-Bold-31"/>
    <path d="M 28.5 71.203125 
Q 43.203125 71.203125 51.5 62.25 
Q 59.796875 53.296875 59.796875 36.5 
Q 59.796875 24.59375 55.34375 16.09375 
Q 50.90625 7.59375 42.796875 3.1875 
Q 34.703125 -1.203125 24.09375 -1.203125 
Q 18.5 -1.203125 13.390625 0.046875 
Q 8.296875 1.296875 4.703125 3.59375 
L 10.703125 15.5 
Q 15.796875 12 23.796875 12 
Q 32.703125 12 37.890625 17.25 
Q 43.09375 22.5 43.5 32.40625 
Q 37.203125 26.09375 26.09375 26.09375 
Q 19.40625 26.09375 13.90625 28.796875 
Q 8.40625 31.5 5.203125 36.453125 
Q 2 41.40625 2 47.90625 
Q 2 54.90625 5.5 60.203125 
Q 9 65.5 15.046875 68.34375 
Q 21.09375 71.203125 28.5 71.203125 
z
M 29.703125 38.203125 
Q 35 38.203125 38.34375 41.140625 
Q 41.703125 44.09375 41.703125 48.703125 
Q 41.703125 53.296875 38.453125 56.1875 
Q 35.203125 59.09375 29.5 59.09375 
Q 24.296875 59.09375 21.046875 56.296875 
Q 17.796875 53.5 17.796875 48.703125 
Q 17.796875 43.90625 21.046875 41.046875 
Q 24.296875 38.203125 29.703125 38.203125 
z
" id="Montserrat-Bold-39"/>
   </defs>
   <g style="fill:#222222;" transform="translate(54.388125 27.34155)scale(0.24 -0.24)">
    <use xlink:href="#Montserrat-Bold-43"/>
    <use x="73.299988" xlink:href="#Montserrat-Bold-75"/>
    <use x="141.999969" xlink:href="#Montserrat-Bold-72"/>
    <use x="185.09996" xlink:href="#Montserrat-Bold-61"/>
    <use x="246.799957" xlink:href="#Montserrat-Bold-74"/>
    <use x="290.299942" xlink:href="#Montserrat-Bold-69"/>
    <use x="320.399933" xlink:href="#Montserrat-Bold-76"/>
    <use x="380.199921" xlink:href="#Montserrat-Bold-65"/>
    <use x="443.299911" xlink:href="#Montserrat-Bold-20"/>
    <use x="471.599899" xlink:href="#Montserrat-Bold-62"/>
    <use x="540.599884" xlink:href="#Montserrat-Bold-65"/>
    <use x="603.699875" xlink:href="#Montserrat-Bold-64"/>
    <use x="672.899857" xlink:href="#Montserrat-Bold-73"/>
    <use x="725.999847" xlink:href="#Montserrat-Bold-20"/>
    <use x="754.299835" xlink:href="#Montserrat-Bold-69"/>
    <use x="784.399826" xlink:href="#Montserrat-Bold-6e"/>
    <use x="853.499817" xlink:href="#Montserrat-Bold-20"/>
    <use x="881.799805" xlink:href="#Montserrat-Bold-45"/>
    <use x="948.899796" xlink:href="#Montserrat-Bold-55"/>
    <use x="1027.699783" xlink:href="#Montserrat-Bold-20"/>
    <use x="1055.999771" xlink:href="#Montserrat-Bold-63"/>
    <use x="1115.099762" xlink:href="#Montserrat-Bold-6f"/>
    <use x="1180.599747" xlink:href="#Montserrat-Bold-75"/>
    <use x="1249.299728" xlink:href="#Montserrat-Bold-6e"/>
    <use x="1318.399719" xlink:href="#Montserrat-Bold-74"/>
    <use x="1361.899704" xlink:href="#Montserrat-Bold-72"/>
    <use x="1404.999695" xlink:href="#Montserrat-Bold-69"/>
    <use x="1435.099686" xlink:href="#Montserrat-Bold-65"/>
    <use x="1498.199677" xlink:href="#Montserrat-Bold-73"/>
    <use x="1551.299667" xlink:href="#Montserrat-Bold-20"/>
    <use x="1579.599655" xlink:href="#Montserrat-Bold-68"/>
    <use x="1648.699646" xlink:href="#Montserrat-Bold-69"/>
    <use x="1678.799637" xlink:href="#Montserrat-Bold-74"/>
    <use x="1722.299622" xlink:href="#Montserrat-Bold-20"/>
    <use x="1750.599609" xlink:href="#Montserrat-Bold-62"/>
    <use x="1819.599594" xlink:href="#Montserrat-Bold-79"/>
    <use x="1879.399582" xlink:href="#Montserrat-Bold-20"/>
    <use x="1907.69957" xlink:href="#Montserrat-Bold-43"/>
    <use x="1980.999557" xlink:href="#Montserrat-Bold-4f"/>
    <use x="2065.399551" xlink:href="#Montserrat-Bold-56"/>
    <use x="2139.999542" xlink:href="#Montserrat-Bold-49"/>
    <use x="2172.79953" xlink:href="#Montserrat-Bold-44"/>
    <use x="2255.399521" xlink:href="#Montserrat-Bold-2d"/>
    <use x="2293.999512" xlink:href="#Montserrat-Bold-31"/>
    <use x="2333.199509" xlink:href="#Montserrat-Bold-39"/>
   </g>
  </g>
  <g id="text_21">
   <!-- Source: Eurostat (hlth_rs_bds) -->
   <defs>
    <path d="M 31.40625 -0.5 
Q 23.796875 -0.5 17.6875 2.953125 
Q 11.59375 6.40625 8.09375 12.5 
Q 4.59375 18.59375 4.59375 26.296875 
Q 4.59375 34 8.09375 40.09375 
Q 11.59375 46.203125 17.6875 49.59375 
Q 23.796875 53 31.40625 53 
Q 39 53 45.09375 49.59375 
Q 51.203125 46.203125 54.640625 40.09375 
Q 58.09375 34 58.09375 26.296875 
Q 58.09375 18.59375 54.640625 12.5 
Q 51.203125 6.40625 45.09375 2.953125 
Q 39 -0.5 31.40625 -0.5 
z
M 31.40625 5.796875 
Q 37 5.796875 41.453125 8.34375 
Q 45.90625 10.90625 48.40625 15.59375 
Q 50.90625 20.296875 50.90625 26.296875 
Q 50.90625 32.296875 48.40625 37 
Q 45.90625 41.703125 41.453125 44.25 
Q 37 46.796875 31.40625 46.796875 
Q 25.796875 46.796875 21.34375 44.25 
Q 16.90625 41.703125 14.34375 37 
Q 11.796875 32.296875 11.796875 26.296875 
Q 11.796875 20.296875 14.34375 15.59375 
Q 16.90625 10.90625 21.34375 8.34375 
Q 25.796875 5.796875 31.40625 5.796875 
z
" id="Montserrat-Regular-6f"/>
    <path d="M 57.296875 52.59375 
L 57.296875 0 
L 50.5 0 
L 50.5 9.59375 
Q 47.703125 4.796875 42.796875 2.140625 
Q 37.90625 -0.5 31.59375 -0.5 
Q 21.296875 -0.5 15.34375 5.25 
Q 9.40625 11 9.40625 22.09375 
L 9.40625 52.59375 
L 16.5 52.59375 
L 16.5 22.796875 
Q 16.5 14.5 20.59375 10.203125 
Q 24.703125 5.90625 32.296875 5.90625 
Q 40.59375 5.90625 45.390625 10.953125 
Q 50.203125 16 50.203125 25 
L 50.203125 52.59375 
z
" id="Montserrat-Regular-75"/>
    <path d="M 10.59375 42.5 
Q 8.40625 42.5 6.84375 44.09375 
Q 5.296875 45.703125 5.296875 48 
Q 5.296875 50.296875 6.84375 51.84375 
Q 8.40625 53.40625 10.59375 53.40625 
Q 12.796875 53.40625 14.390625 51.84375 
Q 16 50.296875 16 48 
Q 16 45.703125 14.390625 44.09375 
Q 12.796875 42.5 10.59375 42.5 
z
M 10.59375 -0.5 
Q 8.40625 -0.5 6.84375 1.09375 
Q 5.296875 2.703125 5.296875 5 
Q 5.296875 7.296875 6.84375 8.84375 
Q 8.40625 10.40625 10.59375 10.40625 
Q 12.796875 10.40625 14.390625 8.84375 
Q 16 7.296875 16 5 
Q 16 2.703125 14.390625 1.09375 
Q 12.796875 -0.5 10.59375 -0.5 
z
" id="Montserrat-Regular-3a"/>
    <path d="M 60.90625 6.40625 
L 60.90625 0 
L 11.40625 0 
L 11.40625 70 
L 59.40625 70 
L 59.40625 63.59375 
L 18.796875 63.59375 
L 18.796875 38.703125 
L 55 38.703125 
L 55 32.40625 
L 18.796875 32.40625 
L 18.796875 6.40625 
z
" id="Montserrat-Regular-45"/>
    <path d="M 22 -19.40625 
Q 16.40625 -10.203125 13.40625 1.75 
Q 10.40625 13.703125 10.40625 27.40625 
Q 10.40625 41.09375 13.40625 53.140625 
Q 16.40625 65.203125 22 74.203125 
L 28.796875 74.203125 
Q 22.90625 64.09375 20.15625 52.5 
Q 17.40625 40.90625 17.40625 27.40625 
Q 17.40625 13.90625 20.15625 2.296875 
Q 22.90625 -9.296875 28.796875 -19.40625 
L 22 -19.40625 
z
" id="Montserrat-Regular-28"/>
    <path d="M 0 0 
L 50 0 
L 50 -4.796875 
L 0 -4.796875 
z
" id="Montserrat-Regular-5f"/>
    <path d="M 4 -19.40625 
Q 9.90625 -9.296875 12.703125 2.25 
Q 15.5 13.796875 15.5 27.40625 
Q 15.5 41 12.703125 52.546875 
Q 9.90625 64.09375 4 74.203125 
L 10.796875 74.203125 
Q 16.40625 65.203125 19.453125 53.140625 
Q 22.5 41.09375 22.5 27.40625 
Q 22.5 13.703125 19.5 1.703125 
Q 16.5 -10.296875 10.796875 -19.40625 
z
" id="Montserrat-Regular-29"/>
   </defs>
   <g style="fill:#222222;" transform="translate(498.33375 418.4136)scale(0.12 -0.12)">
    <use xlink:href="#Montserrat-Regular-53"/>
    <use x="61.499985" xlink:href="#Montserrat-Regular-6f"/>
    <use x="124.199982" xlink:href="#Montserrat-Regular-75"/>
    <use x="191.499969" xlink:href="#Montserrat-Regular-72"/>
    <use x="231.59996" xlink:href="#Montserrat-Regular-63"/>
    <use x="287.899948" xlink:href="#Montserrat-Regular-65"/>
    <use x="348.299942" xlink:href="#Montserrat-Regular-3a"/>
    <use x="369.499939" xlink:href="#Montserrat-Regular-20"/>
    <use x="395.699936" xlink:href="#Montserrat-Regular-45"/>
    <use x="462.59993" xlink:href="#Montserrat-Regular-75"/>
    <use x="529.899918" xlink:href="#Montserrat-Regular-72"/>
    <use x="569.999908" xlink:href="#Montserrat-Regular-6f"/>
    <use x="632.699905" xlink:href="#Montserrat-Regular-73"/>
    <use x="681.599899" xlink:href="#Montserrat-Regular-74"/>
    <use x="722.19989" xlink:href="#Montserrat-Regular-61"/>
    <use x="781.199875" xlink:href="#Montserrat-Regular-74"/>
    <use x="821.799866" xlink:href="#Montserrat-Regular-20"/>
    <use x="847.999863" xlink:href="#Montserrat-Regular-28"/>
    <use x="880.899857" xlink:href="#Montserrat-Regular-68"/>
    <use x="948.599838" xlink:href="#Montserrat-Regular-6c"/>
    <use x="975.499832" xlink:href="#Montserrat-Regular-74"/>
    <use x="1016.099823" xlink:href="#Montserrat-Regular-68"/>
    <use x="1083.799805" xlink:href="#Montserrat-Regular-5f"/>
    <use x="1133.799789" xlink:href="#Montserrat-Regular-72"/>
    <use x="1173.89978" xlink:href="#Montserrat-Regular-73"/>
    <use x="1222.799774" xlink:href="#Montserrat-Regular-5f"/>
    <use x="1272.799759" xlink:href="#Montserrat-Regular-62"/>
    <use x="1340.599747" xlink:href="#Montserrat-Regular-64"/>
    <use x="1408.399734" xlink:href="#Montserrat-Regular-73"/>
    <use x="1457.299728" xlink:href="#Montserrat-Regular-29"/>
   </g>
  </g>
 </g>
 <defs>
  <clipPath id="p5f7c56ac85">
   <rect height="343.64" width="584.44" x="72.62" y="26.94"/>
  </clipPath>
 </defs>
</svg>
