<?xml version="1.0" encoding="utf-8" standalone="no"?>
<!DOCTYPE svg PUBLIC "-//W3C//DTD SVG 1.1//EN"
  "http://www.w3.org/Graphics/SVG/1.1/DTD/svg11.dtd">
<!-- Created with matplotlib (http://matplotlib.org/) -->
<svg height="422.64pt" version="1.1" viewBox="0 0 684 422.64" width="684pt" xmlns="http://www.w3.org/2000/svg" xmlns:xlink="http://www.w3.org/1999/xlink">
 <defs>
  <style type="text/css">
*{stroke-linecap:butt;stroke-linejoin:round;}
  </style>
 </defs>
 <g id="figure_1">
  <g id="patch_1">
   <path d="M 0 422.64 
L 684 422.64 
L 684 0 
L 0 0 
z
" style="fill:#ffffff;"/>
  </g>
  <g id="axes_1">
   <g id="patch_2">
    <path d="M 52.64 377.08 
L 645.164634 377.08 
L 645.164634 26.94 
L 52.64 26.94 
z
" style="fill:#ffffff;"/>
   </g>
   <g id="matplotlib.axis_1">
    <g id="xtick_1">
     <g id="line2d_1"/>
     <g id="text_1">
      <!-- 2008 -->
      <defs>
       <path d="M 53 6.40625 
L 53 0 
L 3.90625 0 
L 3.90625 5.09375 
L 33 33.59375 
Q 38.5 39 40.453125 42.953125 
Q 42.40625 46.90625 42.40625 50.90625 
Q 42.40625 57.09375 38.15625 60.546875 
Q 33.90625 64 26 64 
Q 13.703125 64 6.90625 56.203125 
L 1.796875 60.59375 
Q 5.90625 65.40625 12.25 68 
Q 18.59375 70.59375 26.59375 70.59375 
Q 37.296875 70.59375 43.546875 65.546875 
Q 49.796875 60.5 49.796875 51.703125 
Q 49.796875 46.296875 47.390625 41.296875 
Q 45 36.296875 38.296875 29.796875 
L 14.5 6.40625 
z
" id="Montserrat-Regular-32"/>
       <path d="M 33.09375 -0.59375 
Q 25 -0.59375 18.640625 3.703125 
Q 12.296875 8 8.75 16.046875 
Q 5.203125 24.09375 5.203125 35 
Q 5.203125 45.90625 8.75 53.953125 
Q 12.296875 62 18.640625 66.296875 
Q 25 70.59375 33.09375 70.59375 
Q 41.203125 70.59375 47.546875 66.296875 
Q 53.90625 62 57.5 53.953125 
Q 61.09375 45.90625 61.09375 35 
Q 61.09375 24.09375 57.5 16.046875 
Q 53.90625 8 47.546875 3.703125 
Q 41.203125 -0.59375 33.09375 -0.59375 
z
M 33.09375 6 
Q 39.203125 6 43.84375 9.390625 
Q 48.5 12.796875 51.09375 19.296875 
Q 53.703125 25.796875 53.703125 35 
Q 53.703125 44.203125 51.09375 50.703125 
Q 48.5 57.203125 43.84375 60.59375 
Q 39.203125 64 33.09375 64 
Q 27 64 22.34375 60.59375 
Q 17.703125 57.203125 15.09375 50.703125 
Q 12.5 44.203125 12.5 35 
Q 12.5 25.796875 15.09375 19.296875 
Q 17.703125 12.796875 22.34375 9.390625 
Q 27 6 33.09375 6 
z
" id="Montserrat-Regular-30"/>
       <path d="M 45.296875 36.703125 
Q 51.90625 34.5 55.453125 30.09375 
Q 59 25.703125 59 19.5 
Q 59 13.40625 55.703125 8.84375 
Q 52.40625 4.296875 46.25 1.84375 
Q 40.09375 -0.59375 31.796875 -0.59375 
Q 19.203125 -0.59375 12 4.796875 
Q 4.796875 10.203125 4.796875 19.5 
Q 4.796875 25.796875 8.25 30.140625 
Q 11.703125 34.5 18.296875 36.703125 
Q 12.90625 38.796875 10.09375 42.75 
Q 7.296875 46.703125 7.296875 52.09375 
Q 7.296875 60.59375 13.9375 65.59375 
Q 20.59375 70.59375 31.796875 70.59375 
Q 39.203125 70.59375 44.75 68.34375 
Q 50.296875 66.09375 53.390625 61.890625 
Q 56.5 57.703125 56.5 52.09375 
Q 56.5 46.703125 53.59375 42.75 
Q 50.703125 38.796875 45.296875 36.703125 
z
M 14.5 51.90625 
Q 14.5 46.09375 19.09375 42.6875 
Q 23.703125 39.296875 31.796875 39.296875 
Q 39.90625 39.296875 44.546875 42.6875 
Q 49.203125 46.09375 49.203125 51.796875 
Q 49.203125 57.703125 44.453125 61.09375 
Q 39.703125 64.5 31.796875 64.5 
Q 23.796875 64.5 19.140625 61.09375 
Q 14.5 57.703125 14.5 51.90625 
z
M 31.796875 5.5 
Q 41.09375 5.5 46.34375 9.296875 
Q 51.59375 13.09375 51.59375 19.59375 
Q 51.59375 26.09375 46.34375 29.84375 
Q 41.09375 33.59375 31.796875 33.59375 
Q 22.59375 33.59375 17.34375 29.84375 
Q 12.09375 26.09375 12.09375 19.59375 
Q 12.09375 13 17.296875 9.25 
Q 22.5 5.5 31.796875 5.5 
z
" id="Montserrat-Regular-38"/>
      </defs>
      <g style="fill:#222222;" transform="translate(37.09591 393.936562)scale(0.18 -0.18)">
       <use xlink:href="#Montserrat-Regular-32"/>
       <use x="56.799988" xlink:href="#Montserrat-Regular-30"/>
       <use x="122.999985" xlink:href="#Montserrat-Regular-30"/>
       <use x="189.199982" xlink:href="#Montserrat-Regular-38"/>
      </g>
     </g>
    </g>
    <g id="xtick_2">
     <g id="line2d_2"/>
     <g id="text_2">
      <!-- 2009 -->
      <defs>
       <path d="M 27 70.59375 
Q 40.90625 70.59375 48.296875 61.4375 
Q 55.703125 52.296875 55.703125 35.59375 
Q 55.703125 23.90625 51.703125 15.796875 
Q 47.703125 7.703125 40.5 3.546875 
Q 33.296875 -0.59375 23.703125 -0.59375 
Q 13.296875 -0.59375 7.09375 3.203125 
L 10 9 
Q 15 5.703125 23.59375 5.703125 
Q 35.203125 5.703125 41.796875 13.046875 
Q 48.40625 20.40625 48.40625 34.40625 
Q 48.40625 37 48.09375 40.09375 
Q 45.5 34.40625 39.796875 31.25 
Q 34.09375 28.09375 26.703125 28.09375 
Q 19.796875 28.09375 14.4375 30.6875 
Q 9.09375 33.296875 6.09375 38.046875 
Q 3.09375 42.796875 3.09375 49.09375 
Q 3.09375 55.5 6.1875 60.390625 
Q 9.296875 65.296875 14.75 67.9375 
Q 20.203125 70.59375 27 70.59375 
z
M 27.796875 34.203125 
Q 33.09375 34.203125 37.140625 36.203125 
Q 41.203125 38.203125 43.5 41.703125 
Q 45.796875 45.203125 45.796875 49.5 
Q 45.796875 53.5 43.640625 56.890625 
Q 41.5 60.296875 37.296875 62.390625 
Q 33.09375 64.5 27.296875 64.5 
Q 19.703125 64.5 14.953125 60.34375 
Q 10.203125 56.203125 10.203125 49.296875 
Q 10.203125 42.40625 14.953125 38.296875 
Q 19.703125 34.203125 27.796875 34.203125 
z
" id="Montserrat-Regular-39"/>
      </defs>
      <g style="fill:#222222;" transform="translate(109.615168 393.936562)scale(0.18 -0.18)">
       <use xlink:href="#Montserrat-Regular-32"/>
       <use x="56.799988" xlink:href="#Montserrat-Regular-30"/>
       <use x="122.999985" xlink:href="#Montserrat-Regular-30"/>
       <use x="189.199982" xlink:href="#Montserrat-Regular-39"/>
      </g>
     </g>
    </g>
    <g id="xtick_3">
     <g id="line2d_3"/>
     <g id="text_3">
      <!-- 2010 -->
      <defs>
       <path d="M 24.59375 70 
L 24.59375 0 
L 17.40625 0 
L 17.40625 63.59375 
L 0.90625 63.59375 
L 0.90625 70 
z
" id="Montserrat-Regular-31"/>
      </defs>
      <g style="fill:#222222;" transform="translate(184.107395 393.936562)scale(0.18 -0.18)">
       <use xlink:href="#Montserrat-Regular-32"/>
       <use x="56.799988" xlink:href="#Montserrat-Regular-30"/>
       <use x="122.999985" xlink:href="#Montserrat-Regular-31"/>
       <use x="159.099976" xlink:href="#Montserrat-Regular-30"/>
      </g>
     </g>
    </g>
    <g id="xtick_4">
     <g id="line2d_4"/>
     <g id="text_4">
      <!-- 2011 -->
      <g style="fill:#222222;" transform="translate(259.07634 393.936562)scale(0.18 -0.18)">
       <use xlink:href="#Montserrat-Regular-32"/>
       <use x="56.799988" xlink:href="#Montserrat-Regular-30"/>
       <use x="122.999985" xlink:href="#Montserrat-Regular-31"/>
       <use x="159.099976" xlink:href="#Montserrat-Regular-31"/>
      </g>
     </g>
    </g>
    <g id="xtick_5">
     <g id="line2d_5"/>
     <g id="text_5">
      <!-- 2012 -->
      <g style="fill:#222222;" transform="translate(329.472161 393.936562)scale(0.18 -0.18)">
       <use xlink:href="#Montserrat-Regular-32"/>
       <use x="56.799988" xlink:href="#Montserrat-Regular-30"/>
       <use x="122.999985" xlink:href="#Montserrat-Regular-31"/>
       <use x="159.099976" xlink:href="#Montserrat-Regular-32"/>
      </g>
     </g>
    </g>
    <g id="xtick_6">
     <g id="line2d_6"/>
     <g id="text_6">
      <!-- 2013 -->
      <defs>
       <path d="M 29 40 
Q 40 39.40625 45.75 34.046875 
Q 51.5 28.703125 51.5 20.09375 
Q 51.5 14.09375 48.59375 9.4375 
Q 45.703125 4.796875 40 2.09375 
Q 34.296875 -0.59375 26.09375 -0.59375 
Q 18.5 -0.59375 11.75 1.84375 
Q 5 4.296875 0.90625 8.40625 
L 4.40625 14.09375 
Q 7.90625 10.5 13.703125 8.25 
Q 19.5 6 26.09375 6 
Q 34.703125 6 39.390625 9.75 
Q 44.09375 13.5 44.09375 20.09375 
Q 44.09375 26.59375 39.390625 30.296875 
Q 34.703125 34 25.203125 34 
L 20.203125 34 
L 20.203125 39.296875 
L 39.59375 63.59375 
L 3.796875 63.59375 
L 3.796875 70 
L 48.796875 70 
L 48.796875 64.90625 
L 29 40 
z
" id="Montserrat-Regular-33"/>
      </defs>
      <g style="fill:#222222;" transform="translate(401.766419 393.936562)scale(0.18 -0.18)">
       <use xlink:href="#Montserrat-Regular-32"/>
       <use x="56.799988" xlink:href="#Montserrat-Regular-30"/>
       <use x="122.999985" xlink:href="#Montserrat-Regular-31"/>
       <use x="159.099976" xlink:href="#Montserrat-Regular-33"/>
      </g>
     </g>
    </g>
    <g id="xtick_7">
     <g id="line2d_7"/>
     <g id="text_7">
      <!-- 2014 -->
      <defs>
       <path d="M 64.703125 18.40625 
L 50.703125 18.40625 
L 50.703125 0 
L 43.5 0 
L 43.5 18.40625 
L 4 18.40625 
L 4 23.59375 
L 41.09375 70 
L 49.09375 70 
L 13.296875 24.796875 
L 43.703125 24.796875 
L 43.703125 41 
L 50.703125 41 
L 50.703125 24.796875 
L 64.703125 24.796875 
z
" id="Montserrat-Regular-34"/>
      </defs>
      <g style="fill:#222222;" transform="translate(473.153646 393.936562)scale(0.18 -0.18)">
       <use xlink:href="#Montserrat-Regular-32"/>
       <use x="56.799988" xlink:href="#Montserrat-Regular-30"/>
       <use x="122.999985" xlink:href="#Montserrat-Regular-31"/>
       <use x="159.099976" xlink:href="#Montserrat-Regular-34"/>
      </g>
     </g>
    </g>
    <g id="xtick_8">
     <g id="line2d_8"/>
     <g id="text_8">
      <!-- 2015 -->
      <defs>
       <path d="M 23.59375 41.296875 
Q 38.796875 41.296875 45.75 35.84375 
Q 52.703125 30.40625 52.703125 20.59375 
Q 52.703125 14.5 49.84375 9.703125 
Q 47 4.90625 41.296875 2.15625 
Q 35.59375 -0.59375 27.296875 -0.59375 
Q 19.796875 -0.59375 13.046875 1.84375 
Q 6.296875 4.296875 2.203125 8.40625 
L 5.703125 14.09375 
Q 9.203125 10.5 14.890625 8.25 
Q 20.59375 6 27.203125 6 
Q 35.90625 6 40.65625 9.890625 
Q 45.40625 13.796875 45.40625 20.296875 
Q 45.40625 27.5 40.046875 31.203125 
Q 34.703125 34.90625 22 34.90625 
L 7.09375 34.90625 
L 10.703125 70 
L 49 70 
L 49 63.59375 
L 17 63.59375 
L 14.59375 41.296875 
L 23.59375 41.296875 
z
" id="Montserrat-Regular-35"/>
      </defs>
      <g style="fill:#222222;" transform="translate(546.267747 393.936562)scale(0.18 -0.18)">
       <use xlink:href="#Montserrat-Regular-32"/>
       <use x="56.799988" xlink:href="#Montserrat-Regular-30"/>
       <use x="122.999985" xlink:href="#Montserrat-Regular-31"/>
       <use x="159.099976" xlink:href="#Montserrat-Regular-35"/>
      </g>
     </g>
    </g>
    <g id="xtick_9">
     <g id="line2d_9"/>
     <g id="text_9">
      <!-- 2016 -->
      <defs>
       <path d="M 34.203125 41.90625 
Q 41.09375 41.90625 46.4375 39.296875 
Q 51.796875 36.703125 54.796875 31.953125 
Q 57.796875 27.203125 57.796875 20.90625 
Q 57.796875 14.5 54.6875 9.59375 
Q 51.59375 4.703125 46.140625 2.046875 
Q 40.703125 -0.59375 33.90625 -0.59375 
Q 20 -0.59375 12.59375 8.546875 
Q 5.203125 17.703125 5.203125 34.40625 
Q 5.203125 46.09375 9.203125 54.1875 
Q 13.203125 62.296875 20.390625 66.4375 
Q 27.59375 70.59375 37.203125 70.59375 
Q 47.59375 70.59375 53.796875 66.796875 
L 50.90625 61 
Q 45.90625 64.296875 37.296875 64.296875 
Q 25.703125 64.296875 19.09375 56.9375 
Q 12.5 49.59375 12.5 35.59375 
Q 12.5 33.09375 12.796875 29.90625 
Q 15.40625 35.59375 21.09375 38.75 
Q 26.796875 41.90625 34.203125 41.90625 
z
M 33.59375 5.5 
Q 41.203125 5.5 45.953125 9.640625 
Q 50.703125 13.796875 50.703125 20.703125 
Q 50.703125 27.59375 45.953125 31.6875 
Q 41.203125 35.796875 33.09375 35.796875 
Q 27.796875 35.796875 23.75 33.796875 
Q 19.703125 31.796875 17.390625 28.296875 
Q 15.09375 24.796875 15.09375 20.5 
Q 15.09375 16.5 17.25 13.09375 
Q 19.40625 9.703125 23.59375 7.59375 
Q 27.796875 5.5 33.59375 5.5 
z
" id="Montserrat-Regular-36"/>
      </defs>
      <g style="fill:#222222;" transform="translate(618.138724 393.936562)scale(0.18 -0.18)">
       <use xlink:href="#Montserrat-Regular-32"/>
       <use x="56.799988" xlink:href="#Montserrat-Regular-30"/>
       <use x="122.999985" xlink:href="#Montserrat-Regular-31"/>
       <use x="159.099976" xlink:href="#Montserrat-Regular-36"/>
      </g>
     </g>
    </g>
   </g>
   <g id="matplotlib.axis_2">
    <g id="ytick_1">
     <g id="line2d_10">
      <path clip-path="url(#p5765f125be)" d="M 52.64 346.374964 
L 645.164634 346.374964 
" style="fill:none;stroke:#cbcbcb;stroke-linecap:square;stroke-width:0.8;"/>
     </g>
     <g id="line2d_11"/>
     <g id="text_10">
      <!-- 1.4 -->
      <defs>
       <path d="M 10.59375 -0.5 
Q 8.40625 -0.5 6.84375 1.09375 
Q 5.296875 2.703125 5.296875 5 
Q 5.296875 7.296875 6.84375 8.84375 
Q 8.40625 10.40625 10.59375 10.40625 
Q 12.796875 10.40625 14.390625 8.84375 
Q 16 7.296875 16 5 
Q 16 2.703125 14.390625 1.09375 
Q 12.796875 -0.5 10.59375 -0.5 
z
" id="Montserrat-Regular-2e"/>
      </defs>
      <g style="fill:#222222;" transform="translate(25.429688 353.053246)scale(0.18 -0.18)">
       <use xlink:href="#Montserrat-Regular-31"/>
       <use x="36.099991" xlink:href="#Montserrat-Regular-2e"/>
       <use x="57.299988" xlink:href="#Montserrat-Regular-34"/>
      </g>
     </g>
    </g>
    <g id="ytick_2">
     <g id="line2d_12">
      <path clip-path="url(#p5765f125be)" d="M 52.64 291.746782 
L 645.164634 291.746782 
" style="fill:none;stroke:#cbcbcb;stroke-linecap:square;stroke-width:0.8;"/>
     </g>
     <g id="line2d_13"/>
     <g id="text_11">
      <!-- 1.5 -->
      <g style="fill:#222222;" transform="translate(27.139688 298.425063)scale(0.18 -0.18)">
       <use xlink:href="#Montserrat-Regular-31"/>
       <use x="36.099991" xlink:href="#Montserrat-Regular-2e"/>
       <use x="57.299988" xlink:href="#Montserrat-Regular-35"/>
      </g>
     </g>
    </g>
    <g id="ytick_3">
     <g id="line2d_14">
      <path clip-path="url(#p5765f125be)" d="M 52.64 237.1186 
L 645.164634 237.1186 
" style="fill:none;stroke:#cbcbcb;stroke-linecap:square;stroke-width:0.8;"/>
     </g>
     <g id="line2d_15"/>
     <g id="text_12">
      <!-- 1.6 -->
      <g style="fill:#222222;" transform="translate(26.363437 243.796881)scale(0.18 -0.18)">
       <use xlink:href="#Montserrat-Regular-31"/>
       <use x="36.099991" xlink:href="#Montserrat-Regular-2e"/>
       <use x="57.299988" xlink:href="#Montserrat-Regular-36"/>
      </g>
     </g>
    </g>
    <g id="ytick_4">
     <g id="line2d_16">
      <path clip-path="url(#p5765f125be)" d="M 52.64 182.490418 
L 645.164634 182.490418 
" style="fill:none;stroke:#cbcbcb;stroke-linecap:square;stroke-width:0.8;"/>
     </g>
     <g id="line2d_17"/>
     <g id="text_13">
      <!-- 1.7 -->
      <defs>
       <path d="M 54.59375 70 
L 54.59375 64.90625 
L 25.296875 0 
L 17.5 0 
L 46.296875 63.59375 
L 10.296875 63.59375 
L 10.296875 50.5 
L 3.203125 50.5 
L 3.203125 70 
z
" id="Montserrat-Regular-37"/>
      </defs>
      <g style="fill:#222222;" transform="translate(26.723438 189.168699)scale(0.18 -0.18)">
       <use xlink:href="#Montserrat-Regular-31"/>
       <use x="36.099991" xlink:href="#Montserrat-Regular-2e"/>
       <use x="57.299988" xlink:href="#Montserrat-Regular-37"/>
      </g>
     </g>
    </g>
    <g id="ytick_5">
     <g id="line2d_18">
      <path clip-path="url(#p5765f125be)" d="M 52.64 127.862236 
L 645.164634 127.862236 
" style="fill:none;stroke:#cbcbcb;stroke-linecap:square;stroke-width:0.8;"/>
     </g>
     <g id="line2d_19"/>
     <g id="text_14">
      <!-- 1.8 -->
      <g style="fill:#222222;" transform="translate(25.843125 134.540517)scale(0.18 -0.18)">
       <use xlink:href="#Montserrat-Regular-31"/>
       <use x="36.099991" xlink:href="#Montserrat-Regular-2e"/>
       <use x="57.299988" xlink:href="#Montserrat-Regular-38"/>
      </g>
     </g>
    </g>
    <g id="ytick_6">
     <g id="line2d_20">
      <path clip-path="url(#p5765f125be)" d="M 52.64 73.234053 
L 645.164634 73.234053 
" style="fill:none;stroke:#cbcbcb;stroke-linecap:square;stroke-width:0.8;"/>
     </g>
     <g id="line2d_21"/>
     <g id="text_15">
      <!-- 1.9 -->
      <g style="fill:#222222;" transform="translate(26.363437 79.912335)scale(0.18 -0.18)">
       <use xlink:href="#Montserrat-Regular-31"/>
       <use x="36.099991" xlink:href="#Montserrat-Regular-2e"/>
       <use x="57.299988" xlink:href="#Montserrat-Regular-39"/>
      </g>
     </g>
    </g>
   </g>
   <g id="line2d_22">
    <path clip-path="url(#p5765f125be)" d="M 59.86591 42.855455 
L 132.125012 177.0276 
L 204.384114 174.895768 
L 276.643215 211.270143 
L 348.902317 220.463666 
L 421.161419 304.80425 
L 493.420521 289.74819 
L 565.679622 325.989326 
L 637.938724 361.164545 
" style="fill:none;stroke:#990000;stroke-linecap:square;stroke-width:3;"/>
    <defs>
     <path d="M 0 5 
C 1.326016 5 2.597899 4.473168 3.535534 3.535534 
C 4.473168 2.597899 5 1.326016 5 0 
C 5 -1.326016 4.473168 -2.597899 3.535534 -3.535534 
C 2.597899 -4.473168 1.326016 -5 0 -5 
C -1.326016 -5 -2.597899 -4.473168 -3.535534 -3.535534 
C -4.473168 -2.597899 -5 -1.326016 -5 0 
C -5 1.326016 -4.473168 2.597899 -3.535534 3.535534 
C -2.597899 4.473168 -1.326016 5 0 5 
z
" id="m172f28a7ab" style="stroke:#990000;"/>
    </defs>
    <g clip-path="url(#p5765f125be)">
     <use style="fill:#990000;stroke:#990000;" x="59.86591" xlink:href="#m172f28a7ab" y="42.855455"/>
     <use style="fill:#990000;stroke:#990000;" x="132.125012" xlink:href="#m172f28a7ab" y="177.0276"/>
     <use style="fill:#990000;stroke:#990000;" x="204.384114" xlink:href="#m172f28a7ab" y="174.895768"/>
     <use style="fill:#990000;stroke:#990000;" x="276.643215" xlink:href="#m172f28a7ab" y="211.270143"/>
     <use style="fill:#990000;stroke:#990000;" x="348.902317" xlink:href="#m172f28a7ab" y="220.463666"/>
     <use style="fill:#990000;stroke:#990000;" x="421.161419" xlink:href="#m172f28a7ab" y="304.80425"/>
     <use style="fill:#990000;stroke:#990000;" x="493.420521" xlink:href="#m172f28a7ab" y="289.74819"/>
     <use style="fill:#990000;stroke:#990000;" x="565.679622" xlink:href="#m172f28a7ab" y="325.989326"/>
     <use style="fill:#990000;stroke:#990000;" x="637.938724" xlink:href="#m172f28a7ab" y="361.164545"/>
    </g>
   </g>
   <g id="text_16">
    <!-- Offenses per 100 000 inhabitants -->
    <defs>
     <path d="M 42 -0.59375 
Q 31.59375 -0.59375 23.140625 4.046875 
Q 14.703125 8.703125 9.953125 16.796875 
Q 5.203125 24.90625 5.203125 35 
Q 5.203125 45.09375 9.953125 53.1875 
Q 14.703125 61.296875 23.140625 65.9375 
Q 31.59375 70.59375 42 70.59375 
Q 52.40625 70.59375 60.75 66 
Q 69.09375 61.40625 73.890625 53.25 
Q 78.703125 45.09375 78.703125 35 
Q 78.703125 24.90625 73.890625 16.75 
Q 69.09375 8.59375 60.75 4 
Q 52.40625 -0.59375 42 -0.59375 
z
M 42 6 
Q 50.296875 6 57 9.75 
Q 63.703125 13.5 67.5 20.140625 
Q 71.296875 26.796875 71.296875 35 
Q 71.296875 43.203125 67.5 49.84375 
Q 63.703125 56.5 57 60.25 
Q 50.296875 64 42 64 
Q 33.703125 64 26.953125 60.25 
Q 20.203125 56.5 16.34375 49.84375 
Q 12.5 43.203125 12.5 35 
Q 12.5 26.796875 16.34375 20.140625 
Q 20.203125 13.5 26.953125 9.75 
Q 33.703125 6 42 6 
z
" id="Montserrat-Regular-4f"/>
     <path d="M 27.296875 68.703125 
Q 22.703125 68.703125 20.34375 66.203125 
Q 18 63.703125 18 58.796875 
L 18 52.59375 
L 34.203125 52.59375 
L 34.203125 46.59375 
L 18.203125 46.59375 
L 18.203125 0 
L 11.09375 0 
L 11.09375 46.59375 
L 1.703125 46.59375 
L 1.703125 52.59375 
L 11.09375 52.59375 
L 11.09375 59.09375 
Q 11.09375 66.296875 15.25 70.5 
Q 19.40625 74.703125 27 74.703125 
Q 30 74.703125 32.796875 73.84375 
Q 35.59375 73 37.5 71.40625 
L 35.09375 66.09375 
Q 32 68.703125 27.296875 68.703125 
z
" id="Montserrat-Regular-66"/>
     <path d="M 55.703125 24.09375 
L 11.703125 24.09375 
Q 12.296875 15.90625 18 10.84375 
Q 23.703125 5.796875 32.40625 5.796875 
Q 37.296875 5.796875 41.390625 7.546875 
Q 45.5 9.296875 48.5 12.703125 
L 52.5 8.09375 
Q 49 3.90625 43.75 1.703125 
Q 38.5 -0.5 32.203125 -0.5 
Q 24.09375 -0.5 17.84375 2.953125 
Q 11.59375 6.40625 8.09375 12.5 
Q 4.59375 18.59375 4.59375 26.296875 
Q 4.59375 34 7.9375 40.09375 
Q 11.296875 46.203125 17.140625 49.59375 
Q 23 53 30.296875 53 
Q 37.59375 53 43.390625 49.59375 
Q 49.203125 46.203125 52.5 40.140625 
Q 55.796875 34.09375 55.796875 26.296875 
z
M 30.296875 46.90625 
Q 22.703125 46.90625 17.546875 42.046875 
Q 12.40625 37.203125 11.703125 29.40625 
L 49 29.40625 
Q 48.296875 37.203125 43.140625 42.046875 
Q 38 46.90625 30.296875 46.90625 
z
" id="Montserrat-Regular-65"/>
     <path d="M 36.703125 53 
Q 46.59375 53 52.4375 47.25 
Q 58.296875 41.5 58.296875 30.5 
L 58.296875 0 
L 51.203125 0 
L 51.203125 29.796875 
Q 51.203125 38 47.09375 42.296875 
Q 43 46.59375 35.40625 46.59375 
Q 26.90625 46.59375 21.953125 41.546875 
Q 17 36.5 17 27.59375 
L 17 0 
L 9.90625 0 
L 9.90625 52.59375 
L 16.703125 52.59375 
L 16.703125 42.90625 
Q 19.59375 47.703125 24.75 50.34375 
Q 29.90625 53 36.703125 53 
z
" id="Montserrat-Regular-6e"/>
     <path d="M 24 -0.5 
Q 17.59375 -0.5 11.75 1.34375 
Q 5.90625 3.203125 2.59375 6 
L 5.796875 11.59375 
Q 9.09375 9 14.09375 7.34375 
Q 19.09375 5.703125 24.5 5.703125 
Q 31.703125 5.703125 35.140625 7.953125 
Q 38.59375 10.203125 38.59375 14.296875 
Q 38.59375 17.203125 36.6875 18.84375 
Q 34.796875 20.5 31.890625 21.34375 
Q 29 22.203125 24.203125 23 
Q 17.796875 24.203125 13.890625 25.453125 
Q 10 26.703125 7.25 29.703125 
Q 4.5 32.703125 4.5 38 
Q 4.5 44.59375 10 48.796875 
Q 15.5 53 25.296875 53 
Q 30.40625 53 35.5 51.640625 
Q 40.59375 50.296875 43.90625 48.09375 
L 40.796875 42.40625 
Q 34.296875 46.90625 25.296875 46.90625 
Q 18.5 46.90625 15.046875 44.5 
Q 11.59375 42.09375 11.59375 38.203125 
Q 11.59375 35.203125 13.546875 33.390625 
Q 15.5 31.59375 18.390625 30.75 
Q 21.296875 29.90625 26.40625 29 
Q 32.703125 27.796875 36.5 26.59375 
Q 40.296875 25.40625 43 22.5 
Q 45.703125 19.59375 45.703125 14.5 
Q 45.703125 7.59375 39.953125 3.546875 
Q 34.203125 -0.5 24 -0.5 
z
" id="Montserrat-Regular-73"/>
     <path id="Montserrat-Regular-20"/>
     <path d="M 37 53 
Q 44.40625 53 50.40625 49.640625 
Q 56.40625 46.296875 59.796875 40.1875 
Q 63.203125 34.09375 63.203125 26.296875 
Q 63.203125 18.40625 59.796875 12.296875 
Q 56.40625 6.203125 50.453125 2.84375 
Q 44.5 -0.5 37 -0.5 
Q 30.59375 -0.5 25.4375 2.140625 
Q 20.296875 4.796875 17 9.90625 
L 17 -19.40625 
L 9.90625 -19.40625 
L 9.90625 52.59375 
L 16.703125 52.59375 
L 16.703125 42.203125 
Q 19.90625 47.40625 25.15625 50.203125 
Q 30.40625 53 37 53 
z
M 36.5 5.796875 
Q 42 5.796875 46.5 8.34375 
Q 51 10.90625 53.546875 15.59375 
Q 56.09375 20.296875 56.09375 26.296875 
Q 56.09375 32.296875 53.546875 36.9375 
Q 51 41.59375 46.5 44.1875 
Q 42 46.796875 36.5 46.796875 
Q 30.90625 46.796875 26.453125 44.1875 
Q 22 41.59375 19.453125 36.9375 
Q 16.90625 32.296875 16.90625 26.296875 
Q 16.90625 20.296875 19.453125 15.59375 
Q 22 10.90625 26.453125 8.34375 
Q 30.90625 5.796875 36.5 5.796875 
z
" id="Montserrat-Regular-70"/>
     <path d="M 16.703125 42.296875 
Q 19.203125 47.59375 24.140625 50.296875 
Q 29.09375 53 36.40625 53 
L 36.40625 46.09375 
L 34.703125 46.203125 
Q 26.40625 46.203125 21.703125 41.09375 
Q 17 36 17 26.796875 
L 17 0 
L 9.90625 0 
L 9.90625 52.59375 
L 16.703125 52.59375 
L 16.703125 42.296875 
z
" id="Montserrat-Regular-72"/>
     <path d="M 9.90625 52.59375 
L 17 52.59375 
L 17 0 
L 9.90625 0 
z
M 13.5 64.09375 
Q 11.296875 64.09375 9.796875 65.59375 
Q 8.296875 67.09375 8.296875 69.203125 
Q 8.296875 71.203125 9.796875 72.703125 
Q 11.296875 74.203125 13.5 74.203125 
Q 15.703125 74.203125 17.203125 72.75 
Q 18.703125 71.296875 18.703125 69.296875 
Q 18.703125 67.09375 17.203125 65.59375 
Q 15.703125 64.09375 13.5 64.09375 
z
" id="Montserrat-Regular-69"/>
     <path d="M 36.703125 53 
Q 46.59375 53 52.4375 47.25 
Q 58.296875 41.5 58.296875 30.5 
L 58.296875 0 
L 51.203125 0 
L 51.203125 29.796875 
Q 51.203125 38 47.09375 42.296875 
Q 43 46.59375 35.40625 46.59375 
Q 26.90625 46.59375 21.953125 41.546875 
Q 17 36.5 17 27.59375 
L 17 0 
L 9.90625 0 
L 9.90625 74.203125 
L 17 74.203125 
L 17 43.40625 
Q 19.90625 48 25 50.5 
Q 30.09375 53 36.703125 53 
z
" id="Montserrat-Regular-68"/>
     <path d="M 28.296875 53 
Q 38.59375 53 44.09375 47.84375 
Q 49.59375 42.703125 49.59375 32.59375 
L 49.59375 0 
L 42.796875 0 
L 42.796875 8.203125 
Q 40.40625 4.09375 35.75 1.796875 
Q 31.09375 -0.5 24.703125 -0.5 
Q 15.90625 -0.5 10.703125 3.703125 
Q 5.5 7.90625 5.5 14.796875 
Q 5.5 21.5 10.34375 25.59375 
Q 15.203125 29.703125 25.796875 29.703125 
L 42.5 29.703125 
L 42.5 32.90625 
Q 42.5 39.703125 38.703125 43.25 
Q 34.90625 46.796875 27.59375 46.796875 
Q 22.59375 46.796875 18 45.140625 
Q 13.40625 43.5 10.09375 40.59375 
L 6.90625 45.90625 
Q 10.90625 49.296875 16.5 51.140625 
Q 22.09375 53 28.296875 53 
z
M 25.796875 5.09375 
Q 31.796875 5.09375 36.09375 7.84375 
Q 40.40625 10.59375 42.5 15.796875 
L 42.5 24.40625 
L 26 24.40625 
Q 12.5 24.40625 12.5 15 
Q 12.5 10.40625 16 7.75 
Q 19.5 5.09375 25.796875 5.09375 
z
" id="Montserrat-Regular-61"/>
     <path d="M 37 53 
Q 44.40625 53 50.40625 49.640625 
Q 56.40625 46.296875 59.796875 40.1875 
Q 63.203125 34.09375 63.203125 26.296875 
Q 63.203125 18.5 59.796875 12.390625 
Q 56.40625 6.296875 50.40625 2.890625 
Q 44.40625 -0.5 37 -0.5 
Q 30.40625 -0.5 25.15625 2.296875 
Q 19.90625 5.09375 16.703125 10.40625 
L 16.703125 0 
L 9.90625 0 
L 9.90625 74.203125 
L 17 74.203125 
L 17 42.59375 
Q 20.296875 47.703125 25.4375 50.34375 
Q 30.59375 53 37 53 
z
M 36.5 5.796875 
Q 42 5.796875 46.5 8.34375 
Q 51 10.90625 53.546875 15.59375 
Q 56.09375 20.296875 56.09375 26.296875 
Q 56.09375 32.296875 53.546875 37 
Q 51 41.703125 46.5 44.25 
Q 42 46.796875 36.5 46.796875 
Q 30.90625 46.796875 26.453125 44.25 
Q 22 41.703125 19.453125 37 
Q 16.90625 32.296875 16.90625 26.296875 
Q 16.90625 20.296875 19.453125 15.59375 
Q 22 10.90625 26.453125 8.34375 
Q 30.90625 5.796875 36.5 5.796875 
z
" id="Montserrat-Regular-62"/>
     <path d="M 37.59375 3.203125 
Q 35.59375 1.40625 32.640625 0.453125 
Q 29.703125 -0.5 26.5 -0.5 
Q 19.09375 -0.5 15.09375 3.5 
Q 11.09375 7.5 11.09375 14.796875 
L 11.09375 46.59375 
L 1.703125 46.59375 
L 1.703125 52.59375 
L 11.09375 52.59375 
L 11.09375 64.09375 
L 18.203125 64.09375 
L 18.203125 52.59375 
L 34.203125 52.59375 
L 34.203125 46.59375 
L 18.203125 46.59375 
L 18.203125 15.203125 
Q 18.203125 10.5 20.546875 8.046875 
Q 22.90625 5.59375 27.296875 5.59375 
Q 29.5 5.59375 31.546875 6.296875 
Q 33.59375 7 35.09375 8.296875 
z
" id="Montserrat-Regular-74"/>
    </defs>
    <g style="fill:#222222;" transform="translate(200.305286 59.4554)scale(0.18 -0.18)">
     <use xlink:href="#Montserrat-Regular-4f"/>
     <use x="83.899994" xlink:href="#Montserrat-Regular-66"/>
     <use x="117.799988" xlink:href="#Montserrat-Regular-66"/>
     <use x="151.699982" xlink:href="#Montserrat-Regular-65"/>
     <use x="212.099976" xlink:href="#Montserrat-Regular-6e"/>
     <use x="279.799957" xlink:href="#Montserrat-Regular-73"/>
     <use x="328.699951" xlink:href="#Montserrat-Regular-65"/>
     <use x="389.099945" xlink:href="#Montserrat-Regular-73"/>
     <use x="437.999939" xlink:href="#Montserrat-Regular-20"/>
     <use x="464.199936" xlink:href="#Montserrat-Regular-70"/>
     <use x="531.999924" xlink:href="#Montserrat-Regular-65"/>
     <use x="592.399918" xlink:href="#Montserrat-Regular-72"/>
     <use x="632.499908" xlink:href="#Montserrat-Regular-20"/>
     <use x="658.699905" xlink:href="#Montserrat-Regular-31"/>
     <use x="694.799896" xlink:href="#Montserrat-Regular-30"/>
     <use x="760.999893" xlink:href="#Montserrat-Regular-30"/>
     <use x="827.19989" xlink:href="#Montserrat-Regular-20"/>
     <use x="853.399887" xlink:href="#Montserrat-Regular-30"/>
     <use x="919.599884" xlink:href="#Montserrat-Regular-30"/>
     <use x="985.799881" xlink:href="#Montserrat-Regular-30"/>
     <use x="1051.999878" xlink:href="#Montserrat-Regular-20"/>
     <use x="1078.199875" xlink:href="#Montserrat-Regular-69"/>
     <use x="1105.099869" xlink:href="#Montserrat-Regular-6e"/>
     <use x="1172.79985" xlink:href="#Montserrat-Regular-68"/>
     <use x="1240.499832" xlink:href="#Montserrat-Regular-61"/>
     <use x="1299.499817" xlink:href="#Montserrat-Regular-62"/>
     <use x="1367.299805" xlink:href="#Montserrat-Regular-69"/>
     <use x="1394.199799" xlink:href="#Montserrat-Regular-74"/>
     <use x="1434.799789" xlink:href="#Montserrat-Regular-61"/>
     <use x="1493.799774" xlink:href="#Montserrat-Regular-6e"/>
     <use x="1561.499756" xlink:href="#Montserrat-Regular-74"/>
     <use x="1602.099747" xlink:href="#Montserrat-Regular-73"/>
    </g>
   </g>
  </g>
  <g id="text_17">
   <!-- Intentional homicide rate in EU -->
   <defs>
    <path d="M 8.296875 70 
L 24.5 70 
L 24.5 0 
L 8.296875 0 
z
" id="Montserrat-Bold-49"/>
    <path d="M 39.90625 54.59375 
Q 49.90625 54.59375 56.046875 48.59375 
Q 62.203125 42.59375 62.203125 30.796875 
L 62.203125 0 
L 46.59375 0 
L 46.59375 28.40625 
Q 46.59375 34.796875 43.796875 37.9375 
Q 41 41.09375 35.703125 41.09375 
Q 29.796875 41.09375 26.296875 37.4375 
Q 22.796875 33.796875 22.796875 26.59375 
L 22.796875 0 
L 7.203125 0 
L 7.203125 53.796875 
L 22.09375 53.796875 
L 22.09375 47.5 
Q 25.203125 50.90625 29.796875 52.75 
Q 34.40625 54.59375 39.90625 54.59375 
z
" id="Montserrat-Bold-6e"/>
    <path d="M 41.90625 2.59375 
Q 39.59375 0.90625 36.25 0.046875 
Q 32.90625 -0.796875 29.203125 -0.796875 
Q 19.59375 -0.796875 14.34375 4.09375 
Q 9.09375 9 9.09375 18.5 
L 9.09375 40.59375 
L 0.796875 40.59375 
L 0.796875 52.59375 
L 9.09375 52.59375 
L 9.09375 65.703125 
L 24.703125 65.703125 
L 24.703125 52.59375 
L 38.09375 52.59375 
L 38.09375 40.59375 
L 24.703125 40.59375 
L 24.703125 18.703125 
Q 24.703125 15.296875 26.453125 13.4375 
Q 28.203125 11.59375 31.40625 11.59375 
Q 35.09375 11.59375 37.703125 13.59375 
z
" id="Montserrat-Bold-74"/>
    <path d="M 59.90625 26.703125 
Q 59.90625 26.40625 59.59375 22.5 
L 18.90625 22.5 
Q 20 17.5 24.09375 14.59375 
Q 28.203125 11.703125 34.296875 11.703125 
Q 38.5 11.703125 41.75 12.953125 
Q 45 14.203125 47.796875 16.90625 
L 56.09375 7.90625 
Q 48.5 -0.796875 33.90625 -0.796875 
Q 24.796875 -0.796875 17.796875 2.75 
Q 10.796875 6.296875 7 12.59375 
Q 3.203125 18.90625 3.203125 26.90625 
Q 3.203125 34.796875 6.953125 41.140625 
Q 10.703125 47.5 17.25 51.046875 
Q 23.796875 54.59375 31.90625 54.59375 
Q 39.796875 54.59375 46.1875 51.1875 
Q 52.59375 47.796875 56.25 41.4375 
Q 59.90625 35.09375 59.90625 26.703125 
z
M 32 42.796875 
Q 26.703125 42.796875 23.09375 39.796875 
Q 19.5 36.796875 18.703125 31.59375 
L 45.203125 31.59375 
Q 44.40625 36.703125 40.796875 39.75 
Q 37.203125 42.796875 32 42.796875 
z
" id="Montserrat-Bold-65"/>
    <path d="M 7.203125 53.796875 
L 22.796875 53.796875 
L 22.796875 0 
L 7.203125 0 
z
M 15 61.296875 
Q 10.703125 61.296875 8 63.796875 
Q 5.296875 66.296875 5.296875 70 
Q 5.296875 73.703125 8 76.203125 
Q 10.703125 78.703125 15 78.703125 
Q 19.296875 78.703125 22 76.296875 
Q 24.703125 73.90625 24.703125 70.296875 
Q 24.703125 66.40625 22 63.84375 
Q 19.296875 61.296875 15 61.296875 
z
" id="Montserrat-Bold-69"/>
    <path d="M 32.796875 -0.796875 
Q 24.296875 -0.796875 17.546875 2.75 
Q 10.796875 6.296875 7 12.59375 
Q 3.203125 18.90625 3.203125 26.90625 
Q 3.203125 34.90625 7 41.203125 
Q 10.796875 47.5 17.546875 51.046875 
Q 24.296875 54.59375 32.796875 54.59375 
Q 41.296875 54.59375 48 51.046875 
Q 54.703125 47.5 58.5 41.203125 
Q 62.296875 34.90625 62.296875 26.90625 
Q 62.296875 18.90625 58.5 12.59375 
Q 54.703125 6.296875 48 2.75 
Q 41.296875 -0.796875 32.796875 -0.796875 
z
M 32.796875 12 
Q 38.796875 12 42.640625 16.046875 
Q 46.5 20.09375 46.5 26.90625 
Q 46.5 33.703125 42.640625 37.75 
Q 38.796875 41.796875 32.796875 41.796875 
Q 26.796875 41.796875 22.890625 37.75 
Q 19 33.703125 19 26.90625 
Q 19 20.09375 22.890625 16.046875 
Q 26.796875 12 32.796875 12 
z
" id="Montserrat-Bold-6f"/>
    <path d="M 28.90625 54.59375 
Q 41.40625 54.59375 48.09375 48.640625 
Q 54.796875 42.703125 54.796875 30.703125 
L 54.796875 0 
L 40.203125 0 
L 40.203125 6.703125 
Q 35.796875 -0.796875 23.796875 -0.796875 
Q 17.59375 -0.796875 13.046875 1.296875 
Q 8.5 3.40625 6.09375 7.09375 
Q 3.703125 10.796875 3.703125 15.5 
Q 3.703125 23 9.34375 27.296875 
Q 15 31.59375 26.796875 31.59375 
L 39.203125 31.59375 
Q 39.203125 36.703125 36.09375 39.453125 
Q 33 42.203125 26.796875 42.203125 
Q 22.5 42.203125 18.34375 40.84375 
Q 14.203125 39.5 11.296875 37.203125 
L 5.703125 48.09375 
Q 10.09375 51.203125 16.25 52.890625 
Q 22.40625 54.59375 28.90625 54.59375 
z
M 27.703125 9.703125 
Q 31.703125 9.703125 34.796875 11.546875 
Q 37.90625 13.40625 39.203125 17 
L 39.203125 22.5 
L 28.5 22.5 
Q 18.90625 22.5 18.90625 16.203125 
Q 18.90625 13.203125 21.25 11.453125 
Q 23.59375 9.703125 27.703125 9.703125 
z
" id="Montserrat-Bold-61"/>
    <path d="M 7.203125 74.203125 
L 22.796875 74.203125 
L 22.796875 0 
L 7.203125 0 
z
" id="Montserrat-Bold-6c"/>
    <path id="Montserrat-Bold-20"/>
    <path d="M 39.90625 54.59375 
Q 49.90625 54.59375 56.046875 48.59375 
Q 62.203125 42.59375 62.203125 30.796875 
L 62.203125 0 
L 46.59375 0 
L 46.59375 28.40625 
Q 46.59375 34.796875 43.796875 37.9375 
Q 41 41.09375 35.703125 41.09375 
Q 29.796875 41.09375 26.296875 37.4375 
Q 22.796875 33.796875 22.796875 26.59375 
L 22.796875 0 
L 7.203125 0 
L 7.203125 74.203125 
L 22.796875 74.203125 
L 22.796875 48.203125 
Q 25.90625 51.296875 30.296875 52.9375 
Q 34.703125 54.59375 39.90625 54.59375 
z
" id="Montserrat-Bold-68"/>
    <path d="M 76.09375 54.59375 
Q 86.203125 54.59375 92.140625 48.640625 
Q 98.09375 42.703125 98.09375 30.796875 
L 98.09375 0 
L 82.5 0 
L 82.5 28.40625 
Q 82.5 34.796875 79.84375 37.9375 
Q 77.203125 41.09375 72.296875 41.09375 
Q 66.796875 41.09375 63.59375 37.546875 
Q 60.40625 34 60.40625 27 
L 60.40625 0 
L 44.796875 0 
L 44.796875 28.40625 
Q 44.796875 41.09375 34.59375 41.09375 
Q 29.203125 41.09375 26 37.546875 
Q 22.796875 34 22.796875 27 
L 22.796875 0 
L 7.203125 0 
L 7.203125 53.796875 
L 22.09375 53.796875 
L 22.09375 47.59375 
Q 25.09375 51 29.4375 52.796875 
Q 33.796875 54.59375 39 54.59375 
Q 44.703125 54.59375 49.296875 52.34375 
Q 53.90625 50.09375 56.703125 45.796875 
Q 60 50 65.046875 52.296875 
Q 70.09375 54.59375 76.09375 54.59375 
z
" id="Montserrat-Bold-6d"/>
    <path d="M 33.203125 -0.796875 
Q 24.59375 -0.796875 17.75 2.75 
Q 10.90625 6.296875 7.046875 12.59375 
Q 3.203125 18.90625 3.203125 26.90625 
Q 3.203125 34.90625 7.046875 41.203125 
Q 10.90625 47.5 17.75 51.046875 
Q 24.59375 54.59375 33.203125 54.59375 
Q 41.703125 54.59375 48.046875 51.046875 
Q 54.40625 47.5 57.296875 40.90625 
L 45.203125 34.40625 
Q 41 41.796875 33.09375 41.796875 
Q 27 41.796875 23 37.796875 
Q 19 33.796875 19 26.90625 
Q 19 20 23 16 
Q 27 12 33.09375 12 
Q 41.09375 12 45.203125 19.40625 
L 57.296875 12.796875 
Q 54.40625 6.40625 48.046875 2.796875 
Q 41.703125 -0.796875 33.203125 -0.796875 
z
" id="Montserrat-Bold-63"/>
    <path d="M 62 74.203125 
L 62 0 
L 47.09375 0 
L 47.09375 6.203125 
Q 41.296875 -0.796875 30.296875 -0.796875 
Q 22.703125 -0.796875 16.546875 2.59375 
Q 10.40625 6 6.90625 12.296875 
Q 3.40625 18.59375 3.40625 26.90625 
Q 3.40625 35.203125 6.90625 41.5 
Q 10.40625 47.796875 16.546875 51.1875 
Q 22.703125 54.59375 30.296875 54.59375 
Q 40.59375 54.59375 46.40625 48.09375 
L 46.40625 74.203125 
z
M 33 12 
Q 38.90625 12 42.796875 16.046875 
Q 46.703125 20.09375 46.703125 26.90625 
Q 46.703125 33.703125 42.796875 37.75 
Q 38.90625 41.796875 33 41.796875 
Q 27 41.796875 23.09375 37.75 
Q 19.203125 33.703125 19.203125 26.90625 
Q 19.203125 20.09375 23.09375 16.046875 
Q 27 12 33 12 
z
" id="Montserrat-Bold-64"/>
    <path d="M 22.09375 46.703125 
Q 24.90625 50.59375 29.65625 52.59375 
Q 34.40625 54.59375 40.59375 54.59375 
L 40.59375 40.203125 
Q 38 40.40625 37.09375 40.40625 
Q 30.40625 40.40625 26.59375 36.65625 
Q 22.796875 32.90625 22.796875 25.40625 
L 22.796875 0 
L 7.203125 0 
L 7.203125 53.796875 
L 22.09375 53.796875 
L 22.09375 46.703125 
z
" id="Montserrat-Bold-72"/>
    <path d="M 62.5 13 
L 62.5 0 
L 8.296875 0 
L 8.296875 70 
L 61.203125 70 
L 61.203125 57 
L 24.40625 57 
L 24.40625 41.796875 
L 56.90625 41.796875 
L 56.90625 29.203125 
L 24.40625 29.203125 
L 24.40625 13 
z
" id="Montserrat-Bold-45"/>
    <path d="M 39.40625 -1.203125 
Q 24.40625 -1.203125 16.046875 7.09375 
Q 7.703125 15.40625 7.703125 30.796875 
L 7.703125 70 
L 23.90625 70 
L 23.90625 31.40625 
Q 23.90625 12.59375 39.5 12.59375 
Q 47.09375 12.59375 51.09375 17.140625 
Q 55.09375 21.703125 55.09375 31.40625 
L 55.09375 70 
L 71.09375 70 
L 71.09375 30.796875 
Q 71.09375 15.40625 62.75 7.09375 
Q 54.40625 -1.203125 39.40625 -1.203125 
z
" id="Montserrat-Bold-55"/>
   </defs>
   <g style="fill:#222222;" transform="translate(145.404375 26.26155)scale(0.24 -0.24)">
    <use xlink:href="#Montserrat-Bold-49"/>
    <use x="32.799988" xlink:href="#Montserrat-Bold-6e"/>
    <use x="101.899979" xlink:href="#Montserrat-Bold-74"/>
    <use x="145.399963" xlink:href="#Montserrat-Bold-65"/>
    <use x="208.499954" xlink:href="#Montserrat-Bold-6e"/>
    <use x="277.599945" xlink:href="#Montserrat-Bold-74"/>
    <use x="321.09993" xlink:href="#Montserrat-Bold-69"/>
    <use x="351.199921" xlink:href="#Montserrat-Bold-6f"/>
    <use x="416.699905" xlink:href="#Montserrat-Bold-6e"/>
    <use x="485.799896" xlink:href="#Montserrat-Bold-61"/>
    <use x="547.499893" xlink:href="#Montserrat-Bold-6c"/>
    <use x="577.599884" xlink:href="#Montserrat-Bold-20"/>
    <use x="605.899872" xlink:href="#Montserrat-Bold-68"/>
    <use x="674.999863" xlink:href="#Montserrat-Bold-6f"/>
    <use x="740.499847" xlink:href="#Montserrat-Bold-6d"/>
    <use x="845.399841" xlink:href="#Montserrat-Bold-69"/>
    <use x="875.499832" xlink:href="#Montserrat-Bold-63"/>
    <use x="934.599823" xlink:href="#Montserrat-Bold-69"/>
    <use x="964.699814" xlink:href="#Montserrat-Bold-64"/>
    <use x="1033.899796" xlink:href="#Montserrat-Bold-65"/>
    <use x="1096.999786" xlink:href="#Montserrat-Bold-20"/>
    <use x="1125.299774" xlink:href="#Montserrat-Bold-72"/>
    <use x="1168.399765" xlink:href="#Montserrat-Bold-61"/>
    <use x="1230.099762" xlink:href="#Montserrat-Bold-74"/>
    <use x="1273.599747" xlink:href="#Montserrat-Bold-65"/>
    <use x="1336.699738" xlink:href="#Montserrat-Bold-20"/>
    <use x="1364.999725" xlink:href="#Montserrat-Bold-69"/>
    <use x="1395.099716" xlink:href="#Montserrat-Bold-6e"/>
    <use x="1464.199707" xlink:href="#Montserrat-Bold-20"/>
    <use x="1492.499695" xlink:href="#Montserrat-Bold-45"/>
    <use x="1559.599686" xlink:href="#Montserrat-Bold-55"/>
   </g>
  </g>
  <g id="text_18">
   <!-- Source: Eurostat -->
   <defs>
    <path d="M 30.703125 -0.59375 
Q 22.90625 -0.59375 15.75 1.90625 
Q 8.59375 4.40625 4.703125 8.5 
L 7.59375 14.203125 
Q 11.40625 10.40625 17.703125 8.046875 
Q 24 5.703125 30.703125 5.703125 
Q 40.09375 5.703125 44.796875 9.140625 
Q 49.5 12.59375 49.5 18.09375 
Q 49.5 22.296875 46.953125 24.796875 
Q 44.40625 27.296875 40.703125 28.640625 
Q 37 30 30.40625 31.59375 
Q 22.5 33.59375 17.796875 35.4375 
Q 13.09375 37.296875 9.75 41.09375 
Q 6.40625 44.90625 6.40625 51.40625 
Q 6.40625 56.703125 9.203125 61.046875 
Q 12 65.40625 17.796875 68 
Q 23.59375 70.59375 32.203125 70.59375 
Q 38.203125 70.59375 43.953125 68.9375 
Q 49.703125 67.296875 53.90625 64.40625 
L 51.40625 58.5 
Q 47 61.40625 42 62.84375 
Q 37 64.296875 32.203125 64.296875 
Q 23 64.296875 18.34375 60.75 
Q 13.703125 57.203125 13.703125 51.59375 
Q 13.703125 47.40625 16.25 44.84375 
Q 18.796875 42.296875 22.640625 40.9375 
Q 26.5 39.59375 33 38 
Q 40.703125 36.09375 45.453125 34.25 
Q 50.203125 32.40625 53.5 28.65625 
Q 56.796875 24.90625 56.796875 18.5 
Q 56.796875 13.203125 53.9375 8.84375 
Q 51.09375 4.5 45.1875 1.953125 
Q 39.296875 -0.59375 30.703125 -0.59375 
z
" id="Montserrat-Regular-53"/>
    <path d="M 31.40625 -0.5 
Q 23.796875 -0.5 17.6875 2.953125 
Q 11.59375 6.40625 8.09375 12.5 
Q 4.59375 18.59375 4.59375 26.296875 
Q 4.59375 34 8.09375 40.09375 
Q 11.59375 46.203125 17.6875 49.59375 
Q 23.796875 53 31.40625 53 
Q 39 53 45.09375 49.59375 
Q 51.203125 46.203125 54.640625 40.09375 
Q 58.09375 34 58.09375 26.296875 
Q 58.09375 18.59375 54.640625 12.5 
Q 51.203125 6.40625 45.09375 2.953125 
Q 39 -0.5 31.40625 -0.5 
z
M 31.40625 5.796875 
Q 37 5.796875 41.453125 8.34375 
Q 45.90625 10.90625 48.40625 15.59375 
Q 50.90625 20.296875 50.90625 26.296875 
Q 50.90625 32.296875 48.40625 37 
Q 45.90625 41.703125 41.453125 44.25 
Q 37 46.796875 31.40625 46.796875 
Q 25.796875 46.796875 21.34375 44.25 
Q 16.90625 41.703125 14.34375 37 
Q 11.796875 32.296875 11.796875 26.296875 
Q 11.796875 20.296875 14.34375 15.59375 
Q 16.90625 10.90625 21.34375 8.34375 
Q 25.796875 5.796875 31.40625 5.796875 
z
" id="Montserrat-Regular-6f"/>
    <path d="M 57.296875 52.59375 
L 57.296875 0 
L 50.5 0 
L 50.5 9.59375 
Q 47.703125 4.796875 42.796875 2.140625 
Q 37.90625 -0.5 31.59375 -0.5 
Q 21.296875 -0.5 15.34375 5.25 
Q 9.40625 11 9.40625 22.09375 
L 9.40625 52.59375 
L 16.5 52.59375 
L 16.5 22.796875 
Q 16.5 14.5 20.59375 10.203125 
Q 24.703125 5.90625 32.296875 5.90625 
Q 40.59375 5.90625 45.390625 10.953125 
Q 50.203125 16 50.203125 25 
L 50.203125 52.59375 
z
" id="Montserrat-Regular-75"/>
    <path d="M 31.703125 -0.5 
Q 23.90625 -0.5 17.75 2.890625 
Q 11.59375 6.296875 8.09375 12.4375 
Q 4.59375 18.59375 4.59375 26.296875 
Q 4.59375 34 8.09375 40.09375 
Q 11.59375 46.203125 17.75 49.59375 
Q 23.90625 53 31.703125 53 
Q 38.5 53 43.84375 50.34375 
Q 49.203125 47.703125 52.296875 42.59375 
L 47 39 
Q 44.40625 42.90625 40.40625 44.84375 
Q 36.40625 46.796875 31.703125 46.796875 
Q 26 46.796875 21.453125 44.25 
Q 16.90625 41.703125 14.34375 37 
Q 11.796875 32.296875 11.796875 26.296875 
Q 11.796875 20.203125 14.34375 15.546875 
Q 16.90625 10.90625 21.453125 8.34375 
Q 26 5.796875 31.703125 5.796875 
Q 36.40625 5.796875 40.40625 7.6875 
Q 44.40625 9.59375 47 13.5 
L 52.296875 9.90625 
Q 49.203125 4.796875 43.796875 2.140625 
Q 38.40625 -0.5 31.703125 -0.5 
z
" id="Montserrat-Regular-63"/>
    <path d="M 10.59375 42.5 
Q 8.40625 42.5 6.84375 44.09375 
Q 5.296875 45.703125 5.296875 48 
Q 5.296875 50.296875 6.84375 51.84375 
Q 8.40625 53.40625 10.59375 53.40625 
Q 12.796875 53.40625 14.390625 51.84375 
Q 16 50.296875 16 48 
Q 16 45.703125 14.390625 44.09375 
Q 12.796875 42.5 10.59375 42.5 
z
M 10.59375 -0.5 
Q 8.40625 -0.5 6.84375 1.09375 
Q 5.296875 2.703125 5.296875 5 
Q 5.296875 7.296875 6.84375 8.84375 
Q 8.40625 10.40625 10.59375 10.40625 
Q 12.796875 10.40625 14.390625 8.84375 
Q 16 7.296875 16 5 
Q 16 2.703125 14.390625 1.09375 
Q 12.796875 -0.5 10.59375 -0.5 
z
" id="Montserrat-Regular-3a"/>
    <path d="M 60.90625 6.40625 
L 60.90625 0 
L 11.40625 0 
L 11.40625 70 
L 59.40625 70 
L 59.40625 63.59375 
L 18.796875 63.59375 
L 18.796875 38.703125 
L 55 38.703125 
L 55 32.40625 
L 18.796875 32.40625 
L 18.796875 6.40625 
z
" id="Montserrat-Regular-45"/>
   </defs>
   <g style="fill:#222222;" transform="translate(578.544375 418.4136)scale(0.12 -0.12)">
    <use xlink:href="#Montserrat-Regular-53"/>
    <use x="61.499985" xlink:href="#Montserrat-Regular-6f"/>
    <use x="124.199982" xlink:href="#Montserrat-Regular-75"/>
    <use x="191.499969" xlink:href="#Montserrat-Regular-72"/>
    <use x="231.59996" xlink:href="#Montserrat-Regular-63"/>
    <use x="287.899948" xlink:href="#Montserrat-Regular-65"/>
    <use x="348.299942" xlink:href="#Montserrat-Regular-3a"/>
    <use x="369.499939" xlink:href="#Montserrat-Regular-20"/>
    <use x="395.699936" xlink:href="#Montserrat-Regular-45"/>
    <use x="462.59993" xlink:href="#Montserrat-Regular-75"/>
    <use x="529.899918" xlink:href="#Montserrat-Regular-72"/>
    <use x="569.999908" xlink:href="#Montserrat-Regular-6f"/>
    <use x="632.699905" xlink:href="#Montserrat-Regular-73"/>
    <use x="681.599899" xlink:href="#Montserrat-Regular-74"/>
    <use x="722.19989" xlink:href="#Montserrat-Regular-61"/>
    <use x="781.199875" xlink:href="#Montserrat-Regular-74"/>
   </g>
  </g>
 </g>
 <defs>
  <clipPath id="p5765f125be">
   <rect height="350.14" width="592.524634" x="52.64" y="26.94"/>
  </clipPath>
 </defs>
</svg>
